<svg xmlns="http://www.w3.org/2000/svg" viewBox="0 0 12 12" width="12" height="12">
  <!-- Cobweb (12x12) - Dungeon detail -->
  <!-- Color Palette: #ecf0f1, #bdc3c7, #95a5a6 -->

  <!-- Main strands -->
  <rect x="0" y="0" width="1" height="12" fill="#bdc3c7"/>
  <rect x="0" y="0" width="12" height="1" fill="#bdc3c7"/>

  <!-- Diagonal strand -->
  <rect x="1" y="1" width="1" height="1" fill="#ecf0f1"/>
  <rect x="2" y="2" width="1" height="1" fill="#ecf0f1"/>
  <rect x="3" y="3" width="1" height="1" fill="#ecf0f1"/>
  <rect x="4" y="4" width="1" height="1" fill="#ecf0f1"/>
  <rect x="5" y="5" width="1" height="1" fill="#ecf0f1"/>
  <rect x="6" y="6" width="1" height="1" fill="#bdc3c7"/>

  <!-- Curved strands -->
  <rect x="4" y="1" width="1" height="1" fill="#95a5a6"/>
  <rect x="6" y="2" width="1" height="1" fill="#95a5a6"/>
  <rect x="8" y="3" width="1" height="1" fill="#95a5a6"/>
  <rect x="10" y="4" width="1" height="1" fill="#95a5a6"/>

  <rect x="1" y="4" width="1" height="1" fill="#95a5a6"/>
  <rect x="2" y="6" width="1" height="1" fill="#95a5a6"/>
  <rect x="3" y="8" width="1" height="1" fill="#95a5a6"/>
  <rect x="4" y="10" width="1" height="1" fill="#95a5a6"/>

  <!-- Connection points -->
  <rect x="3" y="3" width="2" height="2" fill="#ecf0f1"/>
</svg>
