<svg xmlns="http://www.w3.org/2000/svg" viewBox="0 0 192 48" width="192" height="48">
  <!-- Defeat Banner (192x48) - Defeat text banner -->
  <!-- Color Palette: #c0392b, #e74c3c, #7f8c8d, #fdfefe -->

  <!-- Banner ribbon (torn/tattered) -->
  <rect x="0" y="12" width="192" height="24" fill="#c0392b"/>
  <rect x="4" y="14" width="184" height="20" fill="#e74c3c"/>
  <rect x="8" y="16" width="176" height="16" fill="#c0392b"/>

  <!-- Torn edges (left) -->
  <rect x="0" y="8" width="16" height="8" fill="#922b21"/>
  <rect x="0" y="32" width="20" height="8" fill="#922b21"/>
  <rect x="4" y="36" width="12" height="10" fill="#7b241c"/>
  <rect x="16" y="38" width="4" height="6" fill="#922b21"/>

  <!-- Torn edges (right) -->
  <rect x="176" y="8" width="16" height="8" fill="#922b21"/>
  <rect x="172" y="32" width="20" height="8" fill="#922b21"/>
  <rect x="176" y="36" width="12" height="10" fill="#7b241c"/>
  <rect x="168" y="40" width="4" height="4" fill="#922b21"/>

  <!-- "DEFEAT" text -->
  <!-- D -->
  <rect x="48" y="18" width="3" height="12" fill="#fdfefe"/>
  <rect x="48" y="18" width="8" height="3" fill="#fdfefe"/>
  <rect x="54" y="20" width="3" height="8" fill="#fdfefe"/>
  <rect x="48" y="27" width="8" height="3" fill="#fdfefe"/>
  <!-- E -->
  <rect x="62" y="18" width="3" height="12" fill="#fdfefe"/>
  <rect x="62" y="18" width="8" height="3" fill="#fdfefe"/>
  <rect x="62" y="22" width="6" height="3" fill="#fdfefe"/>
  <rect x="62" y="27" width="8" height="3" fill="#fdfefe"/>
  <!-- F -->
  <rect x="76" y="18" width="3" height="12" fill="#fdfefe"/>
  <rect x="76" y="18" width="8" height="3" fill="#fdfefe"/>
  <rect x="76" y="22" width="6" height="3" fill="#fdfefe"/>
  <!-- E -->
  <rect x="90" y="18" width="3" height="12" fill="#fdfefe"/>
  <rect x="90" y="18" width="8" height="3" fill="#fdfefe"/>
  <rect x="90" y="22" width="6" height="3" fill="#fdfefe"/>
  <rect x="90" y="27" width="8" height="3" fill="#fdfefe"/>
  <!-- A -->
  <rect x="104" y="18" width="10" height="3" fill="#fdfefe"/>
  <rect x="104" y="18" width="3" height="12" fill="#fdfefe"/>
  <rect x="111" y="18" width="3" height="12" fill="#fdfefe"/>
  <rect x="104" y="23" width="10" height="3" fill="#fdfefe"/>
  <!-- T -->
  <rect x="120" y="18" width="10" height="3" fill="#fdfefe"/>
  <rect x="123" y="18" width="4" height="12" fill="#fdfefe"/>

  <!-- Skull accent (left) -->
  <rect x="24" y="18" width="10" height="8" fill="#fdfefe"/>
  <rect x="26" y="20" width="2" height="2" fill="#c0392b"/>
  <rect x="30" y="20" width="2" height="2" fill="#c0392b"/>
  <rect x="27" y="24" width="4" height="2" fill="#c0392b"/>
  <rect x="26" y="26" width="6" height="4" fill="#fdfefe"/>

  <!-- Skull accent (right) -->
  <rect x="140" y="18" width="10" height="8" fill="#fdfefe"/>
  <rect x="142" y="20" width="2" height="2" fill="#c0392b"/>
  <rect x="146" y="20" width="2" height="2" fill="#c0392b"/>
  <rect x="143" y="24" width="4" height="2" fill="#c0392b"/>
  <rect x="142" y="26" width="6" height="4" fill="#fdfefe"/>
</svg>
