<svg xmlns="http://www.w3.org/2000/svg" viewBox="0 0 96 32" width="96" height="32">
  <!-- Small Game Logo (96x32) - Compact title logo -->
  <!-- Color Palette: #f4d03f, #f39c12, #e67e22, #2c3e50, #1a252f -->

  <!-- Background banner -->
  <rect x="0" y="4" width="96" height="24" fill="#2c3e50"/>
  <rect x="2" y="6" width="92" height="20" fill="#1a252f"/>
  <rect x="4" y="8" width="88" height="16" fill="#34495e"/>

  <!-- Top edge -->
  <rect x="0" y="2" width="96" height="3" fill="#f39c12"/>
  <rect x="4" y="3" width="88" height="1" fill="#f4d03f"/>

  <!-- Bottom edge -->
  <rect x="0" y="27" width="96" height="3" fill="#f39c12"/>
  <rect x="4" y="27" width="88" height="1" fill="#e67e22"/>

  <!-- Corner accents -->
  <rect x="0" y="4" width="6" height="23" fill="#f39c12"/>
  <rect x="1" y="6" width="4" height="19" fill="#e67e22"/>
  <rect x="2" y="8" width="2" height="15" fill="#f4d03f"/>

  <rect x="90" y="4" width="6" height="23" fill="#f39c12"/>
  <rect x="91" y="6" width="4" height="19" fill="#e67e22"/>
  <rect x="92" y="8" width="2" height="15" fill="#f4d03f"/>

  <!-- "KD" stylized -->
  <rect x="28" y="10" width="40" height="12" fill="#f4d03f"/>
  <rect x="30" y="12" width="36" height="8" fill="#f39c12"/>

  <!-- K -->
  <rect x="34" y="12" width="3" height="8" fill="#fdfefe"/>
  <rect x="40" y="12" width="3" height="3" fill="#fdfefe"/>
  <rect x="37" y="14" width="3" height="3" fill="#fdfefe"/>
  <rect x="40" y="16" width="3" height="4" fill="#fdfefe"/>

  <!-- D -->
  <rect x="46" y="12" width="3" height="8" fill="#fdfefe"/>
  <rect x="46" y="12" width="8" height="2" fill="#fdfefe"/>
  <rect x="52" y="13" width="3" height="6" fill="#fdfefe"/>
  <rect x="46" y="18" width="8" height="2" fill="#fdfefe"/>

  <!-- Keyboard hint below -->
  <rect x="32" y="22" width="32" height="4" fill="#5d6d7e"/>
  <rect x="34" y="23" width="6" height="2" fill="#ecf0f1"/>
  <rect x="42" y="23" width="6" height="2" fill="#ecf0f1"/>
  <rect x="50" y="23" width="6" height="2" fill="#ecf0f1"/>
</svg>
