<svg xmlns="http://www.w3.org/2000/svg" viewBox="0 0 32 32" width="32" height="32">
  <!-- New Record Medal (32x32) - New high score indicator -->
  <!-- Color Palette: #f4d03f, #f39c12, #e74c3c, #fdfefe -->

  <!-- Ribbon -->
  <rect x="8" y="0" width="6" height="12" fill="#e74c3c"/>
  <rect x="18" y="0" width="6" height="12" fill="#e74c3c"/>
  <rect x="9" y="0" width="4" height="10" fill="#c0392b"/>
  <rect x="19" y="0" width="4" height="10" fill="#c0392b"/>

  <!-- Medal circle -->
  <rect x="8" y="10" width="16" height="4" fill="#f39c12"/>
  <rect x="6" y="12" width="20" height="4" fill="#f39c12"/>
  <rect x="4" y="14" width="24" height="10" fill="#f39c12"/>
  <rect x="6" y="24" width="20" height="4" fill="#f39c12"/>
  <rect x="8" y="26" width="16" height="4" fill="#f39c12"/>
  <rect x="10" y="28" width="12" height="2" fill="#f39c12"/>

  <!-- Medal face -->
  <rect x="8" y="12" width="16" height="2" fill="#f4d03f"/>
  <rect x="6" y="14" width="20" height="8" fill="#f4d03f"/>
  <rect x="8" y="22" width="16" height="4" fill="#f4d03f"/>
  <rect x="10" y="24" width="12" height="2" fill="#f4d03f"/>

  <!-- "NEW" text on medal -->
  <rect x="9" y="16" width="2" height="6" fill="#e67e22"/>
  <rect x="10" y="18" width="1" height="2" fill="#e67e22"/>
  <rect x="11" y="16" width="1" height="6" fill="#e67e22"/>
  <rect x="14" y="16" width="4" height="1" fill="#e67e22"/>
  <rect x="14" y="16" width="1" height="6" fill="#e67e22"/>
  <rect x="14" y="18" width="3" height="1" fill="#e67e22"/>
  <rect x="14" y="21" width="4" height="1" fill="#e67e22"/>
  <rect x="20" y="16" width="3" height="1" fill="#e67e22"/>
  <rect x="20" y="16" width="1" height="6" fill="#e67e22"/>
  <rect x="21" y="18" width="1" height="2" fill="#e67e22"/>
  <rect x="22" y="16" width="1" height="6" fill="#e67e22"/>

  <!-- Sparkle -->
  <rect x="4" y="10" width="2" height="2" fill="#fdfefe"/>
  <rect x="26" y="10" width="2" height="2" fill="#fdfefe"/>
  <rect x="14" y="6" width="4" height="2" fill="#fdfefe"/>
</svg>
