<svg xmlns="http://www.w3.org/2000/svg" viewBox="0 0 512 64" width="512" height="64">
  <!-- Victory Confetti (512x64) - 8 frames of 64x64 confetti animation -->
  <!-- Color Palette: #e74c3c, #f39c12, #f4d03f, #27ae60, #3498db, #9b59b6 -->

  <!-- FRAME 1 -->
  <rect x="10" y="10" width="4" height="4" fill="#e74c3c"/>
  <rect x="30" y="20" width="4" height="4" fill="#f39c12"/>
  <rect x="50" y="8" width="4" height="4" fill="#27ae60"/>
  <rect x="20" y="40" width="4" height="4" fill="#3498db"/>
  <rect x="45" y="50" width="4" height="4" fill="#9b59b6"/>

  <!-- FRAME 2 -->
  <rect x="74" y="14" width="4" height="4" fill="#e74c3c"/>
  <rect x="94" y="26" width="4" height="4" fill="#f4d03f"/>
  <rect x="114" y="12" width="4" height="4" fill="#27ae60"/>
  <rect x="80" y="44" width="4" height="4" fill="#3498db"/>
  <rect x="108" y="52" width="4" height="4" fill="#9b59b6"/>
  <rect x="120" y="30" width="3" height="3" fill="#f39c12"/>

  <!-- FRAME 3 -->
  <rect x="138" y="18" width="4" height="4" fill="#e74c3c"/>
  <rect x="158" y="32" width="4" height="4" fill="#f4d03f"/>
  <rect x="176" y="16" width="4" height="4" fill="#27ae60"/>
  <rect x="144" y="48" width="4" height="4" fill="#3498db"/>
  <rect x="170" y="54" width="4" height="4" fill="#9b59b6"/>
  <rect x="150" y="8" width="3" height="3" fill="#f39c12"/>
  <rect x="182" y="40" width="3" height="3" fill="#e74c3c"/>

  <!-- FRAME 4 -->
  <rect x="202" y="22" width="4" height="4" fill="#e74c3c"/>
  <rect x="222" y="38" width="4" height="4" fill="#f4d03f"/>
  <rect x="240" y="20" width="4" height="4" fill="#27ae60"/>
  <rect x="208" y="52" width="4" height="4" fill="#3498db"/>
  <rect x="234" y="56" width="4" height="4" fill="#9b59b6"/>
  <rect x="214" y="10" width="3" height="3" fill="#f39c12"/>
  <rect x="248" y="44" width="3" height="3" fill="#e74c3c"/>
  <rect x="196" y="35" width="3" height="3" fill="#27ae60"/>

  <!-- FRAME 5 -->
  <rect x="266" y="26" width="4" height="4" fill="#e74c3c"/>
  <rect x="286" y="42" width="4" height="4" fill="#f4d03f"/>
  <rect x="304" y="24" width="4" height="4" fill="#27ae60"/>
  <rect x="272" y="54" width="4" height="4" fill="#3498db"/>
  <rect x="298" y="58" width="4" height="4" fill="#9b59b6"/>
  <rect x="280" y="12" width="3" height="3" fill="#f39c12"/>
  <rect x="310" y="46" width="3" height="3" fill="#e74c3c"/>

  <!-- FRAME 6 -->
  <rect x="330" y="30" width="4" height="4" fill="#e74c3c"/>
  <rect x="350" y="46" width="4" height="4" fill="#f4d03f"/>
  <rect x="368" y="28" width="4" height="4" fill="#27ae60"/>
  <rect x="336" y="56" width="4" height="4" fill="#3498db"/>
  <rect x="362" y="60" width="4" height="4" fill="#9b59b6"/>
  <rect x="344" y="14" width="3" height="3" fill="#f39c12"/>
  <rect x="376" y="48" width="3" height="3" fill="#e74c3c"/>
  <rect x="324" y="40" width="3" height="3" fill="#27ae60"/>

  <!-- FRAME 7 -->
  <rect x="394" y="34" width="4" height="4" fill="#e74c3c"/>
  <rect x="414" y="50" width="4" height="4" fill="#f4d03f"/>
  <rect x="432" y="32" width="4" height="4" fill="#27ae60"/>
  <rect x="400" y="58" width="4" height="4" fill="#3498db"/>
  <rect x="426" y="60" width="4" height="4" fill="#9b59b6"/>
  <rect x="408" y="16" width="3" height="3" fill="#f39c12"/>
  <rect x="440" y="50" width="3" height="3" fill="#e74c3c"/>

  <!-- FRAME 8 -->
  <rect x="458" y="38" width="4" height="4" fill="#e74c3c"/>
  <rect x="478" y="52" width="4" height="4" fill="#f4d03f"/>
  <rect x="496" y="36" width="4" height="4" fill="#27ae60"/>
  <rect x="464" y="60" width="4" height="4" fill="#3498db"/>
  <rect x="490" y="60" width="4" height="4" fill="#9b59b6"/>
  <rect x="472" y="18" width="3" height="3" fill="#f39c12"/>
  <rect x="504" y="52" width="3" height="3" fill="#e74c3c"/>
  <rect x="452" y="45" width="3" height="3" fill="#27ae60"/>
</svg>
