<svg xmlns="http://www.w3.org/2000/svg" viewBox="0 0 64 64" width="64" height="64">
  <!-- Swamp Region Icon (64x64) - Swamp area map marker -->
  <!-- Color Palette: #1e3d2f, #2d5a3f, #3d7a4f, #6b8e6b, #4a7a8c -->

  <!-- Background circle -->
  <rect x="8" y="4" width="48" height="8" fill="#1e3d2f"/>
  <rect x="4" y="8" width="56" height="48" fill="#1e3d2f"/>
  <rect x="8" y="52" width="48" height="8" fill="#1e3d2f"/>

  <!-- Inner area (murky) -->
  <rect x="12" y="8" width="40" height="4" fill="#2d5a3f"/>
  <rect x="8" y="12" width="48" height="40" fill="#2d5a3f"/>
  <rect x="12" y="52" width="40" height="4" fill="#2d5a3f"/>

  <!-- Murky water -->
  <rect x="12" y="36" width="40" height="12" fill="#4a7a8c" opacity="0.7"/>
  <rect x="16" y="40" width="32" height="6" fill="#3d5c6b"/>

  <!-- Dead tree 1 -->
  <rect x="18" y="16" width="4" height="24" fill="#5d4e37"/>
  <rect x="14" y="18" width="4" height="2" fill="#5d4e37"/>
  <rect x="22" y="20" width="4" height="2" fill="#5d4e37"/>
  <rect x="16" y="24" width="2" height="6" fill="#5d4e37"/>

  <!-- Dead tree 2 -->
  <rect x="42" y="20" width="3" height="20" fill="#5d4e37"/>
  <rect x="40" y="22" width="3" height="2" fill="#5d4e37"/>
  <rect x="45" y="26" width="3" height="2" fill="#5d4e37"/>

  <!-- Lily pads -->
  <rect x="24" y="38" width="6" height="4" fill="#3d7a4f"/>
  <rect x="36" y="40" width="5" height="3" fill="#3d7a4f"/>
  <rect x="28" y="44" width="4" height="3" fill="#6b8e6b"/>

  <!-- Fog/mist -->
  <rect x="10" y="28" width="20" height="4" fill="#6b8e6b" opacity="0.4"/>
  <rect x="34" y="32" width="18" height="3" fill="#6b8e6b" opacity="0.4"/>

  <!-- Mushrooms -->
  <rect x="30" y="30" width="4" height="4" fill="#8b4513"/>
  <rect x="29" y="28" width="6" height="3" fill="#cd853f"/>
</svg>
