<svg xmlns="http://www.w3.org/2000/svg" viewBox="0 0 64 64" width="64" height="64">
  <!-- Forest Region Icon (64x64) - Forest area map marker -->
  <!-- Color Palette: #27ae60, #2ecc71, #1e8449, #145a32, #8b4513 -->

  <!-- Background circle -->
  <rect x="8" y="4" width="48" height="8" fill="#27ae60"/>
  <rect x="4" y="8" width="56" height="48" fill="#27ae60"/>
  <rect x="8" y="52" width="48" height="8" fill="#27ae60"/>

  <!-- Inner lighter area -->
  <rect x="12" y="8" width="40" height="4" fill="#2ecc71"/>
  <rect x="8" y="12" width="48" height="40" fill="#2ecc71"/>
  <rect x="12" y="52" width="40" height="4" fill="#2ecc71"/>

  <!-- Trees -->
  <!-- Tree 1 (left) -->
  <rect x="14" y="28" width="12" height="8" fill="#1e8449"/>
  <rect x="16" y="22" width="8" height="14" fill="#27ae60"/>
  <rect x="18" y="16" width="4" height="20" fill="#2ecc71"/>
  <rect x="18" y="36" width="4" height="10" fill="#8b4513"/>

  <!-- Tree 2 (center, larger) -->
  <rect x="26" y="24" width="16" height="10" fill="#1e8449"/>
  <rect x="28" y="18" width="12" height="16" fill="#27ae60"/>
  <rect x="30" y="12" width="8" height="22" fill="#2ecc71"/>
  <rect x="32" y="8" width="4" height="26" fill="#58d68d"/>
  <rect x="32" y="34" width="4" height="14" fill="#8b4513"/>

  <!-- Tree 3 (right) -->
  <rect x="42" y="30" width="10" height="6" fill="#1e8449"/>
  <rect x="44" y="24" width="6" height="12" fill="#27ae60"/>
  <rect x="45" y="20" width="4" height="16" fill="#2ecc71"/>
  <rect x="46" y="36" width="2" height="8" fill="#8b4513"/>

  <!-- Ground -->
  <rect x="8" y="44" width="48" height="8" fill="#145a32"/>
  <rect x="12" y="46" width="40" height="4" fill="#1e8449"/>
</svg>
