<svg xmlns="http://www.w3.org/2000/svg" viewBox="0 0 16 20" width="16" height="20">
  <!-- Cabinet (16x20) - Storage furniture -->
  <!-- Color Palette: #8b7355, #5d4e37, #3d3426, #f4d03f -->

  <!-- Frame -->
  <rect x="0" y="0" width="16" height="20" fill="#5d4e37"/>
  <rect x="1" y="1" width="14" height="18" fill="#8b7355"/>

  <!-- Top section (doors) -->
  <rect x="2" y="2" width="5" height="8" fill="#5d4e37"/>
  <rect x="3" y="3" width="3" height="6" fill="#8b7355"/>
  <rect x="9" y="2" width="5" height="8" fill="#5d4e37"/>
  <rect x="10" y="3" width="3" height="6" fill="#8b7355"/>

  <!-- Door handles -->
  <rect x="5" y="5" width="1" height="2" fill="#f4d03f"/>
  <rect x="10" y="5" width="1" height="2" fill="#f4d03f"/>

  <!-- Divider -->
  <rect x="1" y="10" width="14" height="2" fill="#3d3426"/>

  <!-- Bottom section (drawers) -->
  <rect x="2" y="12" width="12" height="3" fill="#5d4e37"/>
  <rect x="3" y="13" width="10" height="1" fill="#8b7355"/>
  <rect x="7" y="13" width="2" height="1" fill="#f4d03f"/>

  <rect x="2" y="15" width="12" height="3" fill="#5d4e37"/>
  <rect x="3" y="16" width="10" height="1" fill="#8b7355"/>
  <rect x="7" y="16" width="2" height="1" fill="#f4d03f"/>

  <!-- Feet -->
  <rect x="1" y="18" width="3" height="2" fill="#3d3426"/>
  <rect x="12" y="18" width="3" height="2" fill="#3d3426"/>
</svg>
