<svg xmlns="http://www.w3.org/2000/svg" viewBox="0 0 22 16" width="22" height="16">
  <!-- Desk (22x16) - Writing furniture -->
  <!-- Color Palette: #8b7355, #5d4e37, #3d3426, #f4d03f -->

  <!-- Desktop -->
  <rect x="0" y="0" width="22" height="3" fill="#5d4e37"/>
  <rect x="1" y="1" width="20" height="1" fill="#8b7355"/>

  <!-- Left drawer cabinet -->
  <rect x="1" y="3" width="6" height="10" fill="#5d4e37"/>
  <rect x="2" y="4" width="4" height="3" fill="#8b7355"/>
  <rect x="3" y="5" width="2" height="1" fill="#f4d03f"/>
  <rect x="2" y="8" width="4" height="3" fill="#8b7355"/>
  <rect x="3" y="9" width="2" height="1" fill="#f4d03f"/>

  <!-- Knee space -->
  <rect x="7" y="3" width="8" height="10" fill="#3d3426"/>

  <!-- Right drawer cabinet -->
  <rect x="15" y="3" width="6" height="10" fill="#5d4e37"/>
  <rect x="16" y="4" width="4" height="3" fill="#8b7355"/>
  <rect x="17" y="5" width="2" height="1" fill="#f4d03f"/>
  <rect x="16" y="8" width="4" height="3" fill="#8b7355"/>
  <rect x="17" y="9" width="2" height="1" fill="#f4d03f"/>

  <!-- Base trim -->
  <rect x="0" y="13" width="22" height="3" fill="#3d3426"/>
  <rect x="1" y="13" width="20" height="1" fill="#5d4e37"/>
</svg>
