<svg xmlns="http://www.w3.org/2000/svg" viewBox="0 0 320 80" width="320" height="80">
  <!-- Clouds Layer (320x80) - Parallax cloud layer -->
  <!-- Color Palette: #fdfefe, #ecf0f1, #bdc3c7 -->

  <!-- Cloud 1 -->
  <rect x="10" y="20" width="60" height="30" fill="#fdfefe"/>
  <rect x="20" y="15" width="40" height="10" fill="#ecf0f1"/>
  <rect x="5" y="25" width="10" height="20" fill="#ecf0f1"/>
  <rect x="65" y="25" width="10" height="20" fill="#ecf0f1"/>
  <rect x="25" y="45" width="30" height="10" fill="#bdc3c7"/>

  <!-- Cloud 2 -->
  <rect x="100" y="30" width="80" height="35" fill="#fdfefe"/>
  <rect x="115" y="22" width="50" height="12" fill="#ecf0f1"/>
  <rect x="130" y="15" width="20" height="10" fill="#fdfefe"/>
  <rect x="95" y="40" width="10" height="15" fill="#ecf0f1"/>
  <rect x="175" y="40" width="10" height="15" fill="#ecf0f1"/>
  <rect x="120" y="58" width="40" height="8" fill="#bdc3c7"/>

  <!-- Cloud 3 -->
  <rect x="210" y="25" width="70" height="32" fill="#fdfefe"/>
  <rect x="225" y="18" width="40" height="10" fill="#ecf0f1"/>
  <rect x="205" y="35" width="10" height="15" fill="#ecf0f1"/>
  <rect x="275" y="35" width="10" height="15" fill="#ecf0f1"/>
  <rect x="230" y="52" width="30" height="8" fill="#bdc3c7"/>

  <!-- Small clouds -->
  <rect x="300" y="40" width="20" height="15" fill="#fdfefe" opacity="0.8"/>
  <rect x="0" y="50" width="15" height="12" fill="#fdfefe" opacity="0.7"/>
  <rect x="85" y="55" width="12" height="10" fill="#ecf0f1" opacity="0.6"/>
  <rect x="195" y="50" width="15" height="12" fill="#ecf0f1" opacity="0.6"/>
</svg>
