<svg xmlns="http://www.w3.org/2000/svg" viewBox="0 0 24 24" width="24" height="24">
  <!-- Princess Portrait (24x24) - Royal NPC -->
  <!-- Color Palette: #f4d03f, #9b59b6, #e91e8c, #f5e6d3, #2c3e50 -->

  <!-- Background -->
  <rect x="0" y="0" width="24" height="24" fill="#2c3e50"/>

  <!-- Tiara -->
  <rect x="7" y="3" width="10" height="2" fill="#f4d03f"/>
  <rect x="8" y="2" width="8" height="2" fill="#e67e22"/>
  <rect x="9" y="1" width="2" height="2" fill="#f4d03f"/>
  <rect x="13" y="1" width="2" height="2" fill="#f4d03f"/>
  <rect x="11" y="0" width="2" height="2" fill="#f4d03f"/>

  <!-- Tiara gems -->
  <rect x="9" y="2" width="1" height="1" fill="#e91e8c"/>
  <rect x="11" y="1" width="1" height="1" fill="#9b59b6"/>
  <rect x="14" y="2" width="1" height="1" fill="#3498db"/>

  <!-- Hair -->
  <rect x="5" y="4" width="14" height="6" fill="#f4d03f"/>
  <rect x="4" y="6" width="3" height="12" fill="#e67e22"/>
  <rect x="17" y="6" width="3" height="12" fill="#e67e22"/>
  <rect x="5" y="8" width="2" height="8" fill="#f4d03f"/>
  <rect x="17" y="8" width="2" height="8" fill="#f4d03f"/>

  <!-- Face -->
  <rect x="7" y="6" width="10" height="10" fill="#f5e6d3"/>
  <rect x="8" y="7" width="8" height="8" fill="#ffe4e1"/>

  <!-- Eyes -->
  <rect x="9" y="9" width="2" height="2" fill="#2c3e50"/>
  <rect x="13" y="9" width="2" height="2" fill="#2c3e50"/>
  <rect x="9" y="9" width="1" height="1" fill="#3498db"/>
  <rect x="13" y="9" width="1" height="1" fill="#3498db"/>

  <!-- Eyelashes -->
  <rect x="9" y="8" width="2" height="1" fill="#1a252f"/>
  <rect x="13" y="8" width="2" height="1" fill="#1a252f"/>

  <!-- Nose -->
  <rect x="11" y="11" width="2" height="1" fill="#f5d5cf"/>

  <!-- Smile -->
  <rect x="10" y="13" width="4" height="1" fill="#e91e8c"/>

  <!-- Dress -->
  <rect x="5" y="16" width="14" height="8" fill="#9b59b6"/>
  <rect x="6" y="17" width="12" height="6" fill="#8e44ad"/>

  <!-- Necklace -->
  <rect x="9" y="16" width="6" height="2" fill="#f4d03f"/>
  <rect x="11" y="17" width="2" height="2" fill="#e91e8c"/>
</svg>
