<svg xmlns="http://www.w3.org/2000/svg" viewBox="0 0 64 64" width="64" height="64">
  <!-- Elder Lyra Portrait (64x64) - Iteration 4: Complete refinement -->

  <!-- === OUTER FRAME === -->
  <rect x="0" y="0" width="64" height="64" fill="#1a1a2e"/>
  <rect x="1" y="1" width="62" height="62" fill="#9a7b0a"/>
  <rect x="2" y="2" width="60" height="60" fill="#d4ac0d"/>
  <rect x="3" y="3" width="58" height="58" fill="#f4d03f"/>
  <rect x="2" y="2" width="60" height="1" fill="#f4d03f"/>
  <rect x="2" y="2" width="1" height="60" fill="#f4d03f"/>
  <rect x="3" y="61" width="60" height="1" fill="#9a7b0a"/>
  <rect x="61" y="3" width="1" height="58" fill="#9a7b0a"/>

  <!-- Corner ornaments -->
  <rect x="1" y="1" width="5" height="5" fill="#f4d03f"/>
  <rect x="2" y="2" width="3" height="3" fill="#d4ac0d"/>
  <rect x="2" y="2" width="2" height="2" fill="#8e44ad"/>
  <rect x="2" y="2" width="1" height="1" fill="#c9a0dc"/>
  <rect x="58" y="1" width="5" height="5" fill="#f4d03f"/>
  <rect x="59" y="2" width="3" height="3" fill="#d4ac0d"/>
  <rect x="60" y="2" width="2" height="2" fill="#8e44ad"/>
  <rect x="61" y="2" width="1" height="1" fill="#c9a0dc"/>
  <rect x="1" y="58" width="5" height="5" fill="#f4d03f"/>
  <rect x="2" y="59" width="3" height="3" fill="#d4ac0d"/>
  <rect x="2" y="60" width="2" height="2" fill="#8e44ad"/>
  <rect x="2" y="61" width="1" height="1" fill="#c9a0dc"/>
  <rect x="58" y="58" width="5" height="5" fill="#f4d03f"/>
  <rect x="59" y="59" width="3" height="3" fill="#d4ac0d"/>
  <rect x="60" y="60" width="2" height="2" fill="#8e44ad"/>
  <rect x="61" y="61" width="1" height="1" fill="#c9a0dc"/>

  <!-- Inner border -->
  <rect x="4" y="4" width="56" height="56" fill="#2c1810"/>

  <!-- === BACKGROUND === -->
  <rect x="5" y="5" width="54" height="54" fill="#1a0a2e"/>
  <rect x="5" y="5" width="54" height="30" fill="#201535"/>
  <rect x="5" y="5" width="54" height="20" fill="#281a42"/>
  <rect x="5" y="5" width="54" height="10" fill="#352350"/>

  <!-- Halo glow -->
  <rect x="18" y="8" width="28" height="18" fill="#352350"/>
  <rect x="20" y="10" width="24" height="14" fill="#402a5a"/>
  <rect x="23" y="12" width="18" height="10" fill="#4a3570"/>
  <rect x="27" y="14" width="10" height="6" fill="#5a4580"/>

  <!-- === HAIR - Curly silver, past shoulders === -->
  <!-- Left hair mass - base -->
  <rect x="10" y="12" width="10" height="38" fill="#6a7585"/>
  <rect x="11" y="13" width="8" height="36" fill="#7a8595"/>
  <rect x="12" y="14" width="6" height="34" fill="#8a95a5"/>

  <!-- Left curls - wave pattern -->
  <rect x="8" y="16" width="3" height="5" fill="#7a8595"/>
  <rect x="9" y="17" width="2" height="3" fill="#8a95a5"/>
  <rect x="8" y="24" width="3" height="5" fill="#7a8595"/>
  <rect x="9" y="25" width="2" height="3" fill="#8a95a5"/>
  <rect x="8" y="32" width="3" height="5" fill="#7a8595"/>
  <rect x="9" y="33" width="2" height="3" fill="#8a95a5"/>
  <rect x="8" y="40" width="3" height="6" fill="#7a8595"/>
  <rect x="9" y="41" width="2" height="4" fill="#8a95a5"/>

  <!-- Left inner curl highlights -->
  <rect x="13" y="18" width="3" height="4" fill="#9aa5b5"/>
  <rect x="14" y="19" width="2" height="2" fill="#aab5c5"/>
  <rect x="13" y="26" width="3" height="4" fill="#9aa5b5"/>
  <rect x="14" y="27" width="2" height="2" fill="#aab5c5"/>
  <rect x="13" y="34" width="3" height="4" fill="#9aa5b5"/>
  <rect x="14" y="35" width="2" height="2" fill="#aab5c5"/>

  <!-- Left shimmer highlights -->
  <rect x="10" y="17" width="2" height="1" fill="#e8f0f8"/>
  <rect x="12" y="25" width="2" height="1" fill="#e8f0f8"/>
  <rect x="10" y="33" width="2" height="1" fill="#e8f0f8"/>
  <rect x="12" y="41" width="2" height="1" fill="#e8f0f8"/>

  <!-- Left tips - curly ends past shoulders -->
  <rect x="9" y="46" width="8" height="4" fill="#7a8595"/>
  <rect x="10" y="47" width="6" height="3" fill="#8a95a5"/>
  <rect x="11" y="48" width="4" height="2" fill="#9aa5b5"/>
  <rect x="8" y="48" width="2" height="4" fill="#7a8595"/>
  <rect x="9" y="49" width="2" height="3" fill="#8a95a5"/>
  <rect x="12" y="50" width="3" height="2" fill="#8a95a5"/>
  <rect x="13" y="51" width="2" height="1" fill="#9aa5b5"/>

  <!-- Right hair mass - base -->
  <rect x="44" y="12" width="10" height="38" fill="#6a7585"/>
  <rect x="45" y="13" width="8" height="36" fill="#7a8595"/>
  <rect x="46" y="14" width="6" height="34" fill="#8a95a5"/>

  <!-- Right curls - wave pattern -->
  <rect x="53" y="16" width="3" height="5" fill="#7a8595"/>
  <rect x="53" y="17" width="2" height="3" fill="#8a95a5"/>
  <rect x="53" y="24" width="3" height="5" fill="#7a8595"/>
  <rect x="53" y="25" width="2" height="3" fill="#8a95a5"/>
  <rect x="53" y="32" width="3" height="5" fill="#7a8595"/>
  <rect x="53" y="33" width="2" height="3" fill="#8a95a5"/>
  <rect x="53" y="40" width="3" height="6" fill="#7a8595"/>
  <rect x="53" y="41" width="2" height="4" fill="#8a95a5"/>

  <!-- Right inner curl highlights -->
  <rect x="48" y="18" width="3" height="4" fill="#9aa5b5"/>
  <rect x="48" y="19" width="2" height="2" fill="#aab5c5"/>
  <rect x="48" y="26" width="3" height="4" fill="#9aa5b5"/>
  <rect x="48" y="27" width="2" height="2" fill="#aab5c5"/>
  <rect x="48" y="34" width="3" height="4" fill="#9aa5b5"/>
  <rect x="48" y="35" width="2" height="2" fill="#aab5c5"/>

  <!-- Right shimmer highlights -->
  <rect x="52" y="17" width="2" height="1" fill="#e8f0f8"/>
  <rect x="50" y="25" width="2" height="1" fill="#e8f0f8"/>
  <rect x="52" y="33" width="2" height="1" fill="#e8f0f8"/>
  <rect x="50" y="41" width="2" height="1" fill="#e8f0f8"/>

  <!-- Right tips - curly ends past shoulders -->
  <rect x="47" y="46" width="8" height="4" fill="#7a8595"/>
  <rect x="48" y="47" width="6" height="3" fill="#8a95a5"/>
  <rect x="49" y="48" width="4" height="2" fill="#9aa5b5"/>
  <rect x="54" y="48" width="2" height="4" fill="#7a8595"/>
  <rect x="53" y="49" width="2" height="3" fill="#8a95a5"/>
  <rect x="49" y="50" width="3" height="2" fill="#8a95a5"/>
  <rect x="49" y="51" width="2" height="1" fill="#9aa5b5"/>

  <!-- Top hair - with subtle wave -->
  <rect x="18" y="7" width="28" height="10" fill="#6a7585"/>
  <rect x="20" y="8" width="24" height="8" fill="#7a8595"/>
  <rect x="22" y="9" width="20" height="6" fill="#8a95a5"/>
  <rect x="25" y="10" width="14" height="4" fill="#9aa5b5"/>
  <rect x="28" y="11" width="8" height="2" fill="#aab5c5"/>

  <!-- Top highlights -->
  <rect x="25" y="9" width="4" height="1" fill="#e8f0f8"/>
  <rect x="35" y="10" width="3" height="1" fill="#e8f0f8"/>

  <!-- Hair part -->
  <rect x="31" y="8" width="2" height="4" fill="#5a6575"/>
  <rect x="31" y="12" width="2" height="1" fill="#8a95a5"/>

  <!-- Face-framing curls -->
  <rect x="19" y="14" width="2" height="7" fill="#9aa5b5"/>
  <rect x="20" y="15" width="1" height="5" fill="#aab5c5"/>
  <rect x="18" y="18" width="2" height="3" fill="#8a95a5"/>
  <rect x="43" y="14" width="2" height="7" fill="#9aa5b5"/>
  <rect x="43" y="15" width="1" height="5" fill="#aab5c5"/>
  <rect x="44" y="18" width="2" height="3" fill="#8a95a5"/>
  <!-- Fill gaps between curls and face (above and below ears) -->
  <rect x="20" y="21" width="1" height="3" fill="#8a95a5"/><!-- Left, above ear -->
  <rect x="20" y="28" width="1" height="16" fill="#8a95a5"/><!-- Left, below ear to robe -->
  <rect x="43" y="21" width="1" height="3" fill="#8a95a5"/><!-- Right, above ear -->
  <rect x="43" y="28" width="1" height="16" fill="#8a95a5"/><!-- Right, below ear to robe -->

  <!-- === FACE === -->
  <!-- Base face shape -->
  <rect x="21" y="13" width="22" height="24" fill="#e5d5c5"/>

  <!-- Forehead corners (hair overlap) -->
  <rect x="21" y="13" width="3" height="3" fill="#8a95a5"/>
  <rect x="40" y="13" width="3" height="3" fill="#8a95a5"/>
  <rect x="22" y="14" width="2" height="2" fill="#9aa5b5"/>
  <rect x="40" y="14" width="2" height="2" fill="#9aa5b5"/>
  <rect x="23" y="15" width="1" height="1" fill="#aab5c5"/>
  <rect x="40" y="15" width="1" height="1" fill="#aab5c5"/>

  <!-- Jaw taper - extends down to meet collar -->
  <rect x="21" y="33" width="4" height="5" fill="#8a95a5"/>
  <rect x="39" y="33" width="4" height="5" fill="#8a95a5"/>
  <rect x="22" y="33" width="3" height="4" fill="#9aa5b5"/>
  <rect x="39" y="33" width="3" height="4" fill="#9aa5b5"/>
  <rect x="23" y="34" width="2" height="2" fill="#aab5c5"/>
  <rect x="39" y="34" width="2" height="2" fill="#aab5c5"/>
  <rect x="21" y="37" width="5" height="7" fill="#8a95a5"/>
  <rect x="38" y="37" width="5" height="7" fill="#8a95a5"/>
  <rect x="22" y="38" width="4" height="6" fill="#9aa5b5"/>
  <rect x="38" y="38" width="4" height="6" fill="#9aa5b5"/>

  <!-- Main skin -->
  <rect x="23" y="15" width="18" height="22" fill="#f5e8db"/>
  <rect x="22" y="17" width="1" height="16" fill="#f0e3d5"/>
  <rect x="41" y="17" width="1" height="16" fill="#f0e3d5"/>

  <!-- Face highlight -->
  <rect x="26" y="17" width="12" height="12" fill="#faf3eb"/>
  <rect x="28" y="16" width="8" height="2" fill="#faf3eb"/>

  <!-- Temple shadows -->
  <rect x="23" y="17" width="2" height="5" fill="#e8dcd0"/>
  <rect x="39" y="17" width="2" height="5" fill="#e8dcd0"/>

  <!-- Cheek contour -->
  <rect x="23" y="24" width="2" height="6" fill="#e8dcd0"/>
  <rect x="39" y="24" width="2" height="6" fill="#e8dcd0"/>

  <!-- Cheekbone highlights -->
  <rect x="25" y="25" width="2" height="2" fill="#faf3eb"/>
  <rect x="37" y="25" width="2" height="2" fill="#faf3eb"/>

  <!-- Blush -->
  <rect x="24" y="27" width="4" height="3" fill="#f5dcd5"/>
  <rect x="36" y="27" width="4" height="3" fill="#f5dcd5"/>
  <rect x="25" y="28" width="2" height="1" fill="#f0d0c8"/>
  <rect x="37" y="28" width="2" height="1" fill="#f0d0c8"/>

  <!-- Chin - wider, more natural taper -->
  <rect x="24" y="35" width="16" height="2" fill="#f0e3d5"/>
  <rect x="25" y="37" width="14" height="2" fill="#f0e3d5"/>
  <rect x="26" y="39" width="12" height="2" fill="#f0e3d5"/>
  <rect x="27" y="39" width="10" height="2" fill="#f5e8db"/>
  <rect x="28" y="40" width="8" height="1" fill="#f5e8db"/>
  <rect x="30" y="40" width="4" height="1" fill="#faf3eb"/>

  <!-- Jaw shadow - subtle -->
  <rect x="25" y="34" width="2" height="2" fill="#ddd0c5"/>
  <rect x="37" y="34" width="2" height="2" fill="#ddd0c5"/>

  <!-- === NECK === -->
  <!-- Tapered neck - narrower at bottom -->
  <rect x="26" y="41" width="12" height="2" fill="#f0e3d5"/><!-- Widened to cover dark edges -->
  <rect x="27" y="41" width="10" height="2" fill="#f5e8db"/>
  <rect x="28" y="41" width="8" height="1" fill="#f5e8db"/>
  <rect x="29" y="41" width="6" height="1" fill="#faf3eb"/>

  <!-- === EARS === -->
  <!-- Left ear - small, partially hidden by hair -->
  <rect x="20" y="24" width="2" height="4" fill="#f0e3d5"/>
  <rect x="20" y="25" width="1" height="2" fill="#e8dcd0"/>
  <!-- Right ear -->
  <rect x="42" y="24" width="2" height="4" fill="#f0e3d5"/>
  <rect x="43" y="25" width="1" height="2" fill="#e8dcd0"/>

  <!-- Earrings - simple elegant drops -->
  <rect x="20" y="28" width="1" height="1" fill="#d4ac0d"/>
  <rect x="20" y="29" width="1" height="1" fill="#5dade2"/>
  <rect x="43" y="28" width="1" height="1" fill="#d4ac0d"/>
  <rect x="43" y="29" width="1" height="1" fill="#5dade2"/>

  <!-- === EYES === -->
  <!-- Subtle eye shadow (purple tint for magical look) -->
  <rect x="24" y="20" width="7" height="2" fill="#a098b0"/>
  <rect x="33" y="20" width="7" height="2" fill="#a098b0"/>

  <!-- Left eye white - slightly larger -->
  <rect x="24" y="22" width="7" height="5" fill="#fafafa"/>
  <!-- Left eye corners - softer blend -->
  <rect x="24" y="22" width="1" height="1" fill="#f0e3d5"/>
  <rect x="30" y="22" width="1" height="1" fill="#f0e3d5"/>
  <rect x="24" y="26" width="1" height="1" fill="#f0e3d5"/>
  <rect x="30" y="26" width="1" height="1" fill="#f0e3d5"/>
  <rect x="24" y="23" width="1" height="1" fill="#f5dcd5"/>
  <rect x="24" y="24" width="1" height="1" fill="#f5dcd5"/>
  <rect x="24" y="25" width="1" height="1" fill="#f5dcd5"/>
  <!-- Left iris - larger with more depth -->
  <rect x="25" y="22" width="5" height="5" fill="#5b2878"/>
  <rect x="25" y="22" width="4" height="4" fill="#7b3898"/>
  <rect x="26" y="23" width="3" height="3" fill="#9548b8"/>
  <rect x="26" y="23" width="2" height="2" fill="#7b3898"/>
  <!-- Left pupil - with depth -->
  <rect x="27" y="24" width="2" height="2" fill="#1a1525"/>
  <rect x="27" y="24" width="1" height="1" fill="#0d0a12"/>
  <!-- Left iris ring highlight -->
  <rect x="25" y="23" width="1" height="2" fill="#c8a0d8"/>
  <rect x="29" y="24" width="1" height="2" fill="#9548b8"/>
  <!-- Left eye sparkles - multiple catchlights -->
  <rect x="25" y="22" width="2" height="1" fill="#fafafa"/>
  <rect x="26" y="23" width="1" height="1" fill="#fafafa"/>
  <rect x="28" y="25" width="1" height="1" fill="#c8a0d8"/>
  <rect x="29" y="23" width="1" height="1" fill="#c8a0d8"/>
  <!-- Left eyelid - more depth -->
  <rect x="24" y="21" width="7" height="1" fill="#8878a0"/>
  <rect x="25" y="21" width="5" height="1" fill="#706088"/>
  <rect x="26" y="22" width="3" height="1" fill="#8878a0"/>
  <!-- Left lower lid - subtle -->
  <rect x="25" y="27" width="5" height="1" fill="#a098b0"/>
  <rect x="26" y="27" width="3" height="1" fill="#e8dcd0"/>
  <!-- Left lashes - fuller, varied -->
  <rect x="24" y="20" width="1" height="1" fill="#504860"/>
  <rect x="25" y="20" width="1" height="1" fill="#504860"/>
  <rect x="26" y="21" width="1" height="1" fill="#504860"/>
  <rect x="27" y="20" width="1" height="1" fill="#504860"/>
  <rect x="28" y="21" width="1" height="1" fill="#504860"/>
  <rect x="29" y="20" width="1" height="1" fill="#504860"/>
  <rect x="30" y="20" width="1" height="1" fill="#504860"/>

  <!-- Right eye white - slightly larger -->
  <rect x="33" y="22" width="7" height="5" fill="#fafafa"/>
  <!-- Right eye corners - softer blend -->
  <rect x="33" y="22" width="1" height="1" fill="#f0e3d5"/>
  <rect x="39" y="22" width="1" height="1" fill="#f0e3d5"/>
  <rect x="33" y="26" width="1" height="1" fill="#f0e3d5"/>
  <rect x="39" y="26" width="1" height="1" fill="#f0e3d5"/>
  <rect x="39" y="23" width="1" height="1" fill="#f5dcd5"/>
  <rect x="39" y="24" width="1" height="1" fill="#f5dcd5"/>
  <rect x="39" y="25" width="1" height="1" fill="#f5dcd5"/>
  <!-- Right iris - larger with more depth -->
  <rect x="34" y="22" width="5" height="5" fill="#5b2878"/>
  <rect x="35" y="22" width="4" height="4" fill="#7b3898"/>
  <rect x="35" y="23" width="3" height="3" fill="#9548b8"/>
  <rect x="36" y="23" width="2" height="2" fill="#7b3898"/>
  <!-- Right pupil - with depth -->
  <rect x="36" y="24" width="2" height="2" fill="#1a1525"/>
  <rect x="37" y="24" width="1" height="1" fill="#0d0a12"/>
  <!-- Right iris ring highlight -->
  <rect x="38" y="23" width="1" height="2" fill="#c8a0d8"/>
  <rect x="34" y="24" width="1" height="2" fill="#9548b8"/>
  <!-- Right eye sparkles - multiple catchlights -->
  <rect x="37" y="22" width="2" height="1" fill="#fafafa"/>
  <rect x="37" y="23" width="1" height="1" fill="#fafafa"/>
  <rect x="35" y="25" width="1" height="1" fill="#c8a0d8"/>
  <rect x="34" y="23" width="1" height="1" fill="#c8a0d8"/>
  <!-- Right eyelid - more depth -->
  <rect x="33" y="21" width="7" height="1" fill="#8878a0"/>
  <rect x="34" y="21" width="5" height="1" fill="#706088"/>
  <rect x="35" y="22" width="3" height="1" fill="#8878a0"/>
  <!-- Right lower lid - subtle -->
  <rect x="34" y="27" width="5" height="1" fill="#a098b0"/>
  <rect x="35" y="27" width="3" height="1" fill="#e8dcd0"/>
  <!-- Right lashes - fuller, varied -->
  <rect x="33" y="20" width="1" height="1" fill="#504860"/>
  <rect x="34" y="20" width="1" height="1" fill="#504860"/>
  <rect x="35" y="21" width="1" height="1" fill="#504860"/>
  <rect x="36" y="20" width="1" height="1" fill="#504860"/>
  <rect x="37" y="21" width="1" height="1" fill="#504860"/>
  <rect x="38" y="20" width="1" height="1" fill="#504860"/>
  <rect x="39" y="20" width="1" height="1" fill="#504860"/>

  <!-- === EYEBROWS === -->
  <!-- Very thin, delicate silver brows -->
  <rect x="25" y="19" width="4" height="1" fill="#8a95a5"/>
  <rect x="35" y="19" width="4" height="1" fill="#8a95a5"/>

  <!-- === WISDOM LINES === -->
  <!-- Crow's feet - gentle, wise -->
  <rect x="22" y="23" width="1" height="1" fill="#e0d5c8"/>
  <rect x="22" y="25" width="1" height="1" fill="#e0d5c8"/>
  <rect x="21" y="24" width="1" height="1" fill="#e0d5c8"/>
  <rect x="41" y="23" width="1" height="1" fill="#e0d5c8"/>
  <rect x="41" y="25" width="1" height="1" fill="#e0d5c8"/>
  <rect x="42" y="24" width="1" height="1" fill="#e0d5c8"/>
  <rect x="22" y="26" width="1" height="1" fill="#e0d5c8"/>
  <rect x="41" y="24" width="1" height="1" fill="#e0d5c8"/>
  <rect x="41" y="26" width="1" height="1" fill="#e0d5c8"/>

  <!-- === NOSE === -->
  <!-- Bridge - elegant and refined -->
  <rect x="31" y="27" width="2" height="2" fill="#f0e3d5"/>
  <rect x="31" y="27" width="1" height="2" fill="#faf3eb"/>
  <rect x="32" y="27" width="1" height="2" fill="#ead8cc"/>

  <!-- Mid nose -->
  <rect x="30" y="29" width="4" height="2" fill="#f0e3d5"/>
  <rect x="31" y="29" width="2" height="2" fill="#f5e8db"/>
  <rect x="31" y="29" width="1" height="2" fill="#faf3eb"/>
  <rect x="33" y="29" width="1" height="2" fill="#ead8cc"/>

  <!-- Nose tip - rounded -->
  <rect x="29" y="31" width="6" height="1" fill="#f0e3d5"/>
  <rect x="30" y="31" width="4" height="1" fill="#f5e8db"/>
  <rect x="31" y="31" width="2" height="1" fill="#faf3eb"/>
  <rect x="29" y="31" width="1" height="1" fill="#e8dcd0"/>
  <rect x="34" y="31" width="1" height="1" fill="#e8dcd0"/>

  <!-- Nostrils - subtle -->
  <rect x="29" y="32" width="2" height="1" fill="#ead8cc"/>
  <rect x="33" y="32" width="2" height="1" fill="#ead8cc"/>
  <rect x="30" y="32" width="1" height="1" fill="#d0c5b8"/>
  <rect x="33" y="32" width="1" height="1" fill="#d0c5b8"/>

  <!-- Under nose shadow -->
  <rect x="30" y="32" width="4" height="1" fill="#ddd0c5"/>

  <!-- === LIPS === -->
  <!-- Upper lip - thin, elegant -->
  <rect x="29" y="33" width="6" height="1" fill="#c08888"/>
  <rect x="30" y="33" width="4" height="1" fill="#d09898"/>
  <rect x="31" y="33" width="2" height="1" fill="#d8a0a0"/>

  <!-- Lower lip - thin -->
  <rect x="29" y="34" width="6" height="1" fill="#d09898"/>
  <rect x="30" y="34" width="4" height="1" fill="#e0b0b0"/>
  <rect x="31" y="34" width="2" height="1" fill="#f0d0d0"/>

  <!-- Lip corners -->
  <rect x="28" y="33" width="1" height="1" fill="#ddd0c5"/>
  <rect x="35" y="33" width="1" height="1" fill="#ddd0c5"/>

  <!-- === ROBE === -->
  <!-- Main body with rich fabric layers -->
  <rect x="12" y="44" width="40" height="16" fill="#4a2058"/>
  <rect x="14" y="45" width="36" height="14" fill="#5a2868"/>
  <rect x="16" y="46" width="32" height="12" fill="#6a3078"/>
  <rect x="20" y="48" width="24" height="8" fill="#7a3888"/>

  <!-- Shoulders - natural sloped shape -->
  <!-- Left shoulder - slopes down from neck -->
  <rect x="16" y="44" width="8" height="3" fill="#6a3078"/>
  <rect x="14" y="45" width="4" height="4" fill="#5a2868"/>
  <rect x="12" y="47" width="4" height="5" fill="#4a2058"/>
  <rect x="10" y="49" width="4" height="6" fill="#4a2058"/>
  <rect x="8" y="51" width="4" height="6" fill="#3a1848"/>
  <!-- Left shoulder highlight -->
  <rect x="17" y="44" width="5" height="2" fill="#7a3888"/>
  <rect x="15" y="46" width="3" height="2" fill="#6a3078"/>

  <!-- Right shoulder - slopes down from neck -->
  <rect x="40" y="44" width="8" height="3" fill="#6a3078"/>
  <rect x="46" y="45" width="4" height="4" fill="#5a2868"/>
  <rect x="48" y="47" width="4" height="5" fill="#4a2058"/>
  <rect x="50" y="49" width="4" height="6" fill="#4a2058"/>
  <rect x="52" y="51" width="4" height="6" fill="#3a1848"/>
  <!-- Right shoulder highlight -->
  <rect x="42" y="44" width="5" height="2" fill="#7a3888"/>
  <rect x="46" y="46" width="3" height="2" fill="#6a3078"/>

  <!-- V-neck collar - narrow at y=43 to match neck, wider below -->
  <rect x="24" y="44" width="16" height="5" fill="#7a3888"/>
  <rect x="25" y="44" width="14" height="4" fill="#8a4098"/>
  <rect x="27" y="43" width="10" height="5" fill="#e8dcd0"/>
  <rect x="28" y="43" width="8" height="4" fill="#f0e3d5"/>
  <rect x="29" y="43" width="6" height="2" fill="#f5e8db"/>

  <!-- Collar gold trim - V-shape (starts at y=44, below neck) -->
  <rect x="24" y="44" width="2" height="5" fill="#b8960b"/>
  <rect x="38" y="44" width="2" height="5" fill="#b8960b"/>
  <rect x="25" y="45" width="1" height="4" fill="#d4ac0d"/>
  <rect x="38" y="45" width="1" height="4" fill="#d4ac0d"/>
  <rect x="26" y="46" width="1" height="3" fill="#b8960b"/>
  <rect x="37" y="46" width="1" height="3" fill="#b8960b"/>
  <rect x="25" y="44" width="1" height="1" fill="#f4d03f"/>
  <rect x="38" y="44" width="1" height="1" fill="#f4d03f"/>

  <!-- Center panel with embroidered pattern -->
  <rect x="28" y="49" width="8" height="8" fill="#8a4098"/>
  <rect x="29" y="50" width="6" height="6" fill="#9a48a8"/>
  <rect x="30" y="51" width="4" height="4" fill="#aa58b8"/>
  <!-- Embroidery details -->
  <rect x="31" y="50" width="2" height="1" fill="#d4ac0d"/>
  <rect x="30" y="52" width="1" height="2" fill="#b8960b"/>
  <rect x="33" y="52" width="1" height="2" fill="#b8960b"/>
  <rect x="31" y="54" width="2" height="1" fill="#d4ac0d"/>

  <!-- Side panels - fabric folds -->
  <rect x="17" y="50" width="3" height="6" fill="#3a1848"/>
  <rect x="18" y="51" width="2" height="4" fill="#4a2058"/>
  <rect x="44" y="50" width="3" height="6" fill="#3a1848"/>
  <rect x="44" y="51" width="2" height="4" fill="#4a2058"/>

  <!-- Drape folds - more natural -->
  <rect x="21" y="52" width="2" height="5" fill="#3a1848"/>
  <rect x="22" y="53" width="1" height="3" fill="#4a2058"/>
  <rect x="35" y="53" width="2" height="4" fill="#3a1848"/>
  <rect x="36" y="54" width="1" height="2" fill="#4a2058"/>
  <rect x="41" y="52" width="2" height="5" fill="#3a1848"/>
  <rect x="41" y="53" width="1" height="3" fill="#4a2058"/>

  <!-- Bottom hem - decorative border -->
  <rect x="12" y="58" width="40" height="2" fill="#9a7b0a"/>
  <rect x="14" y="58" width="36" height="1" fill="#b8960b"/>
  <rect x="16" y="58" width="32" height="1" fill="#d4ac0d"/>
  <!-- Hem pattern dots -->
  <rect x="18" y="58" width="1" height="1" fill="#f4d03f"/>
  <rect x="24" y="58" width="1" height="1" fill="#f4d03f"/>
  <rect x="30" y="58" width="1" height="1" fill="#f4d03f"/>
  <rect x="36" y="58" width="1" height="1" fill="#f4d03f"/>
  <rect x="42" y="58" width="1" height="1" fill="#f4d03f"/>

  <!-- === NECKLACE === -->
  <!-- Chain sits on collar, curves down to pendant -->
  <!-- Left chain - on collar -->
  <rect x="26" y="43" width="1" height="1" fill="#b8960b"/><!-- Extend chain to cover dark edge -->
  <rect x="27" y="44" width="1" height="1" fill="#b8960b"/>
  <rect x="28" y="44" width="1" height="1" fill="#d4ac0d"/>
  <rect x="29" y="45" width="1" height="1" fill="#b8960b"/>
  <rect x="30" y="45" width="1" height="1" fill="#d4ac0d"/>
  <rect x="30" y="46" width="1" height="1" fill="#f4d03f"/>
  <rect x="31" y="46" width="1" height="1" fill="#d4ac0d"/>
  <!-- Right chain - on collar -->
  <rect x="37" y="43" width="1" height="1" fill="#b8960b"/><!-- Extend chain to cover dark edge -->
  <rect x="36" y="44" width="1" height="1" fill="#b8960b"/>
  <rect x="35" y="44" width="1" height="1" fill="#d4ac0d"/>
  <rect x="34" y="45" width="1" height="1" fill="#b8960b"/>
  <rect x="33" y="45" width="1" height="1" fill="#d4ac0d"/>
  <rect x="33" y="46" width="1" height="1" fill="#f4d03f"/>
  <rect x="32" y="46" width="1" height="1" fill="#d4ac0d"/>
  <!-- Center chain drop to pendant -->
  <rect x="31" y="47" width="2" height="1" fill="#d4ac0d"/>
  <rect x="31" y="47" width="1" height="1" fill="#f4d03f"/>

  <!-- Pendant frame - ornate gold setting -->
  <rect x="29" y="48" width="6" height="7" fill="#3a1848"/>
  <rect x="29" y="48" width="6" height="6" fill="#9a7b0a"/>
  <rect x="30" y="49" width="4" height="4" fill="#b8960b"/>
  <rect x="30" y="49" width="4" height="1" fill="#d4ac0d"/>
  <rect x="30" y="49" width="1" height="4" fill="#d4ac0d"/>
  <!-- Filigree corners -->
  <rect x="29" y="48" width="1" height="1" fill="#f4d03f"/>
  <rect x="34" y="48" width="1" height="1" fill="#f4d03f"/>
  <rect x="29" y="53" width="1" height="1" fill="#d4ac0d"/>
  <rect x="34" y="53" width="1" height="1" fill="#d4ac0d"/>

  <!-- Gem - larger with depth -->
  <rect x="30" y="50" width="4" height="3" fill="#1a5276"/>
  <rect x="30" y="50" width="3" height="2" fill="#2980b9"/>
  <rect x="31" y="50" width="2" height="2" fill="#5dade2"/>
  <rect x="31" y="50" width="1" height="1" fill="#85c1e9"/>
  <rect x="32" y="51" width="1" height="1" fill="#2980b9"/>

  <!-- Magical glow around pendant -->
  <rect x="28" y="49" width="1" height="4" fill="#9a48a8"/>
  <rect x="35" y="49" width="1" height="4" fill="#9a48a8"/>
  <rect x="29" y="54" width="6" height="1" fill="#9a48a8"/>
  <rect x="31" y="54" width="2" height="1" fill="#d8c0e8"/>

  <!-- === SPARKLES === -->
  <rect x="7" y="8" width="2" height="2" fill="#9a48a8"/>
  <rect x="8" y="9" width="1" height="1" fill="#d8c0e8"/>
  <rect x="55" y="9" width="2" height="2" fill="#9a48a8"/>
  <rect x="56" y="10" width="1" height="1" fill="#d8c0e8"/>
  <rect x="6" y="28" width="1" height="1" fill="#8a4098"/>
  <rect x="57" y="30" width="1" height="1" fill="#8a4098"/>
  <rect x="8" y="42" width="1" height="1" fill="#7a3888"/>
  <rect x="55" y="44" width="1" height="1" fill="#7a3888"/>
  <rect x="17" y="10" width="1" height="1" fill="#aa58b8"/>
  <rect x="46" y="11" width="1" height="1" fill="#aa58b8"/>
</svg>
