<svg xmlns="http://www.w3.org/2000/svg" viewBox="0 0 64 64" width="64" height="64">
  <!-- Princess Portrait (64x64) - Young royal with tiara and flowing golden hair -->

  <!-- === OUTER FRAME === -->
  <rect x="0" y="0" width="64" height="64" fill="#1a1a2e"/>
  <rect x="1" y="1" width="62" height="62" fill="#9a7b0a"/>
  <rect x="2" y="2" width="60" height="60" fill="#d4ac0d"/>
  <rect x="3" y="3" width="58" height="58" fill="#f4d03f"/>
  <rect x="2" y="2" width="60" height="1" fill="#f4d03f"/>
  <rect x="2" y="2" width="1" height="60" fill="#f4d03f"/>
  <rect x="3" y="61" width="60" height="1" fill="#9a7b0a"/>
  <rect x="61" y="3" width="1" height="58" fill="#9a7b0a"/>

  <!-- Corner ornaments - pink gems -->
  <rect x="1" y="1" width="5" height="5" fill="#f4d03f"/>
  <rect x="2" y="2" width="3" height="3" fill="#d4ac0d"/>
  <rect x="2" y="2" width="2" height="2" fill="#e91e8c"/>
  <rect x="2" y="2" width="1" height="1" fill="#f8a5c2"/>
  <rect x="58" y="1" width="5" height="5" fill="#f4d03f"/>
  <rect x="59" y="2" width="3" height="3" fill="#d4ac0d"/>
  <rect x="60" y="2" width="2" height="2" fill="#e91e8c"/>
  <rect x="61" y="2" width="1" height="1" fill="#f8a5c2"/>
  <rect x="1" y="58" width="5" height="5" fill="#f4d03f"/>
  <rect x="2" y="59" width="3" height="3" fill="#d4ac0d"/>
  <rect x="2" y="60" width="2" height="2" fill="#e91e8c"/>
  <rect x="2" y="61" width="1" height="1" fill="#f8a5c2"/>
  <rect x="58" y="58" width="5" height="5" fill="#f4d03f"/>
  <rect x="59" y="59" width="3" height="3" fill="#d4ac0d"/>
  <rect x="60" y="60" width="2" height="2" fill="#e91e8c"/>
  <rect x="61" y="61" width="1" height="1" fill="#f8a5c2"/>

  <!-- Inner border -->
  <rect x="4" y="4" width="56" height="56" fill="#2c1820"/>

  <!-- === BACKGROUND === -->
  <rect x="5" y="5" width="54" height="54" fill="#1a0a1e"/>
  <rect x="5" y="5" width="54" height="30" fill="#251530"/>
  <rect x="5" y="5" width="54" height="20" fill="#301a40"/>
  <rect x="5" y="5" width="54" height="10" fill="#3a2050"/>

  <!-- Magical glow -->
  <rect x="18" y="6" width="28" height="18" fill="#3a2050"/>
  <rect x="20" y="8" width="24" height="14" fill="#452860"/>
  <rect x="23" y="10" width="18" height="10" fill="#503070"/>
  <rect x="27" y="12" width="10" height="6" fill="#5a3880"/>

  <!-- === TIARA === -->
  <!-- Base band -->
  <rect x="20" y="10" width="24" height="3" fill="#b8960b"/>
  <rect x="21" y="10" width="22" height="2" fill="#d4ac0d"/>
  <rect x="22" y="10" width="20" height="1" fill="#f4d03f"/>
  <!-- Center spire -->
  <rect x="30" y="5" width="4" height="5" fill="#b8960b"/>
  <rect x="31" y="5" width="2" height="4" fill="#d4ac0d"/>
  <rect x="31" y="5" width="2" height="2" fill="#f4d03f"/>
  <!-- Side spires -->
  <rect x="25" y="7" width="3" height="3" fill="#b8960b"/>
  <rect x="26" y="7" width="1" height="2" fill="#d4ac0d"/>
  <rect x="26" y="7" width="1" height="1" fill="#f4d03f"/>
  <rect x="36" y="7" width="3" height="3" fill="#b8960b"/>
  <rect x="37" y="7" width="1" height="2" fill="#d4ac0d"/>
  <rect x="37" y="7" width="1" height="1" fill="#f4d03f"/>
  <!-- Tiara gems -->
  <rect x="31" y="6" width="2" height="2" fill="#9b59b6"/>
  <rect x="31" y="6" width="1" height="1" fill="#c9a0dc"/>
  <rect x="26" y="8" width="1" height="1" fill="#e91e8c"/>
  <rect x="37" y="8" width="1" height="1" fill="#3498db"/>
  <rect x="24" y="10" width="2" height="2" fill="#e91e8c"/>
  <rect x="24" y="10" width="1" height="1" fill="#f8a5c2"/>
  <rect x="38" y="10" width="2" height="2" fill="#e91e8c"/>
  <rect x="38" y="10" width="1" height="1" fill="#f8a5c2"/>

  <!-- === HAIR - Flowing golden blonde === -->
  <!-- Left hair mass -->
  <rect x="10" y="13" width="12" height="40" fill="#c9952a"/>
  <rect x="11" y="14" width="10" height="38" fill="#d4a530"/>
  <rect x="12" y="15" width="8" height="36" fill="#e0b535"/>
  <rect x="13" y="16" width="6" height="34" fill="#ecc53a"/>
  <!-- Left hair waves -->
  <rect x="8" y="18" width="3" height="6" fill="#d4a530"/>
  <rect x="9" y="19" width="2" height="4" fill="#e0b535"/>
  <rect x="8" y="28" width="3" height="6" fill="#d4a530"/>
  <rect x="9" y="29" width="2" height="4" fill="#e0b535"/>
  <rect x="8" y="38" width="3" height="6" fill="#d4a530"/>
  <rect x="9" y="39" width="2" height="4" fill="#e0b535"/>
  <!-- Left highlights -->
  <rect x="12" y="17" width="2" height="1" fill="#f7dc6f"/>
  <rect x="14" y="25" width="2" height="1" fill="#f7dc6f"/>
  <rect x="12" y="33" width="2" height="1" fill="#f7dc6f"/>
  <rect x="14" y="41" width="2" height="1" fill="#f7dc6f"/>

  <!-- Right hair mass -->
  <rect x="42" y="13" width="12" height="40" fill="#c9952a"/>
  <rect x="43" y="14" width="10" height="38" fill="#d4a530"/>
  <rect x="44" y="15" width="8" height="36" fill="#e0b535"/>
  <rect x="45" y="16" width="6" height="34" fill="#ecc53a"/>
  <!-- Right hair waves -->
  <rect x="53" y="18" width="3" height="6" fill="#d4a530"/>
  <rect x="53" y="19" width="2" height="4" fill="#e0b535"/>
  <rect x="53" y="28" width="3" height="6" fill="#d4a530"/>
  <rect x="53" y="29" width="2" height="4" fill="#e0b535"/>
  <rect x="53" y="38" width="3" height="6" fill="#d4a530"/>
  <rect x="53" y="39" width="2" height="4" fill="#e0b535"/>
  <!-- Right highlights -->
  <rect x="50" y="17" width="2" height="1" fill="#f7dc6f"/>
  <rect x="48" y="25" width="2" height="1" fill="#f7dc6f"/>
  <rect x="50" y="33" width="2" height="1" fill="#f7dc6f"/>
  <rect x="48" y="41" width="2" height="1" fill="#f7dc6f"/>

  <!-- Top hair -->
  <rect x="18" y="10" width="28" height="6" fill="#c9952a"/>
  <rect x="20" y="11" width="24" height="4" fill="#d4a530"/>
  <rect x="22" y="12" width="20" height="2" fill="#e0b535"/>
  <!-- Face-framing curls -->
  <rect x="18" y="14" width="4" height="20" fill="#d4a530"/>
  <rect x="19" y="15" width="2" height="18" fill="#e0b535"/>
  <rect x="42" y="14" width="4" height="20" fill="#d4a530"/>
  <rect x="43" y="15" width="2" height="18" fill="#e0b535"/>

  <!-- === FACE === -->
  <rect x="20" y="14" width="24" height="22" fill="#ffe4e1"/>
  <rect x="21" y="15" width="22" height="20" fill="#fff0ed"/>
  <rect x="22" y="16" width="20" height="16" fill="#fff5f3"/>

  <!-- Cheek contour -->
  <rect x="21" y="18" width="2" height="4" fill="#ffdcd5"/>
  <rect x="41" y="18" width="2" height="4" fill="#ffdcd5"/>

  <!-- Blush -->
  <rect x="23" y="26" width="4" height="3" fill="#ffcdc5"/>
  <rect x="24" y="27" width="2" height="1" fill="#ffb8b0"/>
  <rect x="37" y="26" width="4" height="3" fill="#ffcdc5"/>
  <rect x="38" y="27" width="2" height="1" fill="#ffb8b0"/>

  <!-- === EYES === -->
  <!-- Eye shadow - light pink -->
  <rect x="24" y="20" width="6" height="2" fill="#f0d0d8"/>
  <rect x="34" y="20" width="6" height="2" fill="#f0d0d8"/>

  <!-- Left eye white -->
  <rect x="24" y="22" width="6" height="4" fill="#fafafa"/>
  <rect x="24" y="22" width="1" height="1" fill="#fff0ed"/>
  <rect x="29" y="22" width="1" height="1" fill="#fff0ed"/>
  <rect x="24" y="25" width="1" height="1" fill="#fff0ed"/>
  <rect x="29" y="25" width="1" height="1" fill="#fff0ed"/>
  <!-- Left iris - bright blue -->
  <rect x="25" y="22" width="4" height="4" fill="#1a5276"/>
  <rect x="25" y="22" width="3" height="3" fill="#2980b9"/>
  <rect x="26" y="23" width="2" height="2" fill="#5dade2"/>
  <!-- Left pupil -->
  <rect x="26" y="23" width="2" height="2" fill="#0d1a26"/>
  <rect x="27" y="24" width="1" height="1" fill="#000a12"/>
  <!-- Left eye sparkle -->
  <rect x="25" y="22" width="2" height="1" fill="#fafafa"/>
  <rect x="26" y="23" width="1" height="1" fill="#fafafa"/>
  <rect x="28" y="24" width="1" height="1" fill="#85c1e9"/>
  <!-- Left eyelid -->
  <rect x="24" y="21" width="6" height="1" fill="#d4a530"/>
  <rect x="25" y="21" width="4" height="1" fill="#c9952a"/>
  <!-- Left lashes -->
  <rect x="24" y="20" width="1" height="1" fill="#4a3520"/>
  <rect x="25" y="21" width="1" height="1" fill="#4a3520"/>
  <rect x="27" y="20" width="1" height="1" fill="#4a3520"/>
  <rect x="29" y="20" width="1" height="1" fill="#4a3520"/>
  <!-- Left lower lid -->
  <rect x="25" y="26" width="4" height="1" fill="#ffdcd5"/>

  <!-- Right eye white -->
  <rect x="34" y="22" width="6" height="4" fill="#fafafa"/>
  <rect x="34" y="22" width="1" height="1" fill="#fff0ed"/>
  <rect x="39" y="22" width="1" height="1" fill="#fff0ed"/>
  <rect x="34" y="25" width="1" height="1" fill="#fff0ed"/>
  <rect x="39" y="25" width="1" height="1" fill="#fff0ed"/>
  <!-- Right iris -->
  <rect x="35" y="22" width="4" height="4" fill="#1a5276"/>
  <rect x="36" y="22" width="3" height="3" fill="#2980b9"/>
  <rect x="36" y="23" width="2" height="2" fill="#5dade2"/>
  <!-- Right pupil -->
  <rect x="36" y="23" width="2" height="2" fill="#0d1a26"/>
  <rect x="36" y="24" width="1" height="1" fill="#000a12"/>
  <!-- Right eye sparkle -->
  <rect x="37" y="22" width="2" height="1" fill="#fafafa"/>
  <rect x="37" y="23" width="1" height="1" fill="#fafafa"/>
  <rect x="35" y="24" width="1" height="1" fill="#85c1e9"/>
  <!-- Right eyelid -->
  <rect x="34" y="21" width="6" height="1" fill="#d4a530"/>
  <rect x="35" y="21" width="4" height="1" fill="#c9952a"/>
  <!-- Right lashes -->
  <rect x="34" y="20" width="1" height="1" fill="#4a3520"/>
  <rect x="36" y="20" width="1" height="1" fill="#4a3520"/>
  <rect x="38" y="21" width="1" height="1" fill="#4a3520"/>
  <rect x="39" y="20" width="1" height="1" fill="#4a3520"/>
  <!-- Right lower lid -->
  <rect x="35" y="26" width="4" height="1" fill="#ffdcd5"/>

  <!-- === EYEBROWS === -->
  <rect x="24" y="19" width="5" height="1" fill="#c9952a"/>
  <rect x="25" y="19" width="3" height="1" fill="#d4a530"/>
  <rect x="35" y="19" width="5" height="1" fill="#c9952a"/>
  <rect x="36" y="19" width="3" height="1" fill="#d4a530"/>

  <!-- === NOSE === -->
  <rect x="30" y="27" width="4" height="3" fill="#fff0ed"/>
  <rect x="31" y="27" width="2" height="2" fill="#fff5f3"/>
  <rect x="31" y="27" width="1" height="2" fill="#fffaf8"/>
  <rect x="33" y="27" width="1" height="2" fill="#ffdcd5"/>
  <rect x="29" y="30" width="6" height="1" fill="#fff0ed"/>
  <rect x="30" y="30" width="4" height="1" fill="#fff5f3"/>
  <rect x="29" y="31" width="2" height="1" fill="#ffdcd5"/>
  <rect x="33" y="31" width="2" height="1" fill="#ffdcd5"/>

  <!-- === LIPS === -->
  <rect x="29" y="32" width="6" height="1" fill="#e91e8c"/>
  <rect x="30" y="32" width="4" height="1" fill="#f06292"/>
  <rect x="31" y="32" width="2" height="1" fill="#f8a5c2"/>
  <rect x="29" y="33" width="6" height="1" fill="#f06292"/>
  <rect x="30" y="33" width="4" height="1" fill="#f8a5c2"/>
  <rect x="31" y="33" width="2" height="1" fill="#ffc1d3"/>
  <rect x="28" y="32" width="1" height="1" fill="#ffdcd5"/>
  <rect x="35" y="32" width="1" height="1" fill="#ffdcd5"/>

  <!-- === CHIN === -->
  <rect x="26" y="34" width="12" height="2" fill="#fff0ed"/>
  <rect x="28" y="35" width="8" height="1" fill="#fff5f3"/>

  <!-- === NECK === -->
  <rect x="26" y="36" width="12" height="4" fill="#ffdcd5"/>
  <rect x="28" y="36" width="8" height="3" fill="#fff0ed"/>
  <rect x="30" y="36" width="4" height="2" fill="#fff5f3"/>

  <!-- === DRESS === -->
  <!-- Shoulders -->
  <rect x="12" y="40" width="12" height="8" fill="#7b2d8e"/>
  <rect x="13" y="41" width="10" height="6" fill="#8e44ad"/>
  <rect x="14" y="42" width="8" height="4" fill="#9b59b6"/>
  <rect x="40" y="40" width="12" height="8" fill="#7b2d8e"/>
  <rect x="41" y="41" width="10" height="6" fill="#8e44ad"/>
  <rect x="42" y="42" width="8" height="4" fill="#9b59b6"/>
  <!-- Shoulder highlights -->
  <rect x="16" y="42" width="4" height="2" fill="#af7ac5"/>
  <rect x="44" y="42" width="4" height="2" fill="#af7ac5"/>

  <!-- Main dress body -->
  <rect x="10" y="48" width="44" height="12" fill="#7b2d8e"/>
  <rect x="12" y="49" width="40" height="10" fill="#8e44ad"/>
  <rect x="14" y="50" width="36" height="8" fill="#9b59b6"/>

  <!-- Dress folds -->
  <rect x="18" y="52" width="2" height="6" fill="#7b2d8e"/>
  <rect x="19" y="53" width="1" height="4" fill="#8e44ad"/>
  <rect x="44" y="52" width="2" height="6" fill="#7b2d8e"/>
  <rect x="44" y="53" width="1" height="4" fill="#8e44ad"/>

  <!-- Neckline - V-shape with gold trim -->
  <rect x="24" y="40" width="16" height="6" fill="#9b59b6"/>
  <rect x="26" y="40" width="12" height="4" fill="#af7ac5"/>
  <rect x="28" y="40" width="8" height="2" fill="#fff0ed"/>
  <rect x="29" y="40" width="6" height="1" fill="#fff5f3"/>
  <!-- Gold trim -->
  <rect x="24" y="40" width="2" height="5" fill="#b8960b"/>
  <rect x="38" y="40" width="2" height="5" fill="#b8960b"/>
  <rect x="25" y="41" width="1" height="3" fill="#d4ac0d"/>
  <rect x="38" y="41" width="1" height="3" fill="#d4ac0d"/>

  <!-- Center panel -->
  <rect x="29" y="52" width="6" height="6" fill="#af7ac5"/>
  <rect x="30" y="53" width="4" height="4" fill="#bb8fce"/>

  <!-- Bottom hem - gold -->
  <rect x="10" y="58" width="44" height="2" fill="#9a7b0a"/>
  <rect x="12" y="58" width="40" height="1" fill="#b8960b"/>
  <rect x="14" y="58" width="36" height="1" fill="#d4ac0d"/>

  <!-- === NECKLACE === -->
  <!-- Chain -->
  <rect x="27" y="38" width="2" height="1" fill="#d4ac0d"/>
  <rect x="28" y="39" width="2" height="1" fill="#b8960b"/>
  <rect x="35" y="38" width="2" height="1" fill="#d4ac0d"/>
  <rect x="34" y="39" width="2" height="1" fill="#b8960b"/>
  <!-- Pendant -->
  <rect x="29" y="40" width="6" height="5" fill="#9a7b0a"/>
  <rect x="30" y="40" width="4" height="4" fill="#b8960b"/>
  <rect x="30" y="40" width="4" height="1" fill="#d4ac0d"/>
  <rect x="30" y="40" width="1" height="4" fill="#d4ac0d"/>
  <!-- Gem -->
  <rect x="31" y="41" width="2" height="2" fill="#9b2d8e"/>
  <rect x="31" y="41" width="1" height="1" fill="#e91e8c"/>
  <rect x="32" y="42" width="1" height="1" fill="#7b2d8e"/>

  <!-- === SPARKLES === -->
  <rect x="7" y="8" width="2" height="2" fill="#f8a5c2"/>
  <rect x="8" y="9" width="1" height="1" fill="#ffc1d3"/>
  <rect x="55" y="9" width="2" height="2" fill="#f8a5c2"/>
  <rect x="56" y="10" width="1" height="1" fill="#ffc1d3"/>
  <rect x="6" y="28" width="1" height="1" fill="#e91e8c"/>
  <rect x="57" y="30" width="1" height="1" fill="#e91e8c"/>
  <rect x="8" y="48" width="1" height="1" fill="#af7ac5"/>
  <rect x="55" y="50" width="1" height="1" fill="#af7ac5"/>
</svg>
