<svg xmlns="http://www.w3.org/2000/svg" viewBox="0 0 64 64" width="64" height="64">
  <!-- Elder Lyra Portrait (64x64) - Refined with softer face shape -->

  <!-- === OUTER FRAME === -->
  <rect x="0" y="0" width="64" height="64" fill="#1a1a2e"/>
  <rect x="1" y="1" width="62" height="62" fill="#9a7b0a"/>
  <rect x="2" y="2" width="60" height="60" fill="#d4ac0d"/>
  <rect x="3" y="3" width="58" height="58" fill="#f4d03f"/>
  <rect x="2" y="2" width="60" height="1" fill="#f4d03f"/>
  <rect x="2" y="2" width="1" height="60" fill="#f4d03f"/>
  <rect x="3" y="61" width="60" height="1" fill="#9a7b0a"/>
  <rect x="61" y="3" width="1" height="58" fill="#9a7b0a"/>

  <!-- Corner ornaments -->
  <rect x="1" y="1" width="4" height="4" fill="#f4d03f"/>
  <rect x="59" y="1" width="4" height="4" fill="#f4d03f"/>
  <rect x="1" y="59" width="4" height="4" fill="#f4d03f"/>
  <rect x="59" y="59" width="4" height="4" fill="#f4d03f"/>
  <rect x="2" y="2" width="2" height="2" fill="#d4ac0d"/>
  <rect x="60" y="2" width="2" height="2" fill="#d4ac0d"/>
  <rect x="2" y="60" width="2" height="2" fill="#d4ac0d"/>
  <rect x="60" y="60" width="2" height="2" fill="#d4ac0d"/>

  <!-- Inner dark border -->
  <rect x="4" y="4" width="56" height="56" fill="#2c1810"/>

  <!-- === BACKGROUND === -->
  <rect x="5" y="5" width="54" height="54" fill="#1a0a2e"/>
  <rect x="5" y="5" width="54" height="20" fill="#2d1b4e"/>
  <rect x="5" y="5" width="54" height="12" fill="#3d2b5e"/>

  <!-- Background accents -->
  <rect x="7" y="8" width="3" height="2" fill="#4a3a6e"/>
  <rect x="52" y="10" width="4" height="2" fill="#4a3a6e"/>
  <rect x="7" y="50" width="2" height="2" fill="#4a3a6e"/>
  <rect x="54" y="48" width="2" height="2" fill="#4a3a6e"/>

  <!-- === HAIR BASE (flowing silver) === -->
  <!-- Main hair mass -->
  <rect x="15" y="7" width="34" height="18" fill="#8e9aaf"/>
  <rect x="17" y="8" width="30" height="15" fill="#bdc3c7"/>
  <rect x="19" y="9" width="26" height="12" fill="#ecf0f1"/>

  <!-- Hair top - rounded -->
  <rect x="22" y="5" width="20" height="3" fill="#8e9aaf"/>
  <rect x="24" y="6" width="16" height="2" fill="#bdc3c7"/>
  <rect x="26" y="6" width="12" height="1" fill="#ecf0f1"/>

  <!-- Left flowing hair -->
  <rect x="7" y="14" width="12" height="32" fill="#8e9aaf"/>
  <rect x="9" y="16" width="8" height="28" fill="#bdc3c7"/>
  <rect x="10" y="18" width="5" height="24" fill="#ecf0f1"/>
  <rect x="11" y="20" width="2" height="8" fill="#ffffff"/>

  <!-- Right flowing hair -->
  <rect x="45" y="14" width="12" height="32" fill="#8e9aaf"/>
  <rect x="47" y="16" width="8" height="28" fill="#bdc3c7"/>
  <rect x="49" y="18" width="5" height="24" fill="#ecf0f1"/>
  <rect x="51" y="20" width="2" height="8" fill="#ffffff"/>

  <!-- Hair wisps -->
  <rect x="6" y="20" width="2" height="16" fill="#8e9aaf"/>
  <rect x="56" y="20" width="2" height="16" fill="#8e9aaf"/>

  <!-- Hair highlights -->
  <rect x="28" y="7" width="2" height="2" fill="#ffffff"/>
  <rect x="36" y="8" width="2" height="1" fill="#ffffff"/>

  <!-- === FACE - Oval shape with contouring === -->
  <!-- Face shadow/outline - creates oval shape -->
  <rect x="21" y="14" width="22" height="30" fill="#c4b498"/>
  <!-- Taper top of face -->
  <rect x="20" y="14" width="1" height="3" fill="#2d1b4e"/>
  <rect x="43" y="14" width="1" height="3" fill="#2d1b4e"/>
  <!-- Taper bottom of face (chin) -->
  <rect x="21" y="42" width="2" height="2" fill="#2d1b4e"/>
  <rect x="41" y="42" width="2" height="2" fill="#2d1b4e"/>
  <rect x="22" y="43" width="1" height="1" fill="#2d1b4e"/>
  <rect x="41" y="43" width="1" height="1" fill="#2d1b4e"/>

  <!-- Main face - mid tone -->
  <rect x="22" y="15" width="20" height="27" fill="#f5e6d3"/>
  <!-- Taper for oval -->
  <rect x="21" y="17" width="1" height="20" fill="#f5e6d3"/>
  <rect x="42" y="17" width="1" height="20" fill="#f5e6d3"/>

  <!-- Face highlight center -->
  <rect x="24" y="17" width="16" height="20" fill="#fdf6e3"/>
  <rect x="26" y="16" width="12" height="2" fill="#fdf6e3"/>

  <!-- Forehead contour -->
  <rect x="23" y="15" width="18" height="1" fill="#e8d9c6"/>

  <!-- Cheek shading (soft) -->
  <rect x="21" y="26" width="3" height="6" fill="#e8d9c6"/>
  <rect x="40" y="26" width="3" height="6" fill="#e8d9c6"/>

  <!-- Blush -->
  <rect x="23" y="30" width="3" height="2" fill="#e8c4c4"/>
  <rect x="38" y="30" width="3" height="2" fill="#e8c4c4"/>

  <!-- Jawline shadow -->
  <rect x="22" y="38" width="2" height="3" fill="#d4c4a8"/>
  <rect x="40" y="38" width="2" height="3" fill="#d4c4a8"/>

  <!-- Chin - rounded -->
  <rect x="28" y="40" width="8" height="3" fill="#f5e6d3"/>
  <rect x="29" y="42" width="6" height="1" fill="#f5e6d3"/>
  <rect x="30" y="43" width="4" height="1" fill="#e8d9c6"/>
  <!-- Chin taper pixels -->
  <rect x="27" y="41" width="1" height="1" fill="#d4c4a8"/>
  <rect x="36" y="41" width="1" height="1" fill="#d4c4a8"/>

  <!-- === EYES - More detailed === -->
  <!-- Left eye socket shadow -->
  <rect x="24" y="23" width="8" height="1" fill="#d4c4a8"/>

  <!-- Left eye white -->
  <rect x="24" y="24" width="7" height="5" fill="#fdfefe"/>
  <!-- Left eye - rounded corners -->
  <rect x="24" y="24" width="1" height="1" fill="#e8d9c6"/>
  <rect x="30" y="24" width="1" height="1" fill="#e8d9c6"/>
  <rect x="24" y="28" width="1" height="1" fill="#e8d9c6"/>
  <rect x="30" y="28" width="1" height="1" fill="#e8d9c6"/>

  <!-- Left iris -->
  <rect x="25" y="25" width="5" height="4" fill="#8e44ad"/>
  <rect x="26" y="25" width="3" height="3" fill="#9b59b6"/>
  <rect x="27" y="26" width="2" height="2" fill="#af7ac5"/>
  <!-- Left pupil -->
  <rect x="27" y="26" width="2" height="2" fill="#1a1a2e"/>
  <!-- Left eye shine -->
  <rect x="26" y="25" width="1" height="1" fill="#fdfefe"/>
  <rect x="28" y="27" width="1" height="1" fill="#c9a0dc"/>

  <!-- Left eye outline -->
  <rect x="24" y="23" width="7" height="1" fill="#5d4e6d"/>
  <rect x="24" y="29" width="7" height="1" fill="#7f7091"/>

  <!-- Right eye socket shadow -->
  <rect x="32" y="23" width="8" height="1" fill="#d4c4a8"/>

  <!-- Right eye white -->
  <rect x="33" y="24" width="7" height="5" fill="#fdfefe"/>
  <!-- Right eye - rounded corners -->
  <rect x="33" y="24" width="1" height="1" fill="#e8d9c6"/>
  <rect x="39" y="24" width="1" height="1" fill="#e8d9c6"/>
  <rect x="33" y="28" width="1" height="1" fill="#e8d9c6"/>
  <rect x="39" y="28" width="1" height="1" fill="#e8d9c6"/>

  <!-- Right iris -->
  <rect x="34" y="25" width="5" height="4" fill="#8e44ad"/>
  <rect x="35" y="25" width="3" height="3" fill="#9b59b6"/>
  <rect x="36" y="26" width="2" height="2" fill="#af7ac5"/>
  <!-- Right pupil -->
  <rect x="36" y="26" width="2" height="2" fill="#1a1a2e"/>
  <!-- Right eye shine -->
  <rect x="35" y="25" width="1" height="1" fill="#fdfefe"/>
  <rect x="37" y="27" width="1" height="1" fill="#c9a0dc"/>

  <!-- Right eye outline -->
  <rect x="33" y="23" width="7" height="1" fill="#5d4e6d"/>
  <rect x="33" y="29" width="7" height="1" fill="#7f7091"/>

  <!-- === EYEBROWS - Arched === -->
  <rect x="24" y="21" width="6" height="1" fill="#95a5a6"/>
  <rect x="23" y="22" width="2" height="1" fill="#95a5a6"/>
  <rect x="34" y="21" width="6" height="1" fill="#95a5a6"/>
  <rect x="39" y="22" width="2" height="1" fill="#95a5a6"/>

  <!-- === NOSE - Delicate === -->
  <rect x="31" y="29" width="2" height="5" fill="#e8d9c6"/>
  <rect x="30" y="33" width="4" height="1" fill="#d4c4a8"/>
  <rect x="31" y="30" width="1" height="3" fill="#f5e6d3"/>
  <!-- Nose highlight -->
  <rect x="31" y="29" width="1" height="1" fill="#fdf6e3"/>

  <!-- === MOUTH - Gentle smile === -->
  <rect x="29" y="36" width="6" height="1" fill="#c9a0a0"/>
  <rect x="28" y="37" width="8" height="2" fill="#d4a5a5"/>
  <rect x="30" y="37" width="4" height="1" fill="#e0b5b5"/>
  <!-- Smile corners -->
  <rect x="27" y="37" width="1" height="1" fill="#d4c4a8"/>
  <rect x="36" y="37" width="1" height="1" fill="#d4c4a8"/>
  <!-- Lower lip shadow -->
  <rect x="29" y="39" width="6" height="1" fill="#c4b498"/>

  <!-- === ROBE === -->
  <rect x="12" y="44" width="40" height="14" fill="#5b2c6f"/>
  <rect x="14" y="46" width="36" height="10" fill="#7d3c98"/>
  <rect x="16" y="48" width="32" height="6" fill="#9b59b6"/>

  <!-- V-neck collar -->
  <rect x="27" y="42" width="10" height="6" fill="#7d3c98"/>
  <rect x="29" y="43" width="6" height="4" fill="#9b59b6"/>
  <rect x="31" y="44" width="2" height="2" fill="#e8d9c6"/>

  <!-- Gold trim -->
  <rect x="25" y="42" width="2" height="8" fill="#d4ac0d"/>
  <rect x="37" y="42" width="2" height="8" fill="#d4ac0d"/>
  <rect x="26" y="43" width="1" height="6" fill="#f4d03f"/>
  <rect x="38" y="43" width="1" height="6" fill="#f4d03f"/>

  <!-- Shoulder highlights -->
  <rect x="18" y="48" width="5" height="3" fill="#bb8fce"/>
  <rect x="41" y="48" width="5" height="3" fill="#bb8fce"/>

  <!-- Robe folds -->
  <rect x="22" y="52" width="2" height="6" fill="#5b2c6f"/>
  <rect x="32" y="52" width="2" height="6" fill="#5b2c6f"/>
  <rect x="40" y="52" width="2" height="6" fill="#5b2c6f"/>

  <!-- === PENDANT === -->
  <rect x="30" y="50" width="4" height="4" fill="#d4ac0d"/>
  <rect x="31" y="51" width="2" height="2" fill="#3498db"/>
  <rect x="31" y="51" width="1" height="1" fill="#85c1e9"/>

  <!-- === MAGIC SPARKLES === -->
  <rect x="8" y="9" width="2" height="2" fill="#a569bd"/>
  <rect x="53" y="11" width="2" height="2" fill="#a569bd"/>
  <rect x="7" y="42" width="1" height="1" fill="#c9a0dc"/>
  <rect x="55" y="44" width="1" height="1" fill="#c9a0dc"/>
</svg>
