<svg xmlns="http://www.w3.org/2000/svg" viewBox="0 0 64 64" width="64" height="64">
  <!-- King Portrait (64x64) - Regal monarch with crown -->

  <!-- === OUTER FRAME === -->
  <rect x="0" y="0" width="64" height="64" fill="#1a1a2e"/>
  <rect x="1" y="1" width="62" height="62" fill="#9a7b0a"/>
  <rect x="2" y="2" width="60" height="60" fill="#d4ac0d"/>
  <rect x="3" y="3" width="58" height="58" fill="#f4d03f"/>
  <rect x="2" y="2" width="60" height="1" fill="#f4d03f"/>
  <rect x="2" y="2" width="1" height="60" fill="#f4d03f"/>
  <rect x="3" y="61" width="60" height="1" fill="#9a7b0a"/>
  <rect x="61" y="3" width="1" height="58" fill="#9a7b0a"/>

  <!-- Corner ornaments - red gems for royalty -->
  <rect x="1" y="1" width="5" height="5" fill="#f4d03f"/>
  <rect x="2" y="2" width="3" height="3" fill="#d4ac0d"/>
  <rect x="2" y="2" width="2" height="2" fill="#c0392b"/>
  <rect x="2" y="2" width="1" height="1" fill="#e74c3c"/>
  <rect x="58" y="1" width="5" height="5" fill="#f4d03f"/>
  <rect x="59" y="2" width="3" height="3" fill="#d4ac0d"/>
  <rect x="60" y="2" width="2" height="2" fill="#c0392b"/>
  <rect x="61" y="2" width="1" height="1" fill="#e74c3c"/>
  <rect x="1" y="58" width="5" height="5" fill="#f4d03f"/>
  <rect x="2" y="59" width="3" height="3" fill="#d4ac0d"/>
  <rect x="2" y="60" width="2" height="2" fill="#c0392b"/>
  <rect x="2" y="61" width="1" height="1" fill="#e74c3c"/>
  <rect x="58" y="58" width="5" height="5" fill="#f4d03f"/>
  <rect x="59" y="59" width="3" height="3" fill="#d4ac0d"/>
  <rect x="60" y="60" width="2" height="2" fill="#c0392b"/>
  <rect x="61" y="61" width="1" height="1" fill="#e74c3c"/>

  <!-- Inner border -->
  <rect x="4" y="4" width="56" height="56" fill="#2c1810"/>

  <!-- === BACKGROUND === -->
  <rect x="5" y="5" width="54" height="54" fill="#1a0a0a"/>
  <rect x="5" y="5" width="54" height="30" fill="#2a1515"/>
  <rect x="5" y="5" width="54" height="20" fill="#3a1a1a"/>
  <rect x="5" y="5" width="54" height="10" fill="#4a2020"/>

  <!-- Royal glow behind head -->
  <rect x="18" y="6" width="28" height="18" fill="#4a2020"/>
  <rect x="20" y="8" width="24" height="14" fill="#5a2828"/>
  <rect x="23" y="10" width="18" height="10" fill="#6a3030"/>
  <rect x="27" y="12" width="10" height="6" fill="#7a3838"/>

  <!-- === CROWN === -->
  <!-- Crown base band -->
  <rect x="18" y="12" width="28" height="4" fill="#b8960b"/>
  <rect x="19" y="12" width="26" height="3" fill="#d4ac0d"/>
  <rect x="20" y="12" width="24" height="2" fill="#f4d03f"/>
  <!-- Crown band pattern -->
  <rect x="22" y="13" width="2" height="2" fill="#b8960b"/>
  <rect x="28" y="13" width="2" height="2" fill="#b8960b"/>
  <rect x="34" y="13" width="2" height="2" fill="#b8960b"/>
  <rect x="40" y="13" width="2" height="2" fill="#b8960b"/>

  <!-- Crown points -->
  <rect x="20" y="8" width="4" height="4" fill="#b8960b"/>
  <rect x="21" y="7" width="2" height="4" fill="#d4ac0d"/>
  <rect x="21" y="6" width="2" height="2" fill="#f4d03f"/>
  <rect x="27" y="9" width="4" height="3" fill="#b8960b"/>
  <rect x="28" y="7" width="2" height="4" fill="#d4ac0d"/>
  <rect x="28" y="6" width="2" height="2" fill="#f4d03f"/>
  <rect x="30" y="5" width="4" height="7" fill="#b8960b"/>
  <rect x="31" y="5" width="2" height="6" fill="#d4ac0d"/>
  <rect x="31" y="5" width="2" height="2" fill="#f4d03f"/>
  <rect x="33" y="9" width="4" height="3" fill="#b8960b"/>
  <rect x="34" y="7" width="2" height="4" fill="#d4ac0d"/>
  <rect x="34" y="6" width="2" height="2" fill="#f4d03f"/>
  <rect x="40" y="8" width="4" height="4" fill="#b8960b"/>
  <rect x="41" y="7" width="2" height="4" fill="#d4ac0d"/>
  <rect x="41" y="6" width="2" height="2" fill="#f4d03f"/>

  <!-- Crown gems -->
  <rect x="21" y="8" width="2" height="2" fill="#c0392b"/>
  <rect x="22" y="9" width="1" height="1" fill="#e74c3c"/>
  <rect x="31" y="7" width="2" height="2" fill="#c0392b"/>
  <rect x="31" y="7" width="1" height="1" fill="#e74c3c"/>
  <rect x="41" y="8" width="2" height="2" fill="#c0392b"/>
  <rect x="41" y="9" width="1" height="1" fill="#e74c3c"/>
  <rect x="25" y="13" width="2" height="2" fill="#2980b9"/>
  <rect x="25" y="13" width="1" height="1" fill="#5dade2"/>
  <rect x="31" y="13" width="2" height="2" fill="#2980b9"/>
  <rect x="31" y="13" width="1" height="1" fill="#5dade2"/>
  <rect x="37" y="13" width="2" height="2" fill="#2980b9"/>
  <rect x="37" y="13" width="1" height="1" fill="#5dade2"/>

  <!-- === HAIR === -->
  <rect x="16" y="16" width="6" height="24" fill="#5a6570"/>
  <rect x="17" y="17" width="4" height="22" fill="#6a7580"/>
  <rect x="18" y="18" width="2" height="20" fill="#7a8590"/>
  <rect x="18" y="28" width="4" height="8" fill="#5a6570"/>
  <rect x="19" y="29" width="3" height="6" fill="#6a7580"/>
  <rect x="17" y="18" width="2" height="1" fill="#c0c8d0"/>
  <rect x="18" y="24" width="2" height="1" fill="#c0c8d0"/>
  <rect x="42" y="16" width="6" height="24" fill="#5a6570"/>
  <rect x="43" y="17" width="4" height="22" fill="#6a7580"/>
  <rect x="44" y="18" width="2" height="20" fill="#7a8590"/>
  <rect x="42" y="28" width="4" height="8" fill="#5a6570"/>
  <rect x="42" y="29" width="3" height="6" fill="#6a7580"/>
  <rect x="45" y="18" width="2" height="1" fill="#c0c8d0"/>
  <rect x="44" y="24" width="2" height="1" fill="#c0c8d0"/>

  <!-- === FACE === -->
  <rect x="20" y="16" width="24" height="22" fill="#e5d5c5"/>
  <rect x="21" y="17" width="22" height="20" fill="#f5e8db"/>
  <rect x="22" y="18" width="20" height="16" fill="#faf3eb"/>
  <rect x="21" y="18" width="2" height="5" fill="#e8dcd0"/>
  <rect x="41" y="18" width="2" height="5" fill="#e8dcd0"/>
  <rect x="21" y="24" width="2" height="6" fill="#e8dcd0"/>
  <rect x="41" y="24" width="2" height="6" fill="#e8dcd0"/>
  <rect x="24" y="25" width="2" height="2" fill="#faf3eb"/>
  <rect x="38" y="25" width="2" height="2" fill="#faf3eb"/>

  <!-- === EYES === -->
  <rect x="24" y="21" width="6" height="2" fill="#a0a0b0"/>
  <rect x="34" y="21" width="6" height="2" fill="#a0a0b0"/>
  <rect x="24" y="23" width="6" height="4" fill="#fafafa"/>
  <rect x="24" y="23" width="1" height="1" fill="#f0e3d5"/>
  <rect x="29" y="23" width="1" height="1" fill="#f0e3d5"/>
  <rect x="24" y="26" width="1" height="1" fill="#f0e3d5"/>
  <rect x="29" y="26" width="1" height="1" fill="#f0e3d5"/>
  <rect x="25" y="23" width="4" height="4" fill="#2c3e50"/>
  <rect x="25" y="23" width="3" height="3" fill="#34495e"/>
  <rect x="26" y="24" width="2" height="2" fill="#5d6d7e"/>
  <rect x="26" y="24" width="2" height="2" fill="#1a252f"/>
  <rect x="27" y="25" width="1" height="1" fill="#0d1318"/>
  <rect x="25" y="23" width="2" height="1" fill="#fafafa"/>
  <rect x="26" y="24" width="1" height="1" fill="#fafafa"/>
  <rect x="24" y="22" width="6" height="1" fill="#9090a0"/>
  <rect x="25" y="22" width="4" height="1" fill="#808090"/>
  <rect x="25" y="27" width="4" height="1" fill="#e8dcd0"/>
  <rect x="34" y="23" width="6" height="4" fill="#fafafa"/>
  <rect x="34" y="23" width="1" height="1" fill="#f0e3d5"/>
  <rect x="39" y="23" width="1" height="1" fill="#f0e3d5"/>
  <rect x="34" y="26" width="1" height="1" fill="#f0e3d5"/>
  <rect x="39" y="26" width="1" height="1" fill="#f0e3d5"/>
  <rect x="35" y="23" width="4" height="4" fill="#2c3e50"/>
  <rect x="36" y="23" width="3" height="3" fill="#34495e"/>
  <rect x="36" y="24" width="2" height="2" fill="#5d6d7e"/>
  <rect x="36" y="24" width="2" height="2" fill="#1a252f"/>
  <rect x="36" y="25" width="1" height="1" fill="#0d1318"/>
  <rect x="37" y="23" width="2" height="1" fill="#fafafa"/>
  <rect x="37" y="24" width="1" height="1" fill="#fafafa"/>
  <rect x="34" y="22" width="6" height="1" fill="#9090a0"/>
  <rect x="35" y="22" width="4" height="1" fill="#808090"/>
  <rect x="35" y="27" width="4" height="1" fill="#e8dcd0"/>

  <!-- === EYEBROWS === -->
  <rect x="24" y="20" width="5" height="2" fill="#5a6570"/>
  <rect x="25" y="20" width="3" height="1" fill="#6a7580"/>
  <rect x="35" y="20" width="5" height="2" fill="#5a6570"/>
  <rect x="36" y="20" width="3" height="1" fill="#6a7580"/>

  <!-- === NOSE === -->
  <rect x="30" y="27" width="4" height="4" fill="#f0e3d5"/>
  <rect x="31" y="27" width="2" height="3" fill="#f5e8db"/>
  <rect x="31" y="27" width="1" height="3" fill="#faf3eb"/>
  <rect x="33" y="27" width="1" height="3" fill="#ead8cc"/>
  <rect x="29" y="31" width="6" height="1" fill="#f0e3d5"/>
  <rect x="30" y="31" width="4" height="1" fill="#f5e8db"/>
  <rect x="29" y="32" width="2" height="1" fill="#ddd0c5"/>
  <rect x="33" y="32" width="2" height="1" fill="#ddd0c5"/>

  <!-- === BEARD === -->
  <rect x="27" y="33" width="10" height="2" fill="#5a6570"/>
  <rect x="28" y="33" width="8" height="1" fill="#6a7580"/>
  <rect x="31" y="33" width="2" height="1" fill="#7a8590"/>
  <rect x="24" y="35" width="16" height="4" fill="#5a6570"/>
  <rect x="25" y="35" width="14" height="3" fill="#6a7580"/>
  <rect x="26" y="35" width="12" height="2" fill="#7a8590"/>
  <rect x="28" y="35" width="2" height="1" fill="#c0c8d0"/>
  <rect x="34" y="36" width="2" height="1" fill="#c0c8d0"/>
  <rect x="26" y="39" width="12" height="2" fill="#f0e3d5"/>
  <rect x="28" y="39" width="8" height="1" fill="#f5e8db"/>

  <!-- === NECK === -->
  <rect x="26" y="41" width="12" height="3" fill="#e8dcd0"/>
  <rect x="28" y="41" width="8" height="2" fill="#f0e3d5"/>
  <rect x="30" y="41" width="4" height="1" fill="#f5e8db"/>

  <!-- === ROBE === -->
  <rect x="10" y="44" width="14" height="8" fill="#922b21"/>
  <rect x="11" y="45" width="12" height="6" fill="#a93226"/>
  <rect x="12" y="46" width="10" height="4" fill="#c0392b"/>
  <rect x="40" y="44" width="14" height="8" fill="#922b21"/>
  <rect x="41" y="45" width="12" height="6" fill="#a93226"/>
  <rect x="42" y="46" width="10" height="4" fill="#c0392b"/>
  <rect x="14" y="46" width="4" height="2" fill="#e74c3c"/>
  <rect x="46" y="46" width="4" height="2" fill="#e74c3c"/>
  <rect x="8" y="52" width="48" height="8" fill="#922b21"/>
  <rect x="10" y="53" width="44" height="6" fill="#a93226"/>
  <rect x="12" y="54" width="40" height="4" fill="#c0392b"/>
  <rect x="22" y="44" width="20" height="4" fill="#f5f5f5"/>
  <rect x="24" y="45" width="16" height="2" fill="#ffffff"/>
  <rect x="25" y="45" width="1" height="1" fill="#1a1a1a"/>
  <rect x="29" y="46" width="1" height="1" fill="#1a1a1a"/>
  <rect x="34" y="45" width="1" height="1" fill="#1a1a1a"/>
  <rect x="38" y="46" width="1" height="1" fill="#1a1a1a"/>
  <rect x="22" y="48" width="20" height="2" fill="#b8960b"/>
  <rect x="24" y="48" width="16" height="1" fill="#d4ac0d"/>
  <rect x="26" y="48" width="12" height="1" fill="#f4d03f"/>
  <rect x="16" y="54" width="2" height="4" fill="#922b21"/>
  <rect x="17" y="55" width="1" height="2" fill="#a93226"/>
  <rect x="46" y="54" width="2" height="4" fill="#922b21"/>
  <rect x="46" y="55" width="1" height="2" fill="#a93226"/>
  <rect x="29" y="50" width="6" height="8" fill="#b8960b"/>
  <rect x="30" y="51" width="4" height="6" fill="#d4ac0d"/>
  <rect x="31" y="52" width="2" height="4" fill="#f4d03f"/>
  <rect x="8" y="58" width="48" height="2" fill="#9a7b0a"/>
  <rect x="10" y="58" width="44" height="1" fill="#b8960b"/>
  <rect x="12" y="58" width="40" height="1" fill="#d4ac0d"/>

  <!-- === MEDALLION === -->
  <rect x="26" y="48" width="2" height="1" fill="#f4d03f"/>
  <rect x="27" y="49" width="2" height="1" fill="#d4ac0d"/>
  <rect x="36" y="48" width="2" height="1" fill="#f4d03f"/>
  <rect x="35" y="49" width="2" height="1" fill="#d4ac0d"/>
  <rect x="28" y="50" width="8" height="6" fill="#9a7b0a"/>
  <rect x="29" y="50" width="6" height="5" fill="#b8960b"/>
  <rect x="30" y="51" width="4" height="3" fill="#d4ac0d"/>
  <rect x="30" y="51" width="4" height="1" fill="#f4d03f"/>
  <rect x="31" y="52" width="2" height="2" fill="#f4d03f"/>
  <rect x="30" y="52" width="1" height="1" fill="#f4d03f"/>
  <rect x="33" y="52" width="1" height="1" fill="#f4d03f"/>

  <!-- === SPARKLES === -->
  <rect x="7" y="8" width="2" height="2" fill="#f4d03f"/>
  <rect x="8" y="9" width="1" height="1" fill="#f7dc6f"/>
  <rect x="55" y="9" width="2" height="2" fill="#f4d03f"/>
  <rect x="56" y="10" width="1" height="1" fill="#f7dc6f"/>
  <rect x="6" y="28" width="1" height="1" fill="#d4ac0d"/>
  <rect x="57" y="30" width="1" height="1" fill="#d4ac0d"/>
</svg>
