<svg xmlns="http://www.w3.org/2000/svg" viewBox="0 0 128 48" width="128" height="48">
  <!-- Defeat Banner (128x48) - Game over text backdrop -->
  <!-- Color Palette: #e74c3c, #c0392b, #2c3e50 -->

  <!-- Ribbon ends (torn/ragged) -->
  <rect x="0" y="16" width="14" height="22" fill="#c0392b"/>
  <rect x="0" y="34" width="10" height="6" fill="#922b21"/>
  <rect x="114" y="16" width="14" height="22" fill="#c0392b"/>
  <rect x="118" y="34" width="10" height="6" fill="#922b21"/>

  <!-- Main banner body -->
  <rect x="10" y="10" width="108" height="30" fill="#e74c3c"/>
  <rect x="14" y="14" width="100" height="22" fill="#c0392b"/>

  <!-- Text area -->
  <rect x="18" y="18" width="92" height="14" fill="#2c3e50"/>

  <!-- Damage/wear marks -->
  <rect x="20" y="10" width="4" height="4" fill="#922b21"/>
  <rect x="104" y="36" width="4" height="4" fill="#922b21"/>
  <rect x="60" y="10" width="3" height="3" fill="#922b21"/>

  <!-- Skull decorations -->
  <rect x="24" y="20" width="6" height="6" fill="#ecf0f1"/>
  <rect x="25" y="21" width="2" height="2" fill="#2c3e50"/>
  <rect x="27" y="21" width="2" height="2" fill="#2c3e50"/>
  <rect x="26" y="24" width="2" height="2" fill="#2c3e50"/>

  <rect x="98" y="20" width="6" height="6" fill="#ecf0f1"/>
  <rect x="99" y="21" width="2" height="2" fill="#2c3e50"/>
  <rect x="101" y="21" width="2" height="2" fill="#2c3e50"/>
  <rect x="100" y="24" width="2" height="2" fill="#2c3e50"/>
</svg>
