<svg xmlns="http://www.w3.org/2000/svg" viewBox="0 0 32 16" width="32" height="16">
  <!-- Combo x10 Display (32x16) - max combo -->
  
  <!-- Background burst with glow -->
  <rect x="0" y="2" width="32" height="12" fill="#f4d03f" opacity="0.4"/>
  <rect x="2" y="4" width="28" height="8" fill="#f9e79f" opacity="0.3"/>
  
  <!-- X symbol -->
  <rect x="2" y="5" width="2" height="2" fill="#f4d03f"/>
  <rect x="3" y="6" width="2" height="2" fill="#f4d03f"/>
  <rect x="4" y="7" width="2" height="2" fill="#f4d03f"/>
  <rect x="5" y="8" width="2" height="2" fill="#f4d03f"/>
  <rect x="6" y="9" width="2" height="2" fill="#f4d03f"/>
  <rect x="6" y="5" width="2" height="2" fill="#f4d03f"/>
  <rect x="5" y="6" width="2" height="2" fill="#f4d03f"/>
  <rect x="3" y="8" width="2" height="2" fill="#f4d03f"/>
  <rect x="2" y="9" width="2" height="2" fill="#f4d03f"/>
  
  <!-- Number 1 -->
  <rect x="11" y="3" width="3" height="10" fill="#fdfefe"/>
  <rect x="9" y="5" width="2" height="2" fill="#fdfefe"/>
  
  <!-- Number 0 -->
  <rect x="17" y="3" width="10" height="2" fill="#fdfefe"/>
  <rect x="17" y="11" width="10" height="2" fill="#fdfefe"/>
  <rect x="17" y="5" width="2" height="6" fill="#fdfefe"/>
  <rect x="25" y="5" width="2" height="6" fill="#fdfefe"/>
  
  <!-- Sparkles -->
  <rect x="29" y="1" width="2" height="2" fill="#fdfefe"/>
  <rect x="0" y="13" width="2" height="2" fill="#fdfefe"/>
</svg>
