<svg xmlns="http://www.w3.org/2000/svg" viewBox="0 0 24 16" width="24" height="16">
  <!-- Combo x3 Display (24x16) -->
  
  <!-- Background burst -->
  <rect x="2" y="4" width="20" height="8" fill="#e67e22" opacity="0.3"/>
  
  <!-- X symbol -->
  <rect x="2" y="5" width="2" height="2" fill="#f39c12"/>
  <rect x="3" y="6" width="2" height="2" fill="#f39c12"/>
  <rect x="4" y="7" width="2" height="2" fill="#f39c12"/>
  <rect x="5" y="8" width="2" height="2" fill="#f39c12"/>
  <rect x="6" y="9" width="2" height="2" fill="#f39c12"/>
  <rect x="6" y="5" width="2" height="2" fill="#f39c12"/>
  <rect x="5" y="6" width="2" height="2" fill="#f39c12"/>
  <rect x="3" y="8" width="2" height="2" fill="#f39c12"/>
  <rect x="2" y="9" width="2" height="2" fill="#f39c12"/>
  
  <!-- Number 3 -->
  <rect x="10" y="3" width="10" height="2" fill="#fdfefe"/>
  <rect x="18" y="5" width="2" height="4" fill="#fdfefe"/>
  <rect x="12" y="7" width="8" height="2" fill="#fdfefe"/>
  <rect x="18" y="9" width="2" height="4" fill="#fdfefe"/>
  <rect x="10" y="11" width="10" height="2" fill="#fdfefe"/>
</svg>
