<svg xmlns="http://www.w3.org/2000/svg" viewBox="0 0 32 32" width="32" height="32">
  <!-- Boss Warlord - 32x32 large boss enemy -->
  <rect x="6" y="28" width="20" height="4" fill="#2a2a3a"/>
  <!-- Massive armored body -->
  <rect x="6" y="14" width="20" height="16" fill="#2a2a3a"/>
  <rect x="4" y="16" width="24" height="12" fill="#3a3a4a"/>
  <!-- Armor plates -->
  <rect x="6" y="14" width="20" height="2" fill="#4a4a5a"/>
  <rect x="6" y="18" width="20" height="2" fill="#4a4a5a"/>
  <rect x="6" y="22" width="20" height="2" fill="#4a4a5a"/>
  <!-- Skull emblem -->
  <rect x="12" y="16" width="8" height="6" fill="#eaeaea"/>
  <rect x="13" y="17" width="2" height="2" fill="#1a1a2e"/>
  <rect x="17" y="17" width="2" height="2" fill="#1a1a2e"/>
  <rect x="14" y="20" width="4" height="1" fill="#1a1a2e"/>
  <!-- Head (huge helmet) -->
  <rect x="8" y="4" width="16" height="12" fill="#3a3a4a"/>
  <rect x="6" y="6" width="20" height="8" fill="#2a2a3a"/>
  <!-- Crown/horns -->
  <rect x="6" y="2" width="4" height="6" fill="#c0392b"/>
  <rect x="22" y="2" width="4" height="6" fill="#c0392b"/>
  <rect x="8" y="0" width="3" height="4" fill="#922b21"/>
  <rect x="21" y="0" width="3" height="4" fill="#922b21"/>
  <rect x="12" y="1" width="8" height="3" fill="#f4d03f"/>
  <rect x="14" y="0" width="4" height="2" fill="#f9e79f"/>
  <!-- Glowing eyes -->
  <rect x="10" y="8" width="4" height="2" fill="#e74c3c"/>
  <rect x="18" y="8" width="4" height="2" fill="#e74c3c"/>
  <rect x="11" y="8" width="2" height="1" fill="#f4d03f"/>
  <rect x="19" y="8" width="2" height="1" fill="#f4d03f"/>
  <!-- Mouth/jaw -->
  <rect x="12" y="12" width="8" height="2" fill="#1a1a2e"/>
  <rect x="13" y="12" width="1" height="1" fill="#eaeaea"/>
  <rect x="15" y="12" width="2" height="1" fill="#eaeaea"/>
  <rect x="18" y="12" width="1" height="1" fill="#eaeaea"/>
  <!-- Massive weapon -->
  <rect x="26" y="6" width="4" height="20" fill="#5c3d2e"/>
  <rect x="24" y="4" width="8" height="6" fill="#4a4a5a"/>
  <rect x="24" y="2" width="8" height="4" fill="#c0392b"/>
  <!-- Shield arm -->
  <rect x="0" y="10" width="6" height="14" fill="#4a4a5a"/>
  <rect x="0" y="12" width="4" height="10" fill="#c0392b"/>
  <rect x="1" y="14" width="2" height="6" fill="#f4d03f"/>
  <!-- Legs -->
  <rect x="8" y="26" width="6" height="6" fill="#2a2a3a"/>
  <rect x="18" y="26" width="6" height="6" fill="#2a2a3a"/>
</svg>
