<svg xmlns="http://www.w3.org/2000/svg" viewBox="0 0 32 32" width="32" height="32">
  <!-- Rain Effect (32x32) - Tileable rain drops -->

  <!-- Rain drops - scattered pattern -->
  <rect x="2" y="0" width="1" height="4" fill="#5dade2"/>
  <rect x="8" y="3" width="1" height="4" fill="#5dade2"/>
  <rect x="15" y="1" width="1" height="4" fill="#5dade2"/>
  <rect x="22" y="4" width="1" height="4" fill="#5dade2"/>
  <rect x="28" y="2" width="1" height="4" fill="#5dade2"/>

  <rect x="5" y="10" width="1" height="4" fill="#85c1e9"/>
  <rect x="12" y="8" width="1" height="4" fill="#85c1e9"/>
  <rect x="18" y="11" width="1" height="4" fill="#85c1e9"/>
  <rect x="25" y="9" width="1" height="4" fill="#85c1e9"/>
  <rect x="30" y="12" width="1" height="4" fill="#85c1e9"/>

  <rect x="3" y="18" width="1" height="4" fill="#5dade2"/>
  <rect x="10" y="16" width="1" height="4" fill="#5dade2"/>
  <rect x="16" y="19" width="1" height="4" fill="#5dade2"/>
  <rect x="23" y="17" width="1" height="4" fill="#5dade2"/>
  <rect x="29" y="20" width="1" height="4" fill="#5dade2"/>

  <rect x="6" y="26" width="1" height="4" fill="#85c1e9"/>
  <rect x="13" y="24" width="1" height="4" fill="#85c1e9"/>
  <rect x="20" y="27" width="1" height="4" fill="#85c1e9"/>
  <rect x="27" y="25" width="1" height="4" fill="#85c1e9"/>
  <rect x="1" y="28" width="1" height="4" fill="#85c1e9"/>
</svg>
