<svg xmlns="http://www.w3.org/2000/svg" viewBox="0 0 64 24" width="64" height="24">
  <!-- Hero Typing Animation (64x24) - 4 frame typing animation -->

  <!-- Frame 1: Left hand up -->
  <rect x="3" y="8" width="2" height="12" fill="#2980b9"/>
  <rect x="11" y="8" width="2" height="12" fill="#2980b9"/>
  <rect x="5" y="8" width="6" height="10" fill="#5d6d7e"/>
  <rect x="6" y="9" width="4" height="8" fill="#7f8c8d"/>
  <rect x="5" y="2" width="6" height="7" fill="#f5cba7"/>
  <rect x="5" y="1" width="6" height="3" fill="#5d4e37"/>
  <rect x="2" y="10" width="3" height="4" fill="#f5cba7"/>
  <rect x="11" y="12" width="3" height="4" fill="#f5cba7"/>
  <rect x="5" y="18" width="2" height="4" fill="#34495e"/>
  <rect x="9" y="18" width="2" height="4" fill="#34495e"/>

  <!-- Frame 2: Right hand up -->
  <rect x="19" y="8" width="2" height="12" fill="#2980b9"/>
  <rect x="27" y="8" width="2" height="12" fill="#2980b9"/>
  <rect x="21" y="8" width="6" height="10" fill="#5d6d7e"/>
  <rect x="22" y="9" width="4" height="8" fill="#7f8c8d"/>
  <rect x="21" y="2" width="6" height="7" fill="#f5cba7"/>
  <rect x="21" y="1" width="6" height="3" fill="#5d4e37"/>
  <rect x="18" y="12" width="3" height="4" fill="#f5cba7"/>
  <rect x="27" y="10" width="3" height="4" fill="#f5cba7"/>
  <rect x="21" y="18" width="2" height="4" fill="#34495e"/>
  <rect x="25" y="18" width="2" height="4" fill="#34495e"/>

  <!-- Frame 3: Both hands mid -->
  <rect x="35" y="8" width="2" height="12" fill="#2980b9"/>
  <rect x="43" y="8" width="2" height="12" fill="#2980b9"/>
  <rect x="37" y="8" width="6" height="10" fill="#5d6d7e"/>
  <rect x="38" y="9" width="4" height="8" fill="#7f8c8d"/>
  <rect x="37" y="2" width="6" height="7" fill="#f5cba7"/>
  <rect x="37" y="1" width="6" height="3" fill="#5d4e37"/>
  <rect x="34" y="11" width="3" height="4" fill="#f5cba7"/>
  <rect x="43" y="11" width="3" height="4" fill="#f5cba7"/>
  <rect x="37" y="18" width="2" height="4" fill="#34495e"/>
  <rect x="41" y="18" width="2" height="4" fill="#34495e"/>

  <!-- Frame 4: Left hand down, right up -->
  <rect x="51" y="8" width="2" height="12" fill="#2980b9"/>
  <rect x="59" y="8" width="2" height="12" fill="#2980b9"/>
  <rect x="53" y="8" width="6" height="10" fill="#5d6d7e"/>
  <rect x="54" y="9" width="4" height="8" fill="#7f8c8d"/>
  <rect x="53" y="2" width="6" height="7" fill="#f5cba7"/>
  <rect x="53" y="1" width="6" height="3" fill="#5d4e37"/>
  <rect x="50" y="13" width="3" height="4" fill="#f5cba7"/>
  <rect x="59" y="9" width="3" height="4" fill="#f5cba7"/>
  <rect x="53" y="18" width="2" height="4" fill="#34495e"/>
  <rect x="57" y="18" width="2" height="4" fill="#34495e"/>
</svg>
