<svg xmlns="http://www.w3.org/2000/svg" viewBox="0 0 32 32" width="32" height="32">
  <!-- Lyra - Mentor/Guide NPC (32x32 portrait) -->
  <!-- Background circle -->
  <rect x="2" y="2" width="28" height="28" fill="#1a1a2e"/>
  <rect x="4" y="4" width="24" height="24" fill="#16213e"/>
  <!-- Hair -->
  <rect x="6" y="4" width="20" height="8" fill="#9b59b6"/>
  <rect x="4" y="8" width="24" height="10" fill="#8e44ad"/>
  <rect x="6" y="6" width="18" height="4" fill="#d7bde2"/>
  <!-- Face -->
  <rect x="8" y="10" width="16" height="14" fill="#f5cba7"/>
  <rect x="10" y="8" width="12" height="4" fill="#f5cba7"/>
  <!-- Eyes -->
  <rect x="10" y="14" width="4" height="4" fill="#fff"/>
  <rect x="18" y="14" width="4" height="4" fill="#fff"/>
  <rect x="11" y="15" width="2" height="2" fill="#3498db"/>
  <rect x="19" y="15" width="2" height="2" fill="#3498db"/>
  <rect x="12" y="15" width="1" height="1" fill="#1a1a2e"/>
  <rect x="20" y="15" width="1" height="1" fill="#1a1a2e"/>
  <!-- Eye highlights -->
  <rect x="11" y="15" width="1" height="1" fill="#fff"/>
  <rect x="19" y="15" width="1" height="1" fill="#fff"/>
  <!-- Eyebrows -->
  <rect x="10" y="12" width="4" height="1" fill="#8e44ad"/>
  <rect x="18" y="12" width="4" height="1" fill="#8e44ad"/>
  <!-- Nose -->
  <rect x="15" y="17" width="2" height="3" fill="#e5b898"/>
  <!-- Smile -->
  <rect x="12" y="22" width="8" height="1" fill="#c0392b"/>
  <rect x="13" y="21" width="6" height="1" fill="#c0392b"/>
  <!-- Robe collar -->
  <rect x="8" y="24" width="16" height="6" fill="#3498db"/>
  <rect x="10" y="26" width="12" height="4" fill="#2980b9"/>
  <!-- Collar detail -->
  <rect x="14" y="24" width="4" height="4" fill="#f4d03f"/>
</svg>
