<svg xmlns="http://www.w3.org/2000/svg" viewBox="0 0 64 16" width="64" height="16">
  <!-- Health Pickup (64x16) - 4 frame animation, bobbing -->

  <!-- Frame 1 - base -->
  <rect x="4" y="4" width="8" height="8" fill="#27ae60"/>
  <rect x="3" y="5" width="10" height="6" fill="#27ae60"/>
  <rect x="5" y="3" width="6" height="10" fill="#27ae60"/>
  <!-- Cross -->
  <rect x="6" y="5" width="4" height="6" fill="#fdfefe"/>
  <rect x="5" y="6" width="6" height="4" fill="#fdfefe"/>
  <!-- Shine -->
  <rect x="5" y="4" width="2" height="2" fill="#58d68d"/>

  <!-- Frame 2 - up -->
  <rect x="20" y="3" width="8" height="8" fill="#27ae60"/>
  <rect x="19" y="4" width="10" height="6" fill="#27ae60"/>
  <rect x="21" y="2" width="6" height="10" fill="#27ae60"/>
  <rect x="22" y="4" width="4" height="6" fill="#fdfefe"/>
  <rect x="21" y="5" width="6" height="4" fill="#fdfefe"/>
  <rect x="21" y="3" width="2" height="2" fill="#58d68d"/>

  <!-- Frame 3 - base -->
  <rect x="36" y="4" width="8" height="8" fill="#27ae60"/>
  <rect x="35" y="5" width="10" height="6" fill="#27ae60"/>
  <rect x="37" y="3" width="6" height="10" fill="#27ae60"/>
  <rect x="38" y="5" width="4" height="6" fill="#fdfefe"/>
  <rect x="37" y="6" width="6" height="4" fill="#fdfefe"/>
  <rect x="37" y="4" width="2" height="2" fill="#58d68d"/>

  <!-- Frame 4 - down -->
  <rect x="52" y="5" width="8" height="8" fill="#27ae60"/>
  <rect x="51" y="6" width="10" height="6" fill="#27ae60"/>
  <rect x="53" y="4" width="6" height="10" fill="#27ae60"/>
  <rect x="54" y="6" width="4" height="6" fill="#fdfefe"/>
  <rect x="53" y="7" width="6" height="4" fill="#fdfefe"/>
  <rect x="53" y="5" width="2" height="2" fill="#58d68d"/>
</svg>
