<svg xmlns="http://www.w3.org/2000/svg" viewBox="0 0 64 16" width="64" height="16">
  <!-- Speed Power-up (64x16) - 4 frame animation -->
  
  <!-- Frame 1 -->
  <rect x="3" y="3" width="10" height="10" fill="#3498db"/>
  <rect x="4" y="4" width="8" height="8" fill="#5dade2"/>
  <rect x="5" y="6" width="6" height="4" fill="#fdfefe"/>
  <rect x="9" y="5" width="2" height="6" fill="#fdfefe"/>
  
  <!-- Frame 2 -->
  <rect x="19" y="3" width="10" height="10" fill="#5dade2"/>
  <rect x="20" y="4" width="8" height="8" fill="#85c1e9"/>
  <rect x="21" y="6" width="6" height="4" fill="#fdfefe"/>
  <rect x="25" y="5" width="2" height="6" fill="#fdfefe"/>
  <rect x="17" y="7" width="2" height="2" fill="#aed6f1"/>
  
  <!-- Frame 3 -->
  <rect x="35" y="3" width="10" height="10" fill="#85c1e9"/>
  <rect x="36" y="4" width="8" height="8" fill="#aed6f1"/>
  <rect x="37" y="6" width="6" height="4" fill="#fdfefe"/>
  <rect x="41" y="5" width="2" height="6" fill="#fdfefe"/>
  <rect x="33" y="6" width="2" height="1" fill="#5dade2"/>
  <rect x="33" y="9" width="2" height="1" fill="#5dade2"/>
  
  <!-- Frame 4 -->
  <rect x="51" y="3" width="10" height="10" fill="#3498db"/>
  <rect x="52" y="4" width="8" height="8" fill="#5dade2"/>
  <rect x="53" y="6" width="6" height="4" fill="#fdfefe"/>
  <rect x="57" y="5" width="2" height="6" fill="#fdfefe"/>
  <rect x="49" y="5" width="2" height="1" fill="#aed6f1"/>
  <rect x="49" y="7" width="2" height="1" fill="#aed6f1"/>
  <rect x="49" y="9" width="2" height="1" fill="#aed6f1"/>
</svg>
