<svg xmlns="http://www.w3.org/2000/svg" viewBox="0 0 80 8" width="80" height="8">
  <!-- Timer Digits 0-9 (80x8) - 10 frames, 8x8 each -->

  <!-- 0 -->
  <rect x="1" y="0" width="6" height="1" fill="#58d68d"/>
  <rect x="1" y="7" width="6" height="1" fill="#58d68d"/>
  <rect x="0" y="1" width="1" height="6" fill="#58d68d"/>
  <rect x="7" y="1" width="1" height="6" fill="#58d68d"/>

  <!-- 1 -->
  <rect x="12" y="0" width="1" height="8" fill="#58d68d"/>
  <rect x="11" y="1" width="1" height="1" fill="#58d68d"/>

  <!-- 2 -->
  <rect x="17" y="0" width="6" height="1" fill="#58d68d"/>
  <rect x="23" y="1" width="1" height="2" fill="#58d68d"/>
  <rect x="17" y="3" width="6" height="1" fill="#58d68d"/>
  <rect x="16" y="4" width="1" height="3" fill="#58d68d"/>
  <rect x="17" y="7" width="7" height="1" fill="#58d68d"/>

  <!-- 3 -->
  <rect x="25" y="0" width="6" height="1" fill="#58d68d"/>
  <rect x="31" y="1" width="1" height="6" fill="#58d68d"/>
  <rect x="25" y="3" width="6" height="1" fill="#58d68d"/>
  <rect x="25" y="7" width="6" height="1" fill="#58d68d"/>

  <!-- 4 -->
  <rect x="32" y="0" width="1" height="4" fill="#58d68d"/>
  <rect x="39" y="0" width="1" height="8" fill="#58d68d"/>
  <rect x="33" y="3" width="6" height="1" fill="#58d68d"/>

  <!-- 5 -->
  <rect x="41" y="0" width="7" height="1" fill="#58d68d"/>
  <rect x="40" y="1" width="1" height="2" fill="#58d68d"/>
  <rect x="41" y="3" width="6" height="1" fill="#58d68d"/>
  <rect x="47" y="4" width="1" height="3" fill="#58d68d"/>
  <rect x="41" y="7" width="6" height="1" fill="#58d68d"/>

  <!-- 6 -->
  <rect x="49" y="0" width="6" height="1" fill="#58d68d"/>
  <rect x="48" y="1" width="1" height="6" fill="#58d68d"/>
  <rect x="49" y="3" width="6" height="1" fill="#58d68d"/>
  <rect x="55" y="4" width="1" height="3" fill="#58d68d"/>
  <rect x="49" y="7" width="6" height="1" fill="#58d68d"/>

  <!-- 7 -->
  <rect x="56" y="0" width="8" height="1" fill="#58d68d"/>
  <rect x="63" y="1" width="1" height="7" fill="#58d68d"/>

  <!-- 8 -->
  <rect x="65" y="0" width="6" height="1" fill="#58d68d"/>
  <rect x="64" y="1" width="1" height="6" fill="#58d68d"/>
  <rect x="71" y="1" width="1" height="6" fill="#58d68d"/>
  <rect x="65" y="3" width="6" height="1" fill="#58d68d"/>
  <rect x="65" y="7" width="6" height="1" fill="#58d68d"/>

  <!-- 9 -->
  <rect x="73" y="0" width="6" height="1" fill="#58d68d"/>
  <rect x="72" y="1" width="1" height="3" fill="#58d68d"/>
  <rect x="79" y="1" width="1" height="6" fill="#58d68d"/>
  <rect x="73" y="3" width="6" height="1" fill="#58d68d"/>
  <rect x="73" y="7" width="6" height="1" fill="#58d68d"/>
</svg>
