<svg xmlns="http://www.w3.org/2000/svg" viewBox="0 0 16 16" width="16" height="16">
  <!-- Enemy Runner Death Frame 3 - Dissolve into particles -->

  <!-- Shadow (fading) -->
  <rect x="4" y="14" width="8" height="2" fill="#2a2a3a" opacity="0.5"/>

  <!-- Scattered pixels - main body remnants -->
  <rect x="4" y="12" width="2" height="2" fill="#922b21" opacity="0.8"/>
  <rect x="7" y="13" width="2" height="2" fill="#922b21" opacity="0.6"/>
  <rect x="10" y="12" width="1" height="2" fill="#922b21" opacity="0.4"/>

  <!-- Dissolve particles rising -->
  <rect x="3" y="9" width="1" height="1" fill="#c0392b" opacity="0.6"/>
  <rect x="6" y="7" width="1" height="1" fill="#c0392b" opacity="0.5"/>
  <rect x="9" y="8" width="1" height="1" fill="#922b21" opacity="0.5"/>
  <rect x="5" y="5" width="1" height="1" fill="#c0392b" opacity="0.4"/>
  <rect x="8" y="4" width="1" height="1" fill="#922b21" opacity="0.3"/>
  <rect x="11" y="6" width="1" height="1" fill="#c0392b" opacity="0.4"/>
  <rect x="2" y="7" width="1" height="1" fill="#922b21" opacity="0.3"/>
  <rect x="7" y="3" width="1" height="1" fill="#c0392b" opacity="0.2"/>
  <rect x="4" y="2" width="1" height="1" fill="#922b21" opacity="0.2"/>
  <rect x="10" y="3" width="1" height="1" fill="#c0392b" opacity="0.2"/>

  <!-- Eye remnant -->
  <rect x="8" y="6" width="1" height="1" fill="#f4d03f" opacity="0.4"/>

  <!-- Small ground debris -->
  <rect x="5" y="14" width="1" height="1" fill="#3a3a4a"/>
  <rect x="9" y="14" width="1" height="1" fill="#3a3a4a"/>
</svg>
