<svg xmlns="http://www.w3.org/2000/svg" viewBox="0 0 16 16" width="16" height="16">
  <!-- Enemy Flyer Death Frame 3 - Dissolve -->

  <!-- Shadow (fading) -->
  <rect x="5" y="14" width="6" height="2" fill="#2a2a3a" opacity="0.4"/>

  <!-- Body remnants on ground -->
  <rect x="5" y="12" width="4" height="3" fill="#922b21" opacity="0.5"/>
  <rect x="4" y="13" width="2" height="2" fill="#922b21" opacity="0.3"/>

  <!-- Wing fragments -->
  <rect x="2" y="13" width="2" height="2" fill="#6c3483" opacity="0.4"/>
  <rect x="11" y="12" width="2" height="2" fill="#6c3483" opacity="0.3"/>

  <!-- Dissolve particles rising -->
  <rect x="3" y="10" width="1" height="1" fill="#8e44ad" opacity="0.5"/>
  <rect x="6" y="8" width="1" height="1" fill="#922b21" opacity="0.5"/>
  <rect x="10" y="9" width="1" height="1" fill="#6c3483" opacity="0.4"/>
  <rect x="4" y="6" width="1" height="1" fill="#c0392b" opacity="0.4"/>
  <rect x="8" y="5" width="1" height="1" fill="#8e44ad" opacity="0.3"/>
  <rect x="12" y="6" width="1" height="1" fill="#6c3483" opacity="0.3"/>
  <rect x="2" y="5" width="1" height="1" fill="#922b21" opacity="0.2"/>
  <rect x="7" y="3" width="1" height="1" fill="#8e44ad" opacity="0.2"/>
  <rect x="5" y="2" width="1" height="1" fill="#6c3483" opacity="0.2"/>
  <rect x="10" y="2" width="1" height="1" fill="#c0392b" opacity="0.1"/>

  <!-- Eye glow fading -->
  <rect x="6" y="6" width="1" height="1" fill="#f4d03f" opacity="0.2"/>

  <!-- Ground debris -->
  <rect x="6" y="14" width="1" height="1" fill="#3a3a4a"/>
  <rect x="8" y="15" width="1" height="1" fill="#3a3a4a"/>
</svg>
