<svg xmlns="http://www.w3.org/2000/svg" viewBox="0 0 16 16" width="16" height="16">
  <!-- Enemy Brute Death Frame 4 - Dissolve -->

  <!-- Shadow (fading) -->
  <rect x="2" y="14" width="12" height="2" fill="#2a2a3a" opacity="0.4"/>

  <!-- Body remnants -->
  <rect x="3" y="13" width="3" height="2" fill="#4a4a4a" opacity="0.6"/>
  <rect x="8" y="12" width="3" height="3" fill="#4a4a4a" opacity="0.5"/>

  <!-- Armor pieces -->
  <rect x="5" y="14" width="2" height="1" fill="#5a5a5a" opacity="0.4"/>
  <rect x="11" y="13" width="2" height="1" fill="#5a5a5a" opacity="0.3"/>

  <!-- Dissolve particles -->
  <rect x="2" y="10" width="1" height="1" fill="#5a5a5a" opacity="0.5"/>
  <rect x="5" y="8" width="1" height="1" fill="#4a4a4a" opacity="0.5"/>
  <rect x="9" y="9" width="1" height="1" fill="#5a5a5a" opacity="0.4"/>
  <rect x="12" y="7" width="1" height="1" fill="#4a4a4a" opacity="0.4"/>
  <rect x="4" y="6" width="1" height="1" fill="#5a5a5a" opacity="0.3"/>
  <rect x="7" y="5" width="1" height="1" fill="#4a4a4a" opacity="0.3"/>
  <rect x="10" y="4" width="1" height="1" fill="#5a5a5a" opacity="0.2"/>
  <rect x="3" y="4" width="1" height="1" fill="#4a4a4a" opacity="0.2"/>
  <rect x="6" y="3" width="1" height="1" fill="#5a5a5a" opacity="0.2"/>
  <rect x="11" y="2" width="1" height="1" fill="#4a4a4a" opacity="0.1"/>

  <!-- Eye glow fading -->
  <rect x="6" y="7" width="1" height="1" fill="#e74c3c" opacity="0.2"/>

  <!-- Ground debris -->
  <rect x="4" y="14" width="1" height="1" fill="#3a3a4a"/>
  <rect x="10" y="14" width="1" height="1" fill="#3a3a4a"/>
  <rect x="7" y="15" width="1" height="1" fill="#5c3d2e" opacity="0.5"/>
</svg>
