<svg xmlns="http://www.w3.org/2000/svg" viewBox="0 0 16 16" width="16" height="16">
  <!-- Electric Trap (16x16) - Shock floor panel -->
  <!-- Color Palette: #f4d03f, #e67e22, #3498db, #2980b9, #7f8c8d -->

  <!-- Metal floor plate -->
  <rect x="1" y="10" width="14" height="6" fill="#7f8c8d"/>
  <rect x="2" y="11" width="12" height="4" fill="#95a5a6"/>
  <rect x="3" y="12" width="10" height="2" fill="#bdc3c7"/>

  <!-- Grid lines -->
  <rect x="5" y="11" width="1" height="4" fill="#7f8c8d"/>
  <rect x="10" y="11" width="1" height="4" fill="#7f8c8d"/>
  <rect x="2" y="13" width="12" height="1" fill="#7f8c8d"/>

  <!-- Lightning bolt 1 -->
  <rect x="3" y="4" width="2" height="2" fill="#f4d03f"/>
  <rect x="4" y="6" width="2" height="2" fill="#f4d03f"/>
  <rect x="3" y="7" width="2" height="2" fill="#fdfefe"/>
  <rect x="4" y="9" width="1" height="1" fill="#e67e22"/>

  <!-- Lightning bolt 2 (center) -->
  <rect x="7" y="2" width="2" height="2" fill="#f4d03f"/>
  <rect x="6" y="4" width="2" height="2" fill="#f4d03f"/>
  <rect x="7" y="5" width="2" height="2" fill="#fdfefe"/>
  <rect x="7" y="7" width="2" height="2" fill="#f4d03f"/>
  <rect x="6" y="8" width="2" height="2" fill="#e67e22"/>

  <!-- Lightning bolt 3 -->
  <rect x="11" y="3" width="2" height="2" fill="#f4d03f"/>
  <rect x="10" y="5" width="2" height="2" fill="#f4d03f"/>
  <rect x="11" y="6" width="2" height="2" fill="#fdfefe"/>
  <rect x="10" y="8" width="1" height="2" fill="#e67e22"/>

  <!-- Spark particles -->
  <rect x="2" y="6" width="1" height="1" fill="#5dade2"/>
  <rect x="5" y="3" width="1" height="1" fill="#5dade2"/>
  <rect x="13" y="5" width="1" height="1" fill="#5dade2"/>
  <rect x="9" y="2" width="1" height="1" fill="#fdfefe"/>
</svg>
