<svg xmlns="http://www.w3.org/2000/svg" viewBox="0 0 14 14" width="14" height="14">
  <!-- Wooden Crate (14x14) - Breakable container -->
  <!-- Color Palette: #8b7355, #5d4e37, #3d3426, #a08060 -->

  <!-- Crate body -->
  <rect x="0" y="0" width="14" height="14" fill="#8b7355"/>
  <rect x="1" y="1" width="12" height="12" fill="#5d4e37"/>

  <!-- Horizontal planks -->
  <rect x="1" y="1" width="12" height="4" fill="#8b7355"/>
  <rect x="2" y="2" width="10" height="2" fill="#5d4e37"/>

  <rect x="1" y="5" width="12" height="4" fill="#a08060"/>
  <rect x="2" y="6" width="10" height="2" fill="#8b7355"/>

  <rect x="1" y="9" width="12" height="4" fill="#8b7355"/>
  <rect x="2" y="10" width="10" height="2" fill="#5d4e37"/>

  <!-- Vertical supports -->
  <rect x="0" y="0" width="2" height="14" fill="#3d3426"/>
  <rect x="12" y="0" width="2" height="14" fill="#3d3426"/>

  <!-- Cross brace -->
  <rect x="6" y="0" width="2" height="14" fill="#3d3426"/>
  <rect x="6" y="1" width="1" height="12" fill="#5d4e37"/>

  <!-- Nails -->
  <rect x="1" y="3" width="1" height="1" fill="#7f8c8d"/>
  <rect x="12" y="3" width="1" height="1" fill="#7f8c8d"/>
  <rect x="1" y="10" width="1" height="1" fill="#7f8c8d"/>
  <rect x="12" y="10" width="1" height="1" fill="#7f8c8d"/>
</svg>
