<svg xmlns="http://www.w3.org/2000/svg" viewBox="0 0 64 16" width="64" height="16">
  <!-- Frozen Affix Overlay (64x16) - 4 frames of 16x16, ice crystals shimmer -->
  <!-- Color Palette: #3498db, #5dade2, #85c1e9, #d6eaf8 -->

  <!-- FRAME 1 -->
  <!-- Ice crystals on shoulders/head -->
  <rect x="1" y="4" width="2" height="4" fill="#3498db"/>
  <rect x="2" y="3" width="1" height="1" fill="#5dade2"/>
  <rect x="0" y="5" width="1" height="2" fill="#5dade2"/>
  <rect x="2" y="6" width="1" height="1" fill="#85c1e9"/>

  <rect x="13" y="4" width="2" height="4" fill="#3498db"/>
  <rect x="14" y="3" width="1" height="1" fill="#5dade2"/>
  <rect x="15" y="5" width="1" height="2" fill="#5dade2"/>
  <rect x="13" y="6" width="1" height="1" fill="#85c1e9"/>

  <!-- Top crystal -->
  <rect x="7" y="1" width="2" height="3" fill="#3498db"/>
  <rect x="6" y="2" width="1" height="1" fill="#5dade2"/>
  <rect x="9" y="2" width="1" height="1" fill="#5dade2"/>
  <rect x="7" y="0" width="2" height="1" fill="#d6eaf8"/>

  <!-- Frost particles -->
  <rect x="4" y="8" width="1" height="1" fill="#d6eaf8"/>
  <rect x="11" y="7" width="1" height="1" fill="#d6eaf8"/>

  <!-- FRAME 2 (shimmer) -->
  <rect x="17" y="4" width="2" height="4" fill="#3498db"/>
  <rect x="18" y="3" width="1" height="1" fill="#85c1e9"/>
  <rect x="16" y="5" width="1" height="2" fill="#5dade2"/>
  <rect x="18" y="6" width="1" height="1" fill="#d6eaf8"/>

  <rect x="29" y="4" width="2" height="4" fill="#3498db"/>
  <rect x="30" y="3" width="1" height="1" fill="#85c1e9"/>
  <rect x="31" y="5" width="1" height="2" fill="#5dade2"/>
  <rect x="29" y="6" width="1" height="1" fill="#d6eaf8"/>

  <!-- Top crystal shimmer -->
  <rect x="23" y="1" width="2" height="3" fill="#5dade2"/>
  <rect x="22" y="2" width="1" height="1" fill="#85c1e9"/>
  <rect x="25" y="2" width="1" height="1" fill="#85c1e9"/>
  <rect x="23" y="0" width="2" height="1" fill="#fdfefe"/>

  <!-- Frost particles moved -->
  <rect x="20" y="7" width="1" height="1" fill="#d6eaf8"/>
  <rect x="27" y="9" width="1" height="1" fill="#d6eaf8"/>
  <rect x="19" y="10" width="1" height="1" fill="#85c1e9"/>

  <!-- FRAME 3 -->
  <rect x="33" y="4" width="2" height="4" fill="#5dade2"/>
  <rect x="34" y="3" width="1" height="1" fill="#d6eaf8"/>
  <rect x="32" y="5" width="1" height="2" fill="#3498db"/>
  <rect x="34" y="6" width="1" height="1" fill="#85c1e9"/>

  <rect x="45" y="4" width="2" height="4" fill="#5dade2"/>
  <rect x="46" y="3" width="1" height="1" fill="#d6eaf8"/>
  <rect x="47" y="5" width="1" height="2" fill="#3498db"/>
  <rect x="45" y="6" width="1" height="1" fill="#85c1e9"/>

  <!-- Top crystal bright -->
  <rect x="39" y="1" width="2" height="3" fill="#85c1e9"/>
  <rect x="38" y="2" width="1" height="1" fill="#d6eaf8"/>
  <rect x="41" y="2" width="1" height="1" fill="#d6eaf8"/>
  <rect x="39" y="0" width="2" height="1" fill="#fdfefe"/>
  <rect x="40" y="1" width="1" height="1" fill="#fdfefe"/>

  <!-- Frost particles -->
  <rect x="36" y="9" width="1" height="1" fill="#d6eaf8"/>
  <rect x="43" y="8" width="1" height="1" fill="#d6eaf8"/>
  <rect x="35" y="6" width="1" height="1" fill="#85c1e9"/>

  <!-- FRAME 4 -->
  <rect x="49" y="4" width="2" height="4" fill="#3498db"/>
  <rect x="50" y="3" width="1" height="1" fill="#5dade2"/>
  <rect x="48" y="5" width="1" height="2" fill="#5dade2"/>
  <rect x="50" y="6" width="1" height="1" fill="#85c1e9"/>

  <rect x="61" y="4" width="2" height="4" fill="#3498db"/>
  <rect x="62" y="3" width="1" height="1" fill="#5dade2"/>
  <rect x="63" y="5" width="1" height="2" fill="#5dade2"/>
  <rect x="61" y="6" width="1" height="1" fill="#85c1e9"/>

  <!-- Top crystal -->
  <rect x="55" y="1" width="2" height="3" fill="#3498db"/>
  <rect x="54" y="2" width="1" height="1" fill="#5dade2"/>
  <rect x="57" y="2" width="1" height="1" fill="#5dade2"/>
  <rect x="55" y="0" width="2" height="1" fill="#d6eaf8"/>

  <!-- Frost particles -->
  <rect x="52" y="8" width="1" height="1" fill="#d6eaf8"/>
  <rect x="59" y="7" width="1" height="1" fill="#d6eaf8"/>
</svg>
