<svg xmlns="http://www.w3.org/2000/svg" viewBox="0 0 48 16" width="48" height="16">
  <!-- Combo Effect Animation (4 frames, 12x16 each) - Chain lightning style -->
  <!-- Color Palette: #f4d03f, #3498db, #9b59b6 -->

  <!-- Frame 1 -->
  <rect x="2" y="6" width="4" height="4" fill="#f4d03f"/>
  <rect x="6" y="7" width="4" height="2" fill="#3498db"/>

  <!-- Frame 2 -->
  <rect x="14" y="4" width="4" height="4" fill="#f4d03f"/>
  <rect x="18" y="5" width="4" height="2" fill="#3498db"/>
  <rect x="22" y="6" width="2" height="4" fill="#9b59b6"/>

  <!-- Frame 3 -->
  <rect x="26" y="2" width="4" height="4" fill="#f4d03f"/>
  <rect x="30" y="3" width="4" height="2" fill="#3498db"/>
  <rect x="34" y="4" width="2" height="4" fill="#9b59b6"/>
  <rect x="36" y="6" width="4" height="2" fill="#3498db"/>
  <rect x="30" y="8" width="4" height="4" fill="#f4d03f"/>
  <rect x="34" y="10" width="4" height="2" fill="#9b59b6"/>

  <!-- Frame 4 -->
  <rect x="40" y="3" width="3" height="3" fill="#f4d03f"/>
  <rect x="43" y="4" width="3" height="2" fill="#3498db"/>
  <rect x="41" y="8" width="4" height="4" fill="#9b59b6"/>
  <rect x="45" y="10" width="3" height="2" fill="#f4d03f"/>
</svg>
