<svg xmlns="http://www.w3.org/2000/svg" viewBox="0 0 24 12" width="24" height="12">
  <!-- Stun Stars Effect (24x12) - Dazed indicator -->
  <!-- Color Palette: #f4d03f, #e67e22, #fdfefe -->

  <!-- Star 1 -->
  <rect x="2" y="4" width="4" height="4" fill="#f4d03f"/>
  <rect x="3" y="3" width="2" height="1" fill="#f4d03f"/>
  <rect x="3" y="8" width="2" height="1" fill="#f4d03f"/>
  <rect x="1" y="5" width="1" height="2" fill="#f4d03f"/>
  <rect x="6" y="5" width="1" height="2" fill="#f4d03f"/>
  <rect x="3" y="5" width="2" height="2" fill="#fdfefe"/>

  <!-- Star 2 -->
  <rect x="10" y="2" width="4" height="4" fill="#e67e22"/>
  <rect x="11" y="1" width="2" height="1" fill="#e67e22"/>
  <rect x="11" y="6" width="2" height="1" fill="#e67e22"/>
  <rect x="9" y="3" width="1" height="2" fill="#e67e22"/>
  <rect x="14" y="3" width="1" height="2" fill="#e67e22"/>
  <rect x="11" y="3" width="2" height="2" fill="#f4d03f"/>

  <!-- Star 3 -->
  <rect x="18" y="4" width="4" height="4" fill="#f4d03f"/>
  <rect x="19" y="3" width="2" height="1" fill="#f4d03f"/>
  <rect x="19" y="8" width="2" height="1" fill="#f4d03f"/>
  <rect x="17" y="5" width="1" height="2" fill="#f4d03f"/>
  <rect x="22" y="5" width="1" height="2" fill="#f4d03f"/>
  <rect x="19" y="5" width="2" height="2" fill="#fdfefe"/>

  <!-- Sparkle dots -->
  <rect x="7" y="2" width="1" height="1" fill="#fdfefe"/>
  <rect x="8" y="7" width="1" height="1" fill="#e67e22"/>
  <rect x="15" y="6" width="1" height="1" fill="#fdfefe"/>
  <rect x="16" y="2" width="1" height="1" fill="#f4d03f"/>
</svg>
