<svg xmlns="http://www.w3.org/2000/svg" viewBox="0 0 48 12" width="48" height="12">
  <!-- Stun Effect Animation (4 frames, 12x12 each) - Stars circling -->
  <!-- Color Palette: #f4d03f, #f39c12, #ecf0f1 -->

  <!-- Frame 1 -->
  <rect x="1" y="4" width="3" height="3" fill="#f4d03f"/>
  <rect x="2" y="5" width="1" height="1" fill="#ecf0f1"/>
  <rect x="8" y="2" width="2" height="2" fill="#f39c12"/>
  <rect x="5" y="8" width="2" height="2" fill="#f4d03f"/>

  <!-- Frame 2 -->
  <rect x="14" y="2" width="3" height="3" fill="#f4d03f"/>
  <rect x="15" y="3" width="1" height="1" fill="#ecf0f1"/>
  <rect x="20" y="5" width="2" height="2" fill="#f39c12"/>
  <rect x="16" y="8" width="2" height="2" fill="#f4d03f"/>

  <!-- Frame 3 -->
  <rect x="32" y="2" width="2" height="2" fill="#f39c12"/>
  <rect x="28" y="4" width="3" height="3" fill="#f4d03f"/>
  <rect x="29" y="5" width="1" height="1" fill="#ecf0f1"/>
  <rect x="34" y="7" width="2" height="2" fill="#f4d03f"/>

  <!-- Frame 4 -->
  <rect x="40" y="3" width="2" height="2" fill="#f4d03f"/>
  <rect x="45" y="4" width="3" height="3" fill="#f4d03f"/>
  <rect x="46" y="5" width="1" height="1" fill="#ecf0f1"/>
  <rect x="42" y="8" width="2" height="2" fill="#f39c12"/>
</svg>
