<svg xmlns="http://www.w3.org/2000/svg" viewBox="0 0 48 12" width="48" height="12">
  <!-- Damage Boost Effect Animation (4 frames, 12x12 each) - Red power aura -->
  <!-- Color Palette: #e74c3c, #c0392b, #f5b7b1 -->

  <!-- Frame 1 -->
  <rect x="4" y="4" width="4" height="4" fill="#e74c3c"/>
  <rect x="5" y="5" width="2" height="2" fill="#f5b7b1"/>

  <!-- Frame 2 -->
  <rect x="15" y="3" width="6" height="6" fill="#e74c3c"/>
  <rect x="16" y="4" width="4" height="4" fill="#c0392b"/>
  <rect x="17" y="5" width="2" height="2" fill="#f5b7b1"/>
  <rect x="13" y="5" width="2" height="2" fill="#c0392b"/>
  <rect x="21" y="5" width="2" height="2" fill="#c0392b"/>

  <!-- Frame 3 -->
  <rect x="27" y="2" width="8" height="8" fill="#e74c3c"/>
  <rect x="28" y="3" width="6" height="6" fill="#c0392b"/>
  <rect x="29" y="4" width="4" height="4" fill="#e74c3c"/>
  <rect x="30" y="5" width="2" height="2" fill="#f5b7b1"/>
  <rect x="24" y="5" width="3" height="2" fill="#c0392b"/>
  <rect x="35" y="5" width="3" height="2" fill="#c0392b"/>
  <rect x="30" y="0" width="2" height="3" fill="#c0392b"/>
  <rect x="30" y="9" width="2" height="3" fill="#c0392b"/>

  <!-- Frame 4 -->
  <rect x="39" y="3" width="6" height="6" fill="#c0392b"/>
  <rect x="40" y="4" width="4" height="4" fill="#e74c3c"/>
  <rect x="41" y="5" width="2" height="2" fill="#f5b7b1"/>
</svg>
