<svg xmlns="http://www.w3.org/2000/svg" viewBox="0 0 20 24" width="20" height="24">
  <!-- Heal Effect (20x24) - Restoration sparkles -->
  <!-- Color Palette: #27ae60, #2ecc71, #82e0aa, #fdfefe -->

  <!-- Rising sparkles -->
  <rect x="4" y="20" width="2" height="2" fill="#27ae60"/>
  <rect x="4" y="18" width="2" height="2" fill="#2ecc71"/>
  <rect x="3" y="16" width="2" height="2" fill="#82e0aa"/>
  <rect x="4" y="14" width="1" height="1" fill="#fdfefe"/>

  <rect x="9" y="22" width="2" height="2" fill="#27ae60"/>
  <rect x="9" y="19" width="2" height="3" fill="#2ecc71"/>
  <rect x="9" y="16" width="2" height="3" fill="#82e0aa"/>
  <rect x="9" y="13" width="2" height="3" fill="#fdfefe"/>
  <rect x="9" y="10" width="1" height="2" fill="#82e0aa"/>

  <rect x="14" y="21" width="2" height="2" fill="#27ae60"/>
  <rect x="14" y="18" width="2" height="3" fill="#2ecc71"/>
  <rect x="15" y="15" width="2" height="3" fill="#82e0aa"/>
  <rect x="15" y="13" width="1" height="1" fill="#fdfefe"/>

  <!-- Cross symbols -->
  <rect x="1" y="10" width="4" height="2" fill="#2ecc71"/>
  <rect x="2" y="9" width="2" height="4" fill="#2ecc71"/>
  <rect x="2" y="10" width="2" height="2" fill="#fdfefe"/>

  <rect x="8" y="4" width="4" height="2" fill="#2ecc71"/>
  <rect x="9" y="3" width="2" height="4" fill="#2ecc71"/>
  <rect x="9" y="4" width="2" height="2" fill="#fdfefe"/>

  <rect x="15" y="6" width="4" height="2" fill="#2ecc71"/>
  <rect x="16" y="5" width="2" height="4" fill="#2ecc71"/>
  <rect x="16" y="6" width="2" height="2" fill="#fdfefe"/>

  <!-- Small sparkles -->
  <rect x="6" y="8" width="1" height="1" fill="#fdfefe"/>
  <rect x="12" y="6" width="1" height="1" fill="#fdfefe"/>
  <rect x="0" y="14" width="1" height="1" fill="#82e0aa"/>
  <rect x="18" y="12" width="1" height="1" fill="#82e0aa"/>
</svg>
