<svg xmlns="http://www.w3.org/2000/svg" viewBox="0 0 48 12" width="48" height="12">
  <!-- Poison Effect Animation (4 frames, 12x12 each) -->
  <!-- Color Palette: #27ae60, #1e8449, #82e0aa -->

  <!-- Frame 1 -->
  <rect x="4" y="8" width="4" height="4" fill="#27ae60"/>
  <rect x="5" y="6" width="2" height="3" fill="#1e8449"/>
  <rect x="5" y="4" width="1" height="2" fill="#82e0aa"/>

  <!-- Frame 2 -->
  <rect x="14" y="6" width="5" height="5" fill="#27ae60"/>
  <rect x="16" y="4" width="3" height="4" fill="#1e8449"/>
  <rect x="17" y="2" width="2" height="3" fill="#82e0aa"/>
  <rect x="20" y="8" width="3" height="3" fill="#27ae60"/>

  <!-- Frame 3 -->
  <rect x="26" y="4" width="6" height="6" fill="#27ae60"/>
  <rect x="28" y="2" width="4" height="5" fill="#1e8449"/>
  <rect x="29" y="0" width="2" height="3" fill="#82e0aa"/>
  <rect x="32" y="6" width="4" height="4" fill="#27ae60"/>
  <rect x="34" y="8" width="2" height="3" fill="#1e8449"/>

  <!-- Frame 4 -->
  <rect x="40" y="6" width="4" height="4" fill="#27ae60"/>
  <rect x="41" y="4" width="2" height="3" fill="#1e8449"/>
  <rect x="44" y="8" width="3" height="3" fill="#1e8449"/>
</svg>
