<svg xmlns="http://www.w3.org/2000/svg" viewBox="0 0 48 12" width="48" height="12">
  <!-- Slow Effect Animation (4 frames, 12x12 each) - Purple web/chains -->
  <!-- Color Palette: #9b59b6, #8e44ad, #d7bde2 -->

  <!-- Frame 1 -->
  <rect x="2" y="5" width="8" height="2" fill="#9b59b6"/>
  <rect x="5" y="3" width="2" height="6" fill="#8e44ad"/>
  <rect x="4" y="4" width="1" height="1" fill="#d7bde2"/>

  <!-- Frame 2 -->
  <rect x="14" y="4" width="8" height="3" fill="#9b59b6"/>
  <rect x="17" y="2" width="2" height="8" fill="#8e44ad"/>
  <rect x="14" y="5" width="2" height="1" fill="#d7bde2"/>
  <rect x="20" y="5" width="2" height="1" fill="#d7bde2"/>

  <!-- Frame 3 -->
  <rect x="26" y="3" width="10" height="4" fill="#9b59b6"/>
  <rect x="29" y="1" width="3" height="9" fill="#8e44ad"/>
  <rect x="26" y="4" width="2" height="2" fill="#d7bde2"/>
  <rect x="33" y="4" width="2" height="2" fill="#d7bde2"/>
  <rect x="30" y="5" width="1" height="1" fill="#d7bde2"/>

  <!-- Frame 4 -->
  <rect x="38" y="4" width="8" height="3" fill="#9b59b6"/>
  <rect x="41" y="2" width="2" height="7" fill="#8e44ad"/>
  <rect x="39" y="5" width="1" height="1" fill="#d7bde2"/>
  <rect x="44" y="5" width="1" height="1" fill="#d7bde2"/>
</svg>
