<svg xmlns="http://www.w3.org/2000/svg" viewBox="0 0 48 12" width="48" height="12">
  <!-- Speed Boost Effect Animation (4 frames, 12x12 each) -->
  <!-- Color Palette: #f39c12, #f4d03f, #fcf3cf -->

  <!-- Frame 1 -->
  <rect x="0" y="4" width="6" height="2" fill="#f39c12"/>
  <rect x="0" y="6" width="4" height="2" fill="#f4d03f"/>
  <rect x="4" y="3" width="4" height="1" fill="#fcf3cf"/>

  <!-- Frame 2 -->
  <rect x="12" y="3" width="8" height="2" fill="#f39c12"/>
  <rect x="12" y="5" width="6" height="2" fill="#f4d03f"/>
  <rect x="12" y="7" width="4" height="2" fill="#f39c12"/>
  <rect x="18" y="2" width="3" height="1" fill="#fcf3cf"/>

  <!-- Frame 3 -->
  <rect x="24" y="2" width="10" height="2" fill="#f39c12"/>
  <rect x="24" y="4" width="8" height="2" fill="#f4d03f"/>
  <rect x="24" y="6" width="6" height="2" fill="#f39c12"/>
  <rect x="24" y="8" width="4" height="2" fill="#f4d03f"/>
  <rect x="32" y="1" width="2" height="1" fill="#fcf3cf"/>

  <!-- Frame 4 -->
  <rect x="36" y="3" width="8" height="2" fill="#f4d03f"/>
  <rect x="36" y="5" width="6" height="2" fill="#f39c12"/>
  <rect x="36" y="7" width="4" height="2" fill="#f4d03f"/>
  <rect x="42" y="2" width="2" height="1" fill="#fcf3cf"/>
</svg>
