<svg xmlns="http://www.w3.org/2000/svg" viewBox="0 0 192 32" width="192" height="32">
  <!-- Keystroke Ripple (192x32) - 6 frames of 32x32, key press ripple effect -->
  <!-- Color Palette: #f4d03f, #f9e79f, #fdfefe -->

  <!-- FRAME 1 - Initial press -->
  <rect x="14" y="14" width="4" height="4" fill="#fdfefe"/>
  <rect x="15" y="15" width="2" height="2" fill="#f9e79f"/>

  <!-- FRAME 2 - Small ripple -->
  <rect x="44" y="12" width="8" height="8" fill="#f4d03f" opacity="0.8"/>
  <rect x="45" y="13" width="6" height="6" fill="#f9e79f" opacity="0.9"/>
  <rect x="46" y="14" width="4" height="4" fill="#fdfefe"/>

  <!-- FRAME 3 - Growing ripple -->
  <rect x="72" y="8" width="16" height="16" fill="#f4d03f" opacity="0.5"/>
  <rect x="74" y="10" width="12" height="12" fill="#f9e79f" opacity="0.6"/>
  <rect x="76" y="12" width="8" height="8" fill="#fdfefe" opacity="0.7"/>
  <rect x="78" y="14" width="4" height="4" fill="#fdfefe"/>

  <!-- FRAME 4 - Large ripple -->
  <rect x="100" y="4" width="24" height="24" fill="#f4d03f" opacity="0.3"/>
  <rect x="103" y="7" width="18" height="18" fill="#f9e79f" opacity="0.4"/>
  <rect x="106" y="10" width="12" height="12" fill="#f9e79f" opacity="0.5"/>
  <rect x="109" y="13" width="6" height="6" fill="#fdfefe" opacity="0.6"/>

  <!-- FRAME 5 - Fading ripple -->
  <rect x="132" y="2" width="28" height="28" fill="#f4d03f" opacity="0.2"/>
  <rect x="136" y="6" width="20" height="20" fill="#f9e79f" opacity="0.25"/>
  <rect x="140" y="10" width="12" height="12" fill="#f9e79f" opacity="0.3"/>

  <!-- FRAME 6 - Nearly gone -->
  <rect x="164" y="0" width="32" height="32" fill="#f4d03f" opacity="0.1"/>
  <rect x="169" y="5" width="22" height="22" fill="#f9e79f" opacity="0.15"/>
</svg>
