<svg xmlns="http://www.w3.org/2000/svg" viewBox="0 0 14 14" width="14" height="14">
  <!-- Crate (14x14) - Decoration -->
  <!-- Color Palette: #8b7355, #5d4e37, #a0522d, #c4a35a -->

  <!-- Crate body -->
  <rect x="1" y="1" width="12" height="12" fill="#8b7355"/>
  <rect x="0" y="0" width="14" height="1" fill="#5d4e37"/>
  <rect x="0" y="13" width="14" height="1" fill="#5d4e37"/>
  <rect x="0" y="0" width="1" height="14" fill="#5d4e37"/>
  <rect x="13" y="0" width="1" height="14" fill="#5d4e37"/>

  <!-- Cross planks -->
  <rect x="1" y="6" width="12" height="2" fill="#a0522d"/>
  <rect x="6" y="1" width="2" height="12" fill="#a0522d"/>

  <!-- Inner frame -->
  <rect x="2" y="2" width="4" height="4" fill="#c4a35a" opacity="0.3"/>
  <rect x="8" y="2" width="4" height="4" fill="#c4a35a" opacity="0.3"/>
  <rect x="2" y="8" width="4" height="4" fill="#c4a35a" opacity="0.3"/>
  <rect x="8" y="8" width="4" height="4" fill="#c4a35a" opacity="0.3"/>

  <!-- Nails -->
  <rect x="2" y="2" width="1" height="1" fill="#5d6d7e"/>
  <rect x="11" y="2" width="1" height="1" fill="#5d6d7e"/>
  <rect x="2" y="11" width="1" height="1" fill="#5d6d7e"/>
  <rect x="11" y="11" width="1" height="1" fill="#5d6d7e"/>
</svg>
