<svg xmlns="http://www.w3.org/2000/svg" viewBox="0 0 20 24" width="20" height="24">
  <!-- Oak Tree (20x24) - Forest environment -->
  <!-- Color Palette: #27ae60, #1e8449, #145a32, #8b7355, #5d4e37 -->

  <!-- Canopy top -->
  <rect x="6" y="0" width="8" height="4" fill="#1e8449"/>
  <rect x="7" y="1" width="6" height="2" fill="#27ae60"/>

  <!-- Canopy middle -->
  <rect x="2" y="4" width="16" height="6" fill="#1e8449"/>
  <rect x="4" y="4" width="12" height="4" fill="#27ae60"/>
  <rect x="0" y="6" width="20" height="4" fill="#145a32"/>
  <rect x="2" y="6" width="16" height="2" fill="#1e8449"/>

  <!-- Canopy lower -->
  <rect x="1" y="10" width="18" height="4" fill="#1e8449"/>
  <rect x="3" y="10" width="14" height="3" fill="#27ae60"/>
  <rect x="2" y="12" width="16" height="2" fill="#145a32"/>

  <!-- Canopy bottom -->
  <rect x="3" y="14" width="14" height="2" fill="#1e8449"/>
  <rect x="5" y="14" width="10" height="1" fill="#27ae60"/>

  <!-- Trunk -->
  <rect x="7" y="14" width="6" height="10" fill="#8b7355"/>
  <rect x="8" y="15" width="4" height="8" fill="#5d4e37"/>
  <rect x="9" y="16" width="2" height="6" fill="#8b7355"/>

  <!-- Roots -->
  <rect x="5" y="22" width="3" height="2" fill="#8b7355"/>
  <rect x="12" y="22" width="3" height="2" fill="#8b7355"/>
</svg>
