<svg xmlns="http://www.w3.org/2000/svg" viewBox="0 0 14 12" width="14" height="12">
  <!-- Laurel Wreath (14x12) - Victory crown -->
  <!-- Color Palette: #27ae60, #1e8449, #f4d03f -->

  <!-- Left branch -->
  <rect x="0" y="4" width="2" height="4" fill="#27ae60"/>
  <rect x="1" y="2" width="2" height="4" fill="#27ae60"/>
  <rect x="2" y="1" width="2" height="3" fill="#27ae60"/>
  <rect x="3" y="0" width="2" height="2" fill="#27ae60"/>
  <rect x="2" y="6" width="2" height="3" fill="#27ae60"/>
  <rect x="3" y="8" width="2" height="3" fill="#27ae60"/>

  <!-- Right branch -->
  <rect x="12" y="4" width="2" height="4" fill="#27ae60"/>
  <rect x="11" y="2" width="2" height="4" fill="#27ae60"/>
  <rect x="10" y="1" width="2" height="3" fill="#27ae60"/>
  <rect x="9" y="0" width="2" height="2" fill="#27ae60"/>
  <rect x="10" y="6" width="2" height="3" fill="#27ae60"/>
  <rect x="9" y="8" width="2" height="3" fill="#27ae60"/>

  <!-- Leaf details -->
  <rect x="1" y="3" width="1" height="2" fill="#1e8449"/>
  <rect x="12" y="3" width="1" height="2" fill="#1e8449"/>

  <!-- Ribbon tie -->
  <rect x="5" y="10" width="4" height="2" fill="#f4d03f"/>
  <rect x="6" y="10" width="2" height="1" fill="#d4ac0d"/>
</svg>
