<svg xmlns="http://www.w3.org/2000/svg" viewBox="0 0 24 32" width="24" height="32">
  <!-- Poison Tower T3 (24x32) - Plague Spire -->
  <!-- Ultimate with massive cauldron and toxic miasma -->

  <!-- Base/Foundation - corrupted ground -->
  <rect x="2" y="28" width="20" height="4" fill="#0b3d0b"/>
  <rect x="1" y="29" width="5" height="3" fill="#145a32"/>
  <rect x="2" y="30" width="3" height="2" fill="#1e8449"/>
  <rect x="3" y="31" width="2" height="1" fill="#27ae60"/>
  <rect x="18" y="28" width="5" height="4" fill="#145a32"/>
  <rect x="19" y="29" width="3" height="3" fill="#1e8449"/>
  <rect x="20" y="30" width="2" height="2" fill="#27ae60"/>

  <!-- Tower body - corrupted stone -->
  <rect x="4" y="6" width="16" height="22" fill="#0b3d0b"/>
  <rect x="5" y="7" width="14" height="20" fill="#145a32"/>
  <rect x="6" y="8" width="12" height="18" fill="#1e8449"/>

  <!-- Toxic slime channels -->
  <rect x="4" y="10" width="2" height="14" fill="#27ae60"/>
  <rect x="5" y="11" width="1" height="12" fill="#2ecc71"/>
  <rect x="5" y="12" width="1" height="10" fill="#58d68d"/>
  <rect x="18" y="12" width="2" height="14" fill="#27ae60"/>
  <rect x="18" y="13" width="1" height="12" fill="#2ecc71"/>
  <rect x="18" y="14" width="1" height="10" fill="#58d68d"/>

  <!-- Corrupted growth -->
  <rect x="8" y="10" width="4" height="3" fill="#2ecc71"/>
  <rect x="9" y="11" width="2" height="2" fill="#58d68d"/>
  <rect x="12" y="16" width="5" height="3" fill="#2ecc71"/>
  <rect x="13" y="17" width="3" height="2" fill="#58d68d"/>
  <rect x="7" y="22" width="4" height="3" fill="#2ecc71"/>

  <!-- Massive plague cauldron -->
  <rect x="3" y="0" width="18" height="8" fill="#052e16"/>
  <rect x="4" y="1" width="16" height="6" fill="#0b3d0b"/>
  <rect x="5" y="2" width="14" height="4" fill="#145a32"/>
  <rect x="6" y="3" width="12" height="2" fill="#1e8449"/>

  <!-- Intense bubbling plague -->
  <rect x="7" y="2" width="4" height="4" fill="#58d68d"/>
  <rect x="8" y="3" width="3" height="3" fill="#82e0aa"/>
  <rect x="9" y="4" width="2" height="2" fill="#abebc6"/>
  <rect x="12" y="3" width="5" height="3" fill="#58d68d"/>
  <rect x="13" y="4" width="3" height="2" fill="#82e0aa"/>
  <rect x="14" y="4" width="2" height="1" fill="#d5f5e3"/>
  <rect x="10" y="1" width="3" height="2" fill="#82e0aa"/>
  <rect x="11" y="0" width="2" height="2" fill="#abebc6"/>

  <!-- Toxic spray eruption -->
  <rect x="8" y="-4" width="2" height="4" fill="#58d68d"/>
  <rect x="9" y="-3" width="1" height="2" fill="#82e0aa"/>
  <rect x="11" y="-6" width="2" height="6" fill="#58d68d"/>
  <rect x="11" y="-5" width="1" height="4" fill="#82e0aa"/>
  <rect x="12" y="-4" width="1" height="2" fill="#abebc6"/>
  <rect x="14" y="-3" width="2" height="3" fill="#58d68d"/>
  <rect x="15" y="-2" width="1" height="2" fill="#82e0aa"/>

  <!-- Miasma cloud particles -->
  <rect x="5" y="-2" width="2" height="2" fill="#2ecc71"/>
  <rect x="6" y="-1" width="1" height="1" fill="#58d68d"/>
  <rect x="17" y="-1" width="2" height="2" fill="#2ecc71"/>
  <rect x="17" y="0" width="1" height="1" fill="#58d68d"/>
  <rect x="3" y="1" width="1" height="1" fill="#27ae60"/>
  <rect x="20" y="2" width="1" height="1" fill="#27ae60"/>

  <!-- Toxic drips from cauldron -->
  <rect x="6" y="8" width="2" height="5" fill="#58d68d"/>
  <rect x="7" y="9" width="1" height="3" fill="#82e0aa"/>
  <rect x="16" y="8" width="2" height="4" fill="#58d68d"/>
  <rect x="16" y="9" width="1" height="3" fill="#82e0aa"/>

  <!-- Window with plague glow -->
  <rect x="9" y="14" width="6" height="7" fill="#021a09"/>
  <rect x="10" y="15" width="4" height="5" fill="#145a32"/>
  <rect x="11" y="16" width="2" height="3" fill="#27ae60"/>
  <rect x="11" y="17" width="1" height="1" fill="#58d68d"/>
</svg>
