<svg xmlns="http://www.w3.org/2000/svg" viewBox="0 0 24 32" width="24" height="32">
  <!-- Support Tower T2 (24x32) - Radiant Beacon -->
  <!-- Enhanced with larger crystal and healing aura -->

  <!-- Base/Foundation - gilded stone -->
  <rect x="3" y="28" width="18" height="4" fill="#d4ac0d"/>
  <rect x="4" y="29" width="16" height="2" fill="#f4d03f"/>
  <rect x="3" y="28" width="2" height="4" fill="#f9e79f"/>
  <rect x="19" y="28" width="2" height="4" fill="#f9e79f"/>

  <!-- Tower body - white marble enhanced -->
  <rect x="6" y="8" width="12" height="20" fill="#bdc3c7"/>
  <rect x="7" y="9" width="10" height="18" fill="#d5d8dc"/>

  <!-- Column details - ornate -->
  <rect x="6" y="8" width="2" height="20" fill="#95a5a6"/>
  <rect x="7" y="9" width="1" height="18" fill="#bdc3c7"/>
  <rect x="16" y="8" width="2" height="20" fill="#95a5a6"/>
  <rect x="16" y="9" width="1" height="18" fill="#bdc3c7"/>

  <!-- Gold bands -->
  <rect x="6" y="12" width="12" height="2" fill="#d4ac0d"/>
  <rect x="7" y="12" width="10" height="1" fill="#f4d03f"/>
  <rect x="6" y="20" width="12" height="2" fill="#d4ac0d"/>
  <rect x="7" y="20" width="10" height="1" fill="#f4d03f"/>

  <!-- Platform/roof - gilded -->
  <rect x="4" y="4" width="16" height="4" fill="#d4ac0d"/>
  <rect x="5" y="5" width="14" height="2" fill="#f4d03f"/>
  <rect x="6" y="6" width="12" height="1" fill="#f9e79f"/>

  <!-- Enhanced Beacon crystal - larger -->
  <rect x="7" y="-2" width="10" height="8" fill="#2980b9"/>
  <rect x="8" y="-1" width="8" height="6" fill="#3498db"/>
  <rect x="9" y="0" width="6" height="4" fill="#5dade2"/>
  <rect x="10" y="1" width="4" height="2" fill="#85c1e9"/>
  <rect x="11" y="0" width="2" height="2" fill="#aed6f1"/>

  <!-- Enhanced healing aura rays -->
  <rect x="4" y="0" width="3" height="1" fill="#85c1e9"/>
  <rect x="5" y="1" width="2" height="1" fill="#aed6f1"/>
  <rect x="17" y="0" width="3" height="1" fill="#85c1e9"/>
  <rect x="17" y="1" width="2" height="1" fill="#aed6f1"/>
  <rect x="3" y="2" width="2" height="1" fill="#5dade2"/>
  <rect x="19" y="2" width="2" height="1" fill="#5dade2"/>
  <rect x="11" y="6" width="2" height="3" fill="#3498db"/>
  <rect x="11" y="7" width="1" height="1" fill="#5dade2"/>

  <!-- Aura particles -->
  <rect x="2" y="5" width="1" height="1" fill="#aed6f1"/>
  <rect x="21" y="4" width="1" height="1" fill="#85c1e9"/>
  <rect x="1" y="8" width="1" height="1" fill="#5dade2"/>
  <rect x="22" y="7" width="1" height="1" fill="#aed6f1"/>

  <!-- Window/arch - radiant -->
  <rect x="10" y="14" width="4" height="7" fill="#2874a6"/>
  <rect x="10" y="14" width="4" height="2" fill="#3498db"/>
  <rect x="11" y="16" width="2" height="4" fill="#5dade2"/>
  <rect x="11" y="17" width="1" height="2" fill="#85c1e9"/>
</svg>
