<svg xmlns="http://www.w3.org/2000/svg" viewBox="0 0 24 32" width="24" height="32">
  <!-- Support Tower T3 (24x32) - Divine Sanctuary -->
  <!-- Ultimate with massive beacon crystal and healing nova -->

  <!-- Base/Foundation - blessed marble -->
  <rect x="2" y="28" width="20" height="4" fill="#b7950b"/>
  <rect x="3" y="29" width="18" height="2" fill="#d4ac0d"/>
  <rect x="2" y="28" width="3" height="4" fill="#f4d03f"/>
  <rect x="19" y="28" width="3" height="4" fill="#f4d03f"/>
  <rect x="3" y="29" width="2" height="2" fill="#f9e79f"/>
  <rect x="19" y="29" width="2" height="2" fill="#f9e79f"/>

  <!-- Tower body - radiant marble -->
  <rect x="5" y="6" width="14" height="22" fill="#aeb6bf"/>
  <rect x="6" y="7" width="12" height="20" fill="#bdc3c7"/>
  <rect x="7" y="8" width="10" height="18" fill="#d5d8dc"/>

  <!-- Ornate column details -->
  <rect x="5" y="6" width="3" height="22" fill="#95a5a6"/>
  <rect x="6" y="7" width="2" height="20" fill="#aeb6bf"/>
  <rect x="7" y="8" width="1" height="18" fill="#bdc3c7"/>
  <rect x="16" y="6" width="3" height="22" fill="#95a5a6"/>
  <rect x="16" y="7" width="2" height="20" fill="#aeb6bf"/>
  <rect x="16" y="8" width="1" height="18" fill="#bdc3c7"/>

  <!-- Golden band decorations -->
  <rect x="5" y="10" width="14" height="2" fill="#d4ac0d"/>
  <rect x="6" y="10" width="12" height="1" fill="#f4d03f"/>
  <rect x="5" y="18" width="14" height="2" fill="#d4ac0d"/>
  <rect x="6" y="18" width="12" height="1" fill="#f4d03f"/>

  <!-- Platform/roof - grand gilded -->
  <rect x="3" y="2" width="18" height="4" fill="#d4ac0d"/>
  <rect x="4" y="3" width="16" height="2" fill="#f4d03f"/>
  <rect x="5" y="4" width="14" height="1" fill="#f9e79f"/>

  <!-- Massive Divine Beacon Crystal -->
  <rect x="5" y="-6" width="14" height="10" fill="#2874a6"/>
  <rect x="6" y="-5" width="12" height="8" fill="#3498db"/>
  <rect x="7" y="-4" width="10" height="6" fill="#5dade2"/>
  <rect x="8" y="-3" width="8" height="4" fill="#85c1e9"/>
  <rect x="9" y="-2" width="6" height="2" fill="#aed6f1"/>
  <rect x="10" y="-3" width="4" height="2" fill="#d6eaf8"/>
  <rect x="11" y="-4" width="2" height="2" fill="#ebf5fb"/>

  <!-- Healing aura rays - extensive -->
  <rect x="2" y="-2" width="4" height="1" fill="#5dade2"/>
  <rect x="3" y="-1" width="3" height="1" fill="#85c1e9"/>
  <rect x="4" y="0" width="2" height="1" fill="#aed6f1"/>
  <rect x="18" y="-2" width="4" height="1" fill="#5dade2"/>
  <rect x="18" y="-1" width="3" height="1" fill="#85c1e9"/>
  <rect x="18" y="0" width="2" height="1" fill="#aed6f1"/>

  <!-- Vertical rays -->
  <rect x="11" y="4" width="2" height="4" fill="#3498db"/>
  <rect x="11" y="5" width="1" height="2" fill="#5dade2"/>

  <!-- Side crystal spires -->
  <rect x="2" y="0" width="3" height="4" fill="#3498db"/>
  <rect x="3" y="1" width="2" height="3" fill="#5dade2"/>
  <rect x="3" y="2" width="1" height="2" fill="#85c1e9"/>
  <rect x="19" y="0" width="3" height="4" fill="#3498db"/>
  <rect x="19" y="1" width="2" height="3" fill="#5dade2"/>
  <rect x="20" y="2" width="1" height="2" fill="#85c1e9"/>

  <!-- Divine aura particles -->
  <rect x="0" y="4" width="1" height="1" fill="#aed6f1"/>
  <rect x="23" y="3" width="1" height="1" fill="#85c1e9"/>
  <rect x="1" y="8" width="1" height="1" fill="#5dade2"/>
  <rect x="22" y="10" width="1" height="1" fill="#aed6f1"/>
  <rect x="0" y="14" width="1" height="1" fill="#d6eaf8"/>
  <rect x="23" y="16" width="1" height="1" fill="#5dade2"/>

  <!-- Window/arch - divine radiance -->
  <rect x="10" y="12" width="4" height="7" fill="#2874a6"/>
  <rect x="10" y="12" width="4" height="2" fill="#3498db"/>
  <rect x="11" y="14" width="2" height="4" fill="#5dade2"/>
  <rect x="11" y="15" width="1" height="2" fill="#85c1e9"/>
  <rect x="11" y="16" width="1" height="1" fill="#aed6f1"/>
</svg>
