<svg xmlns="http://www.w3.org/2000/svg" viewBox="0 0 24 32" width="24" height="32">
  <!-- Ice Tower T3 (24x32) - Glacial Citadel -->
  <!-- Ultimate with massive crystal and blizzard aura -->

  <!-- Base/Foundation - frozen permafrost -->
  <rect x="2" y="28" width="20" height="4" fill="#1a5276"/>
  <rect x="3" y="29" width="18" height="2" fill="#2874a6"/>
  <rect x="2" y="29" width="3" height="3" fill="#5dade2"/>
  <rect x="19" y="29" width="3" height="3" fill="#5dade2"/>
  <rect x="3" y="30" width="2" height="2" fill="#85c1e9"/>
  <rect x="19" y="30" width="2" height="2" fill="#85c1e9"/>

  <!-- Tower body - glacial ice -->
  <rect x="4" y="4" width="16" height="24" fill="#2874a6"/>
  <rect x="5" y="5" width="14" height="22" fill="#3498db"/>
  <rect x="6" y="6" width="12" height="20" fill="#5dade2"/>

  <!-- Deep ice crystal patterns -->
  <rect x="6" y="8" width="4" height="8" fill="#85c1e9"/>
  <rect x="7" y="9" width="3" height="6" fill="#aed6f1"/>
  <rect x="8" y="10" width="2" height="4" fill="#d6eaf8"/>
  <rect x="14" y="10" width="4" height="8" fill="#85c1e9"/>
  <rect x="15" y="11" width="3" height="6" fill="#aed6f1"/>
  <rect x="16" y="12" width="2" height="4" fill="#d6eaf8"/>
  <rect x="10" y="18" width="4" height="6" fill="#85c1e9"/>
  <rect x="11" y="19" width="2" height="4" fill="#aed6f1"/>

  <!-- Massive hanging icicles -->
  <rect x="2" y="0" width="20" height="4" fill="#3498db"/>
  <rect x="3" y="1" width="18" height="2" fill="#5dade2"/>
  <rect x="3" y="4" width="2" height="6" fill="#85c1e9"/>
  <rect x="4" y="5" width="1" height="4" fill="#aed6f1"/>
  <rect x="7" y="4" width="2" height="8" fill="#aed6f1"/>
  <rect x="8" y="5" width="1" height="6" fill="#d6eaf8"/>
  <rect x="11" y="4" width="2" height="6" fill="#85c1e9"/>
  <rect x="15" y="4" width="2" height="8" fill="#aed6f1"/>
  <rect x="16" y="5" width="1" height="6" fill="#d6eaf8"/>
  <rect x="19" y="4" width="2" height="5" fill="#85c1e9"/>
  <rect x="20" y="5" width="1" height="3" fill="#aed6f1"/>

  <!-- Grand crystal spire -->
  <rect x="7" y="-6" width="10" height="8" fill="#5dade2"/>
  <rect x="8" y="-5" width="8" height="6" fill="#85c1e9"/>
  <rect x="9" y="-4" width="6" height="5" fill="#aed6f1"/>
  <rect x="10" y="-3" width="4" height="4" fill="#d6eaf8"/>
  <rect x="11" y="-4" width="2" height="3" fill="#ebf5fb"/>
  <rect x="11" y="-5" width="1" height="2" fill="#fdfefe"/>

  <!-- Crystal shards -->
  <rect x="4" y="-2" width="3" height="4" fill="#5dade2"/>
  <rect x="5" y="-1" width="2" height="3" fill="#85c1e9"/>
  <rect x="17" y="-2" width="3" height="4" fill="#5dade2"/>
  <rect x="17" y="-1" width="2" height="3" fill="#85c1e9"/>

  <!-- Frost window - brilliant -->
  <rect x="9" y="13" width="6" height="8" fill="#1a5276"/>
  <rect x="10" y="14" width="4" height="6" fill="#2874a6"/>
  <rect x="11" y="15" width="2" height="4" fill="#3498db"/>
  <rect x="11" y="16" width="1" height="2" fill="#5dade2"/>

  <!-- Blizzard aura particles -->
  <rect x="0" y="6" width="1" height="1" fill="#d6eaf8"/>
  <rect x="23" y="8" width="1" height="1" fill="#aed6f1"/>
  <rect x="1" y="12" width="1" height="1" fill="#85c1e9"/>
  <rect x="22" y="14" width="1" height="1" fill="#d6eaf8"/>
  <rect x="0" y="18" width="1" height="1" fill="#aed6f1"/>
  <rect x="23" y="20" width="1" height="1" fill="#85c1e9"/>
  <rect x="1" y="24" width="1" height="1" fill="#d6eaf8"/>
  <rect x="22" y="22" width="1" height="1" fill="#aed6f1"/>
</svg>
