<svg xmlns="http://www.w3.org/2000/svg" viewBox="0 0 24 24" width="24" height="24">
  <!-- Frozen Affix Overlay (24x24) - Ice crystals -->
  <!-- Color Palette: #3498db, #5dade2, #aed6f1, #ecf0f1 -->

  <!-- Ice crystals at corners -->
  <rect x="0" y="0" width="4" height="6" fill="#aed6f1"/>
  <rect x="2" y="4" width="2" height="4" fill="#5dade2"/>
  <rect x="0" y="2" width="2" height="2" fill="#ecf0f1"/>

  <rect x="20" y="0" width="4" height="5" fill="#aed6f1"/>
  <rect x="20" y="3" width="2" height="4" fill="#5dade2"/>
  <rect x="22" y="1" width="2" height="2" fill="#ecf0f1"/>

  <rect x="0" y="18" width="5" height="6" fill="#aed6f1"/>
  <rect x="3" y="20" width="3" height="4" fill="#5dade2"/>
  <rect x="1" y="20" width="2" height="2" fill="#ecf0f1"/>

  <rect x="19" y="19" width="5" height="5" fill="#aed6f1"/>
  <rect x="19" y="21" width="3" height="3" fill="#5dade2"/>
  <rect x="21" y="20" width="2" height="2" fill="#ecf0f1"/>

  <!-- Frost particles -->
  <rect x="10" y="2" width="2" height="2" fill="#ecf0f1"/>
  <rect x="2" y="12" width="2" height="2" fill="#ecf0f1"/>
  <rect x="20" y="10" width="2" height="2" fill="#ecf0f1"/>
</svg>
