<svg xmlns="http://www.w3.org/2000/svg" viewBox="0 0 24 24" width="24" height="24">
  <!-- Burning Affix Overlay (24x24) - Fire aura -->
  <!-- Color Palette: #e74c3c, #f39c12, #f4d03f -->

  <!-- Fire at bottom -->
  <rect x="2" y="18" width="4" height="6" fill="#e74c3c"/>
  <rect x="3" y="16" width="2" height="4" fill="#f39c12"/>
  <rect x="3" y="14" width="1" height="3" fill="#f4d03f"/>

  <rect x="8" y="20" width="3" height="4" fill="#e74c3c"/>
  <rect x="9" y="18" width="2" height="3" fill="#f39c12"/>
  <rect x="9" y="16" width="1" height="3" fill="#f4d03f"/>

  <rect x="13" y="19" width="4" height="5" fill="#e74c3c"/>
  <rect x="14" y="17" width="2" height="4" fill="#f39c12"/>
  <rect x="14" y="15" width="1" height="3" fill="#f4d03f"/>

  <rect x="18" y="18" width="4" height="6" fill="#e74c3c"/>
  <rect x="19" y="16" width="2" height="4" fill="#f39c12"/>
  <rect x="20" y="14" width="1" height="3" fill="#f4d03f"/>

  <!-- Sparks -->
  <rect x="5" y="10" width="1" height="1" fill="#f4d03f"/>
  <rect x="18" y="8" width="1" height="1" fill="#f4d03f"/>
  <rect x="12" y="12" width="1" height="1" fill="#f39c12"/>
</svg>
