<svg xmlns="http://www.w3.org/2000/svg" viewBox="0 0 128 128" width="128" height="128">
  <!-- Boss: Fen Seer - Day 15 Swamp Oracle -->
  <!-- Size: 128x128 (4x4 tiles) -->
  <!-- Color Palette: #4a0080 (deep purple), #7b2d8e (swamp purple), #2d5a27 (swamp green), #39ff14 (ghostly green), #f0f0f0 (bone white), #1a1a2e (shadow), #c4b8a0 (aged bone) -->

  <!-- Swamp mist base -->
  <ellipse cx="64" cy="120" rx="50" ry="8" fill="#2d5a27" opacity="0.6"/>
  <ellipse cx="64" cy="122" rx="45" ry="6" fill="#39ff14" opacity="0.3"/>
  <rect x="20" y="110" width="8" height="12" fill="#2d5a27" opacity="0.4"/>
  <rect x="35" y="108" width="6" height="14" fill="#2d5a27" opacity="0.5"/>
  <rect x="90" y="109" width="7" height="13" fill="#2d5a27" opacity="0.4"/>
  <rect x="100" y="111" width="5" height="11" fill="#2d5a27" opacity="0.5"/>

  <!-- Floating bone totems (left) -->
  <rect x="12" y="50" width="8" height="30" fill="#c4b8a0"/>
  <rect x="14" y="52" width="4" height="26" fill="#f0f0f0"/>
  <rect x="10" y="48" width="12" height="6" fill="#c4b8a0"/>
  <rect x="12" y="44" width="8" height="6" fill="#f0f0f0"/>
  <rect x="14" y="40" width="4" height="6" fill="#c4b8a0"/>
  <!-- Totem glow -->
  <rect x="14" y="54" width="4" height="4" fill="#39ff14" opacity="0.8"/>
  <rect x="14" y="62" width="4" height="4" fill="#39ff14" opacity="0.6"/>

  <!-- Floating bone totems (right) -->
  <rect x="108" y="55" width="8" height="28" fill="#c4b8a0"/>
  <rect x="110" y="57" width="4" height="24" fill="#f0f0f0"/>
  <rect x="106" y="53" width="12" height="6" fill="#c4b8a0"/>
  <rect x="108" y="49" width="8" height="6" fill="#f0f0f0"/>
  <rect x="110" y="45" width="4" height="6" fill="#c4b8a0"/>
  <!-- Totem glow -->
  <rect x="110" y="59" width="4" height="4" fill="#39ff14" opacity="0.8"/>
  <rect x="110" y="67" width="4" height="4" fill="#39ff14" opacity="0.6"/>

  <!-- Spectral arm (far left) -->
  <rect x="18" y="70" width="6" height="20" fill="#7b2d8e" opacity="0.6"/>
  <rect x="16" y="68" width="8" height="6" fill="#7b2d8e" opacity="0.5"/>
  <rect x="14" y="64" width="6" height="6" fill="#39ff14" opacity="0.4"/>
  <!-- Spectral hand -->
  <rect x="16" y="88" width="10" height="8" fill="#7b2d8e" opacity="0.5"/>
  <rect x="14" y="94" width="4" height="6" fill="#39ff14" opacity="0.4"/>
  <rect x="18" y="95" width="3" height="5" fill="#39ff14" opacity="0.4"/>
  <rect x="22" y="94" width="4" height="6" fill="#39ff14" opacity="0.4"/>

  <!-- Spectral arm (far right) -->
  <rect x="104" y="68" width="6" height="22" fill="#7b2d8e" opacity="0.6"/>
  <rect x="102" y="66" width="8" height="6" fill="#7b2d8e" opacity="0.5"/>
  <rect x="106" y="62" width="6" height="6" fill="#39ff14" opacity="0.4"/>
  <!-- Spectral hand -->
  <rect x="100" y="88" width="10" height="8" fill="#7b2d8e" opacity="0.5"/>
  <rect x="98" y="94" width="4" height="6" fill="#39ff14" opacity="0.4"/>
  <rect x="103" y="95" width="3" height="5" fill="#39ff14" opacity="0.4"/>
  <rect x="108" y="94" width="4" height="6" fill="#39ff14" opacity="0.4"/>

  <!-- Main robed body -->
  <rect x="40" y="60" width="48" height="60" fill="#4a0080"/>
  <rect x="44" y="64" width="40" height="52" fill="#7b2d8e"/>
  <!-- Robe details/folds -->
  <rect x="46" y="70" width="4" height="40" fill="#4a0080"/>
  <rect x="56" y="72" width="3" height="38" fill="#4a0080"/>
  <rect x="69" y="72" width="3" height="38" fill="#4a0080"/>
  <rect x="78" y="70" width="4" height="40" fill="#4a0080"/>
  <!-- Robe bottom tattered edge -->
  <rect x="40" y="116" width="8" height="6" fill="#4a0080"/>
  <rect x="52" y="118" width="6" height="4" fill="#7b2d8e"/>
  <rect x="62" y="116" width="8" height="6" fill="#4a0080"/>
  <rect x="74" y="118" width="6" height="4" fill="#7b2d8e"/>
  <rect x="82" y="116" width="6" height="6" fill="#4a0080"/>

  <!-- Spectral arm (inner left) -->
  <rect x="28" y="65" width="14" height="10" fill="#7b2d8e" opacity="0.7"/>
  <rect x="24" y="72" width="10" height="8" fill="#7b2d8e" opacity="0.6"/>
  <rect x="22" y="78" width="8" height="14" fill="#7b2d8e" opacity="0.5"/>
  <!-- Inner left hand -->
  <rect x="20" y="90" width="10" height="10" fill="#39ff14" opacity="0.5"/>
  <rect x="18" y="98" width="4" height="8" fill="#39ff14" opacity="0.4"/>
  <rect x="24" y="99" width="4" height="7" fill="#39ff14" opacity="0.4"/>

  <!-- Spectral arm (inner right) -->
  <rect x="86" y="65" width="14" height="10" fill="#7b2d8e" opacity="0.7"/>
  <rect x="94" y="72" width="10" height="8" fill="#7b2d8e" opacity="0.6"/>
  <rect x="98" y="78" width="8" height="14" fill="#7b2d8e" opacity="0.5"/>
  <!-- Inner right hand -->
  <rect x="98" y="90" width="10" height="10" fill="#39ff14" opacity="0.5"/>
  <rect x="96" y="98" width="4" height="8" fill="#39ff14" opacity="0.4"/>
  <rect x="102" y="99" width="4" height="7" fill="#39ff14" opacity="0.4"/>

  <!-- Hood -->
  <rect x="36" y="30" width="56" height="36" fill="#4a0080"/>
  <rect x="40" y="34" width="48" height="28" fill="#7b2d8e"/>
  <rect x="44" y="38" width="40" height="20" fill="#1a1a2e"/>
  <!-- Hood peak -->
  <rect x="56" y="22" width="16" height="12" fill="#4a0080"/>
  <rect x="60" y="18" width="8" height="8" fill="#4a0080"/>
  <rect x="62" y="14" width="4" height="6" fill="#7b2d8e"/>
  <!-- Hood sides -->
  <rect x="32" y="36" width="8" height="20" fill="#4a0080"/>
  <rect x="88" y="36" width="8" height="20" fill="#4a0080"/>

  <!-- Face in shadow (skull-like) -->
  <rect x="48" y="42" width="32" height="24" fill="#1a1a2e"/>
  <!-- Skull features -->
  <rect x="52" y="46" width="8" height="8" fill="#c4b8a0" opacity="0.3"/>
  <rect x="68" y="46" width="8" height="8" fill="#c4b8a0" opacity="0.3"/>
  <!-- Nose cavity -->
  <rect x="62" y="54" width="4" height="6" fill="#c4b8a0" opacity="0.2"/>
  <!-- Mouth/jaw -->
  <rect x="54" y="60" width="20" height="4" fill="#c4b8a0" opacity="0.2"/>

  <!-- Third eye (glowing) -->
  <rect x="58" y="32" width="12" height="12" fill="#39ff14"/>
  <rect x="60" y="34" width="8" height="8" fill="#7fff00"/>
  <rect x="62" y="36" width="4" height="4" fill="#ffffff"/>
  <!-- Eye glow aura -->
  <rect x="54" y="28" width="20" height="20" fill="#39ff14" opacity="0.3"/>
  <rect x="50" y="24" width="28" height="28" fill="#39ff14" opacity="0.15"/>

  <!-- Regular eyes (glowing from shadow) -->
  <rect x="52" y="46" width="6" height="6" fill="#39ff14" opacity="0.8"/>
  <rect x="54" y="48" width="2" height="2" fill="#ffffff"/>
  <rect x="70" y="46" width="6" height="6" fill="#39ff14" opacity="0.8"/>
  <rect x="72" y="48" width="2" height="2" fill="#ffffff"/>

  <!-- Magical energy wisps -->
  <rect x="30" y="40" width="4" height="4" fill="#39ff14" opacity="0.6"/>
  <rect x="26" y="36" width="3" height="3" fill="#39ff14" opacity="0.4"/>
  <rect x="94" y="42" width="4" height="4" fill="#39ff14" opacity="0.6"/>
  <rect x="100" y="38" width="3" height="3" fill="#39ff14" opacity="0.4"/>
  <rect x="48" y="20" width="3" height="3" fill="#39ff14" opacity="0.5"/>
  <rect x="78" y="18" width="3" height="3" fill="#39ff14" opacity="0.5"/>

  <!-- Chest sigil -->
  <rect x="56" y="70" width="16" height="16" fill="#4a0080"/>
  <rect x="58" y="72" width="12" height="12" fill="#39ff14" opacity="0.6"/>
  <rect x="62" y="70" width="4" height="16" fill="#39ff14" opacity="0.4"/>
  <rect x="56" y="76" width="16" height="4" fill="#39ff14" opacity="0.4"/>

  <!-- Boss outline glow -->
  <rect x="36" y="28" width="2" height="92" fill="#39ff14" opacity="0.3"/>
  <rect x="90" y="28" width="2" height="92" fill="#39ff14" opacity="0.3"/>
  <rect x="36" y="28" width="56" height="2" fill="#39ff14" opacity="0.3"/>
</svg>
