<svg xmlns="http://www.w3.org/2000/svg" viewBox="0 0 128 128" width="128" height="128">
  <!-- Boss: Sunlord (128x128) - Day 20 Sunfields Final Boss -->
  <!-- Blazing warrior king, leader of the Typhos Horde, wreathed in flames -->
  <!-- Primary: #ffd700 (royal gold), #8b0000 (blood red), #ff4500 (flame orange) -->
  <!-- Fire: #ffeb3b (yellow), #ff6b00 (deep orange), #fff176 (bright yellow) -->
  <!-- Shadow: #4a0000 (dark red), #cd7f32 (bronze), #1a1a2e (charcoal) -->

  <!-- ========== GROUND EFFECTS ========== -->
  <!-- Burning ground shadow -->
  <ellipse cx="64" cy="124" rx="44" ry="6" fill="#4a0000" opacity="0.7"/>
  <ellipse cx="64" cy="122" rx="38" ry="5" fill="#ff4500" opacity="0.3"/>
  <ellipse cx="64" cy="120" rx="30" ry="4" fill="#ffeb3b" opacity="0.2"/>

  <!-- Burning footprint effects -->
  <rect x="30" y="118" width="8" height="4" fill="#ff4500" opacity="0.5"/>
  <rect x="32" y="119" width="4" height="2" fill="#ffeb3b" opacity="0.4"/>
  <rect x="90" y="118" width="8" height="4" fill="#ff4500" opacity="0.5"/>
  <rect x="92" y="119" width="4" height="2" fill="#ffeb3b" opacity="0.4"/>

  <!-- ========== LEGS (Heavy armored greaves) ========== -->
  <!-- Left leg -->
  <rect x="32" y="86" width="18" height="34" fill="#cd7f32"/>
  <rect x="34" y="88" width="14" height="30" fill="#ffd700"/>
  <rect x="36" y="90" width="10" height="26" fill="#ffd700"/>
  <!-- Greave detail -->
  <rect x="34" y="92" width="14" height="4" fill="#8b0000"/>
  <rect x="34" y="102" width="14" height="4" fill="#8b0000"/>
  <rect x="36" y="94" width="10" height="2" fill="#ffeb3b" opacity="0.4"/>
  <!-- Left foot -->
  <rect x="28" y="116" width="24" height="8" fill="#cd7f32"/>
  <rect x="30" y="117" width="20" height="6" fill="#ffd700"/>
  <!-- Fire at feet -->
  <rect x="26" y="112" width="6" height="8" fill="#ff4500" opacity="0.7"/>
  <rect x="27" y="110" width="4" height="6" fill="#ffeb3b" opacity="0.5"/>

  <!-- Right leg -->
  <rect x="78" y="86" width="18" height="34" fill="#cd7f32"/>
  <rect x="80" y="88" width="14" height="30" fill="#ffd700"/>
  <rect x="82" y="90" width="10" height="26" fill="#ffd700"/>
  <!-- Greave detail -->
  <rect x="80" y="92" width="14" height="4" fill="#8b0000"/>
  <rect x="80" y="102" width="14" height="4" fill="#8b0000"/>
  <rect x="82" y="94" width="10" height="2" fill="#ffeb3b" opacity="0.4"/>
  <!-- Right foot -->
  <rect x="76" y="116" width="24" height="8" fill="#cd7f32"/>
  <rect x="78" y="117" width="20" height="6" fill="#ffd700"/>
  <!-- Fire at feet -->
  <rect x="96" y="112" width="6" height="8" fill="#ff4500" opacity="0.7"/>
  <rect x="97" y="110" width="4" height="6" fill="#ffeb3b" opacity="0.5"/>

  <!-- ========== CAPE / WAR BANNER ========== -->
  <!-- Cape back layer (billowing) -->
  <rect x="20" y="42" width="88" height="60" fill="#8b0000" opacity="0.8"/>
  <rect x="24" y="46" width="80" height="52" fill="#8b0000"/>
  <rect x="28" y="50" width="72" height="44" fill="#6b0000"/>
  <!-- Cape folds -->
  <rect x="32" y="52" width="4" height="40" fill="#4a0000"/>
  <rect x="48" y="50" width="4" height="44" fill="#4a0000"/>
  <rect x="76" y="50" width="4" height="44" fill="#4a0000"/>
  <rect x="92" y="52" width="4" height="40" fill="#4a0000"/>
  <!-- Cape fire edges -->
  <rect x="18" y="94" width="8" height="10" fill="#ff4500" opacity="0.6"/>
  <rect x="19" y="96" width="4" height="6" fill="#ffeb3b" opacity="0.4"/>
  <rect x="102" y="94" width="8" height="10" fill="#ff4500" opacity="0.6"/>
  <rect x="104" y="96" width="4" height="6" fill="#ffeb3b" opacity="0.4"/>

  <!-- Horde sigil on cape -->
  <rect x="54" y="60" width="20" height="20" fill="#ffd700" opacity="0.6"/>
  <rect x="58" y="64" width="12" height="12" fill="#ffeb3b" opacity="0.5"/>
  <rect x="62" y="68" width="4" height="4" fill="#fff176"/>

  <!-- ========== TORSO (Heavy plate armor) ========== -->
  <rect x="36" y="44" width="56" height="44" fill="#cd7f32"/>
  <rect x="38" y="46" width="52" height="40" fill="#ffd700"/>
  <rect x="40" y="48" width="48" height="36" fill="#ffd700"/>

  <!-- Chest plate with sun motif -->
  <rect x="44" y="50" width="40" height="30" fill="#ffeb3b"/>
  <rect x="46" y="52" width="36" height="26" fill="#ffd700"/>
  <!-- Sun emblem -->
  <rect x="54" y="56" width="20" height="16" fill="#ff4500"/>
  <rect x="56" y="58" width="16" height="12" fill="#ffeb3b"/>
  <rect x="58" y="60" width="12" height="8" fill="#fff176"/>
  <rect x="60" y="62" width="8" height="4" fill="#ffffff"/>
  <!-- Sun rays -->
  <rect x="52" y="62" width="4" height="4" fill="#ffeb3b" opacity="0.7"/>
  <rect x="72" y="62" width="4" height="4" fill="#ffeb3b" opacity="0.7"/>
  <rect x="62" y="54" width="4" height="4" fill="#ffeb3b" opacity="0.7"/>
  <rect x="62" y="70" width="4" height="4" fill="#ffeb3b" opacity="0.7"/>

  <!-- Core glow (power source) -->
  <rect x="58" y="60" width="12" height="8" fill="#ffeb3b" opacity="0.4"/>

  <!-- Belt with skulls/trophies -->
  <rect x="38" y="82" width="52" height="6" fill="#4a0000"/>
  <rect x="40" y="83" width="48" height="4" fill="#8b0000"/>
  <!-- Skull trophy -->
  <rect x="48" y="82" width="6" height="6" fill="#c4c4d4"/>
  <rect x="49" y="83" width="2" height="2" fill="#1a1a2e"/>
  <rect x="52" y="83" width="2" height="2" fill="#1a1a2e"/>
  <!-- Gold buckle -->
  <rect x="60" y="82" width="8" height="6" fill="#ffd700"/>
  <rect x="62" y="83" width="4" height="4" fill="#ffeb3b"/>

  <!-- ========== SHOULDERS / PAULDRONS ========== -->
  <!-- Left pauldron (massive) -->
  <rect x="16" y="36" width="26" height="20" fill="#cd7f32"/>
  <rect x="18" y="38" width="22" height="16" fill="#ffd700"/>
  <rect x="20" y="40" width="18" height="12" fill="#ffeb3b"/>
  <!-- Pauldron spikes -->
  <rect x="14" y="34" width="6" height="10" fill="#ffd700"/>
  <rect x="12" y="32" width="4" height="8" fill="#cd7f32"/>
  <rect x="10" y="30" width="2" height="6" fill="#8b0000"/>
  <rect x="22" y="32" width="4" height="6" fill="#ffd700"/>
  <rect x="24" y="30" width="2" height="4" fill="#ffeb3b"/>
  <!-- Fire on pauldron -->
  <rect x="16" y="32" width="8" height="6" fill="#ff4500" opacity="0.6"/>
  <rect x="18" y="30" width="4" height="4" fill="#ffeb3b" opacity="0.5"/>

  <!-- Right pauldron (massive) -->
  <rect x="86" y="36" width="26" height="20" fill="#cd7f32"/>
  <rect x="88" y="38" width="22" height="16" fill="#ffd700"/>
  <rect x="90" y="40" width="18" height="12" fill="#ffeb3b"/>
  <!-- Pauldron spikes -->
  <rect x="108" y="34" width="6" height="10" fill="#ffd700"/>
  <rect x="112" y="32" width="4" height="8" fill="#cd7f32"/>
  <rect x="116" y="30" width="2" height="6" fill="#8b0000"/>
  <rect x="102" y="32" width="4" height="6" fill="#ffd700"/>
  <rect x="102" y="30" width="2" height="4" fill="#ffeb3b"/>
  <!-- Fire on pauldron -->
  <rect x="104" y="32" width="8" height="6" fill="#ff4500" opacity="0.6"/>
  <rect x="106" y="30" width="4" height="4" fill="#ffeb3b" opacity="0.5"/>

  <!-- ========== LEFT ARM (Fist/summoning pose) ========== -->
  <rect x="10" y="50" width="14" height="28" fill="#cd7f32"/>
  <rect x="12" y="52" width="10" height="24" fill="#ffd700"/>
  <!-- Gauntlet -->
  <rect x="6" y="74" width="16" height="14" fill="#cd7f32"/>
  <rect x="8" y="76" width="12" height="10" fill="#ffd700"/>
  <rect x="10" y="78" width="8" height="6" fill="#ffeb3b"/>
  <!-- Fire around fist -->
  <rect x="4" y="72" width="6" height="10" fill="#ff4500" opacity="0.6"/>
  <rect x="5" y="70" width="4" height="6" fill="#ffeb3b" opacity="0.5"/>
  <rect x="18" y="74" width="6" height="8" fill="#ff4500" opacity="0.5"/>

  <!-- ========== RIGHT ARM (Holding sword) ========== -->
  <rect x="104" y="46" width="14" height="24" fill="#cd7f32"/>
  <rect x="106" y="48" width="10" height="20" fill="#ffd700"/>
  <!-- Sword hand gauntlet -->
  <rect x="100" y="36" width="14" height="14" fill="#cd7f32"/>
  <rect x="102" y="38" width="10" height="10" fill="#ffd700"/>
  <rect x="104" y="40" width="6" height="6" fill="#ffeb3b"/>

  <!-- ========== BURNING BLADE (Massive) ========== -->
  <!-- Hilt -->
  <rect x="94" y="38" width="8" height="20" fill="#cd7f32"/>
  <rect x="96" y="40" width="4" height="16" fill="#ffd700"/>
  <!-- Crossguard with sun design -->
  <rect x="88" y="34" width="20" height="6" fill="#ffd700"/>
  <rect x="90" y="35" width="16" height="4" fill="#ffeb3b"/>
  <rect x="96" y="34" width="4" height="6" fill="#fff176"/>

  <!-- Blade (on fire) -->
  <rect x="94" y="2" width="8" height="34" fill="#5c5c7a"/>
  <rect x="95" y="4" width="6" height="30" fill="#c4c4d4"/>
  <rect x="96" y="6" width="4" height="26" fill="#f0f0f5"/>
  <!-- Blade edge highlight -->
  <rect x="100" y="4" width="2" height="28" fill="#ffffff"/>

  <!-- Fire on blade -->
  <rect x="90" y="4" width="6" height="28" fill="#ff4500" opacity="0.8"/>
  <rect x="91" y="6" width="4" height="24" fill="#ffeb3b" opacity="0.7"/>
  <rect x="92" y="8" width="2" height="20" fill="#fff176" opacity="0.6"/>
  <rect x="100" y="4" width="6" height="28" fill="#ff4500" opacity="0.8"/>
  <rect x="102" y="6" width="4" height="24" fill="#ffeb3b" opacity="0.7"/>
  <rect x="104" y="8" width="2" height="20" fill="#fff176" opacity="0.6"/>

  <!-- Blade tip flames -->
  <rect x="92" y="0" width="12" height="6" fill="#ff4500" opacity="0.7"/>
  <rect x="94" y="0" width="8" height="4" fill="#ffeb3b" opacity="0.6"/>
  <rect x="96" y="0" width="4" height="2" fill="#fff176"/>

  <!-- ========== HEAD / HELM ========== -->
  <rect x="46" y="22" width="36" height="26" fill="#cd7f32"/>
  <rect x="48" y="24" width="32" height="22" fill="#ffd700"/>
  <rect x="50" y="26" width="28" height="18" fill="#ffd700"/>

  <!-- War helm structure -->
  <rect x="52" y="28" width="24" height="14" fill="#ffeb3b"/>
  <rect x="54" y="30" width="20" height="10" fill="#ffd700"/>

  <!-- T-shaped visor -->
  <rect x="54" y="32" width="20" height="8" fill="#4a0000"/>
  <rect x="62" y="30" width="4" height="12" fill="#4a0000"/>
  <!-- Fire glow within visor -->
  <rect x="56" y="34" width="6" height="4" fill="#ff4500"/>
  <rect x="57" y="35" width="4" height="2" fill="#ffeb3b"/>
  <rect x="66" y="34" width="6" height="4" fill="#ff4500"/>
  <rect x="67" y="35" width="4" height="2" fill="#ffeb3b"/>

  <!-- Helm decorations -->
  <rect x="48" y="24" width="4" height="6" fill="#8b0000"/>
  <rect x="76" y="24" width="4" height="6" fill="#8b0000"/>

  <!-- ========== CROWN OF FLAMES ========== -->
  <!-- Central crown structure -->
  <rect x="52" y="12" width="24" height="14" fill="#ffd700"/>
  <rect x="54" y="10" width="20" height="12" fill="#ffeb3b"/>
  <rect x="56" y="8" width="16" height="8" fill="#fff176"/>

  <!-- Flame points (5-7 flames) -->
  <!-- Flame 1 (far left) -->
  <rect x="46" y="8" width="6" height="12" fill="#ff4500"/>
  <rect x="47" y="6" width="4" height="10" fill="#ffeb3b"/>
  <rect x="48" y="4" width="2" height="6" fill="#fff176"/>
  <rect x="48" y="2" width="2" height="4" fill="#ffffff" opacity="0.8"/>

  <!-- Flame 2 -->
  <rect x="52" y="4" width="6" height="14" fill="#ff4500"/>
  <rect x="53" y="2" width="4" height="12" fill="#ffeb3b"/>
  <rect x="54" y="0" width="2" height="8" fill="#fff176"/>

  <!-- Flame 3 (center-left) -->
  <rect x="58" y="2" width="6" height="16" fill="#ff4500"/>
  <rect x="59" y="0" width="4" height="14" fill="#ffeb3b"/>
  <rect x="60" y="0" width="2" height="10" fill="#fff176"/>

  <!-- Flame 4 (center - tallest) -->
  <rect x="62" y="0" width="8" height="18" fill="#ff4500"/>
  <rect x="63" y="0" width="6" height="16" fill="#ffeb3b"/>
  <rect x="64" y="0" width="4" height="12" fill="#fff176"/>
  <rect x="65" y="0" width="2" height="8" fill="#ffffff"/>

  <!-- Flame 5 (center-right) -->
  <rect x="68" y="2" width="6" height="16" fill="#ff4500"/>
  <rect x="69" y="0" width="4" height="14" fill="#ffeb3b"/>
  <rect x="70" y="0" width="2" height="10" fill="#fff176"/>

  <!-- Flame 6 -->
  <rect x="72" y="4" width="6" height="14" fill="#ff4500"/>
  <rect x="73" y="2" width="4" height="12" fill="#ffeb3b"/>
  <rect x="74" y="0" width="2" height="8" fill="#fff176"/>

  <!-- Flame 7 (far right) -->
  <rect x="76" y="8" width="6" height="12" fill="#ff4500"/>
  <rect x="77" y="6" width="4" height="10" fill="#ffeb3b"/>
  <rect x="78" y="4" width="2" height="6" fill="#fff176"/>
  <rect x="78" y="2" width="2" height="4" fill="#ffffff" opacity="0.8"/>

  <!-- ========== FIRE AURA / HEAT EFFECTS ========== -->
  <!-- Overall fire glow -->
  <rect x="30" y="20" width="68" height="90" fill="#ff4500" opacity="0.08"/>
  <rect x="36" y="26" width="56" height="78" fill="#ffeb3b" opacity="0.06"/>

  <!-- Heat distortion particles -->
  <rect x="24" y="30" width="3" height="3" fill="#ff4500" opacity="0.5"/>
  <rect x="100" y="26" width="3" height="3" fill="#ff4500" opacity="0.5"/>
  <rect x="18" y="60" width="2" height="2" fill="#ffeb3b" opacity="0.4"/>
  <rect x="108" y="56" width="2" height="2" fill="#ffeb3b" opacity="0.4"/>
  <rect x="28" y="90" width="3" height="3" fill="#ff4500" opacity="0.45"/>
  <rect x="98" y="88" width="3" height="3" fill="#ff4500" opacity="0.45"/>

  <!-- Ember trails -->
  <rect x="40" y="16" width="2" height="2" fill="#ffeb3b" opacity="0.6"/>
  <rect x="86" y="14" width="2" height="2" fill="#ffeb3b" opacity="0.6"/>
  <rect x="52" y="8" width="2" height="2" fill="#fff176" opacity="0.5"/>
  <rect x="74" y="10" width="2" height="2" fill="#fff176" opacity="0.5"/>

  <!-- ========== OUTLINE (3px, varies with heat) ========== -->
  <!-- Dark red outline on cooler parts -->
  <rect x="30" y="86" width="2" height="34" fill="#4a0000"/>
  <rect x="96" y="86" width="2" height="34" fill="#4a0000"/>
  <rect x="28" y="118" width="26" height="2" fill="#4a0000"/>
  <rect x="74" y="118" width="26" height="2" fill="#4a0000"/>

  <!-- Orange outline on heated parts -->
  <rect x="34" y="44" width="2" height="40" fill="#8b0000"/>
  <rect x="92" y="44" width="2" height="40" fill="#8b0000"/>
  <rect x="44" y="20" width="40" height="2" fill="#8b0000"/>
</svg>
