<svg xmlns="http://www.w3.org/2000/svg" viewBox="0 0 128 128" width="128" height="128">
  <!-- Boss: Fen Seer (128x128) - Day 15 Mistfen Boss -->
  <!-- Ethereal swamp oracle, master of illusion and toxins, floating spectral form -->
  <!-- Primary: #14532d (swamp green), #9370db (mist purple), #84cc16 (toxic lime) -->
  <!-- Secondary: #0f172a (void black), #e2e8f0 (ghostly white), #6366f1 (purple haze), #134e4a (dark teal) -->

  <!-- ========== MIST POOL / GROUND EFFECT ========== -->
  <!-- Toxic mist pooling below -->
  <ellipse cx="64" cy="122" rx="50" ry="8" fill="#14532d" opacity="0.3"/>
  <ellipse cx="64" cy="120" rx="44" ry="6" fill="#9370db" opacity="0.25"/>
  <ellipse cx="58" cy="118" rx="30" ry="5" fill="#6366f1" opacity="0.2"/>
  <ellipse cx="70" cy="116" rx="24" ry="4" fill="#84cc16" opacity="0.15"/>

  <!-- ========== LOWER FORM (Dissolving mist tendrils) ========== -->
  <!-- Main mist mass -->
  <rect x="40" y="90" width="48" height="30" fill="#14532d" opacity="0.5"/>
  <rect x="44" y="92" width="40" height="26" fill="#9370db" opacity="0.4"/>
  <rect x="48" y="94" width="32" height="22" fill="#6366f1" opacity="0.35"/>

  <!-- Mist tendrils (left) -->
  <rect x="30" y="100" width="14" height="20" fill="#9370db" opacity="0.4"/>
  <rect x="26" y="106" width="10" height="16" fill="#6366f1" opacity="0.3"/>
  <rect x="22" y="112" width="8" height="10" fill="#9370db" opacity="0.2"/>
  <rect x="18" y="116" width="6" height="6" fill="#6366f1" opacity="0.15"/>
  <rect x="34" y="108" width="8" height="14" fill="#14532d" opacity="0.35"/>

  <!-- Mist tendrils (right) -->
  <rect x="84" y="100" width="14" height="20" fill="#9370db" opacity="0.4"/>
  <rect x="92" y="106" width="10" height="16" fill="#6366f1" opacity="0.3"/>
  <rect x="98" y="112" width="8" height="10" fill="#9370db" opacity="0.2"/>
  <rect x="104" y="116" width="6" height="6" fill="#6366f1" opacity="0.15"/>
  <rect x="86" y="108" width="8" height="14" fill="#14532d" opacity="0.35"/>

  <!-- Central dissolving area -->
  <rect x="52" y="96" width="24" height="20" fill="#14532d" opacity="0.45"/>
  <rect x="56" y="100" width="16" height="14" fill="#9370db" opacity="0.35"/>
  <rect x="60" y="104" width="8" height="10" fill="#6366f1" opacity="0.25"/>

  <!-- Poison drip effects -->
  <rect x="50" y="114" width="3" height="8" fill="#84cc16" opacity="0.5"/>
  <rect x="62" y="118" width="4" height="6" fill="#84cc16" opacity="0.4"/>
  <rect x="75" y="116" width="3" height="8" fill="#84cc16" opacity="0.45"/>

  <!-- ========== TORSO (Spectral robes) ========== -->
  <rect x="38" y="52" width="52" height="42" fill="#14532d" opacity="0.7"/>
  <rect x="40" y="54" width="48" height="38" fill="#14532d"/>
  <rect x="42" y="56" width="44" height="34" fill="#0a2618"/>

  <!-- Robe folds and detail -->
  <rect x="44" y="58" width="40" height="28" fill="#14532d"/>
  <rect x="46" y="60" width="36" height="24" fill="#14532d"/>
  <!-- Fold lines -->
  <rect x="50" y="60" width="2" height="24" fill="#0a2618"/>
  <rect x="60" y="58" width="2" height="28" fill="#0a2618"/>
  <rect x="70" y="60" width="2" height="24" fill="#0a2618"/>
  <rect x="78" y="62" width="2" height="20" fill="#0a2618"/>

  <!-- Corruption veins visible through fabric -->
  <rect x="48" y="64" width="1" height="16" fill="#84cc16" opacity="0.4"/>
  <rect x="54" y="62" width="1" height="18" fill="#84cc16" opacity="0.35"/>
  <rect x="72" y="64" width="1" height="14" fill="#84cc16" opacity="0.4"/>
  <rect x="80" y="66" width="1" height="12" fill="#84cc16" opacity="0.3"/>

  <!-- Central eye/third eye power source -->
  <rect x="56" y="66" width="16" height="12" fill="#0f172a"/>
  <rect x="58" y="68" width="12" height="8" fill="#14532d"/>
  <rect x="60" y="70" width="8" height="4" fill="#84cc16"/>
  <rect x="62" y="71" width="4" height="2" fill="#bef264"/>
  <!-- Third eye glow -->
  <rect x="54" y="64" width="20" height="16" fill="#84cc16" opacity="0.15"/>

  <!-- Ethereal edge transparency effect -->
  <rect x="36" y="54" width="4" height="36" fill="#9370db" opacity="0.3"/>
  <rect x="88" y="54" width="4" height="36" fill="#9370db" opacity="0.3"/>
  <rect x="34" y="58" width="4" height="28" fill="#6366f1" opacity="0.2"/>
  <rect x="90" y="58" width="4" height="28" fill="#6366f1" opacity="0.2"/>

  <!-- ========== LEFT ARM (Elongated, spindly) ========== -->
  <rect x="16" y="46" width="24" height="10" fill="#14532d" opacity="0.8"/>
  <rect x="18" y="48" width="20" height="6" fill="#14532d"/>
  <rect x="8" y="42" width="14" height="12" fill="#14532d" opacity="0.75"/>
  <rect x="10" y="44" width="10" height="8" fill="#0a2618"/>
  <!-- Mist trail from arm -->
  <rect x="4" y="44" width="8" height="8" fill="#9370db" opacity="0.4"/>
  <rect x="0" y="46" width="6" height="6" fill="#6366f1" opacity="0.25"/>

  <!-- Left hand (long spindly fingers) -->
  <rect x="2" y="36" width="10" height="10" fill="#e2e8f0" opacity="0.7"/>
  <rect x="4" y="38" width="6" height="6" fill="#e2e8f0"/>
  <!-- Fingers -->
  <rect x="0" y="30" width="2" height="8" fill="#e2e8f0" opacity="0.8"/>
  <rect x="4" y="28" width="2" height="10" fill="#e2e8f0" opacity="0.85"/>
  <rect x="8" y="30" width="2" height="8" fill="#e2e8f0" opacity="0.8"/>
  <rect x="12" y="32" width="2" height="6" fill="#e2e8f0" opacity="0.75"/>
  <!-- Finger tips glow -->
  <rect x="0" y="28" width="2" height="3" fill="#84cc16" opacity="0.6"/>
  <rect x="4" y="26" width="2" height="3" fill="#84cc16" opacity="0.7"/>
  <rect x="8" y="28" width="2" height="3" fill="#84cc16" opacity="0.6"/>

  <!-- ========== RIGHT ARM (Elongated, spindly) ========== -->
  <rect x="88" y="46" width="24" height="10" fill="#14532d" opacity="0.8"/>
  <rect x="90" y="48" width="20" height="6" fill="#14532d"/>
  <rect x="106" y="42" width="14" height="12" fill="#14532d" opacity="0.75"/>
  <rect x="108" y="44" width="10" height="8" fill="#0a2618"/>
  <!-- Mist trail from arm -->
  <rect x="116" y="44" width="8" height="8" fill="#9370db" opacity="0.4"/>
  <rect x="122" y="46" width="6" height="6" fill="#6366f1" opacity="0.25"/>

  <!-- Right hand (long spindly fingers) -->
  <rect x="116" y="36" width="10" height="10" fill="#e2e8f0" opacity="0.7"/>
  <rect x="118" y="38" width="6" height="6" fill="#e2e8f0"/>
  <!-- Fingers -->
  <rect x="114" y="32" width="2" height="6" fill="#e2e8f0" opacity="0.75"/>
  <rect x="118" y="30" width="2" height="8" fill="#e2e8f0" opacity="0.8"/>
  <rect x="122" y="28" width="2" height="10" fill="#e2e8f0" opacity="0.85"/>
  <rect x="126" y="30" width="2" height="8" fill="#e2e8f0" opacity="0.8"/>
  <!-- Finger tips glow -->
  <rect x="118" y="28" width="2" height="3" fill="#84cc16" opacity="0.6"/>
  <rect x="122" y="26" width="2" height="3" fill="#84cc16" opacity="0.7"/>
  <rect x="126" y="28" width="2" height="3" fill="#84cc16" opacity="0.6"/>

  <!-- ========== HEAD / CROWN ========== -->
  <rect x="42" y="18" width="44" height="38" fill="#14532d"/>
  <rect x="44" y="20" width="40" height="34" fill="#0a2618"/>
  <rect x="46" y="22" width="36" height="30" fill="#14532d"/>

  <!-- Hood structure -->
  <rect x="48" y="24" width="32" height="26" fill="#0a2618"/>
  <rect x="50" y="26" width="28" height="22" fill="#14532d"/>

  <!-- Crown/antler formation -->
  <rect x="44" y="8" width="8" height="16" fill="#14532d"/>
  <rect x="46" y="4" width="4" height="14" fill="#0a2618"/>
  <rect x="47" y="0" width="2" height="8" fill="#9370db" opacity="0.6"/>

  <rect x="56" y="6" width="6" height="14" fill="#14532d"/>
  <rect x="58" y="2" width="4" height="12" fill="#0a2618"/>
  <rect x="59" y="0" width="2" height="6" fill="#9370db" opacity="0.7"/>

  <rect x="66" y="6" width="6" height="14" fill="#14532d"/>
  <rect x="68" y="2" width="4" height="12" fill="#0a2618"/>
  <rect x="69" y="0" width="2" height="6" fill="#9370db" opacity="0.7"/>

  <rect x="76" y="8" width="8" height="16" fill="#14532d"/>
  <rect x="78" y="4" width="4" height="14" fill="#0a2618"/>
  <rect x="79" y="0" width="2" height="8" fill="#9370db" opacity="0.6"/>

  <!-- ========== MULTIPLE EYES ========== -->
  <!-- Main eye 1 (left) - toxic green glow -->
  <rect x="50" y="32" width="10" height="8" fill="#0f172a"/>
  <rect x="52" y="34" width="6" height="4" fill="#14532d"/>
  <rect x="54" y="35" width="3" height="2" fill="#84cc16"/>
  <rect x="55" y="35" width="1" height="2" fill="#bef264"/>
  <rect x="48" y="30" width="14" height="12" fill="#84cc16" opacity="0.2"/>

  <!-- Main eye 2 (right) - toxic green glow -->
  <rect x="68" y="32" width="10" height="8" fill="#0f172a"/>
  <rect x="70" y="34" width="6" height="4" fill="#14532d"/>
  <rect x="72" y="35" width="3" height="2" fill="#84cc16"/>
  <rect x="73" y="35" width="1" height="2" fill="#bef264"/>
  <rect x="66" y="30" width="14" height="12" fill="#84cc16" opacity="0.2"/>

  <!-- Third eye (center forehead) -->
  <rect x="60" y="26" width="8" height="6" fill="#0f172a"/>
  <rect x="62" y="27" width="4" height="4" fill="#9370db"/>
  <rect x="63" y="28" width="2" height="2" fill="#c084fc"/>
  <rect x="58" y="24" width="12" height="10" fill="#9370db" opacity="0.15"/>

  <!-- Additional illusory eyes (smaller, faint) -->
  <rect x="46" y="40" width="5" height="4" fill="#0f172a" opacity="0.7"/>
  <rect x="47" y="41" width="3" height="2" fill="#84cc16" opacity="0.5"/>

  <rect x="77" y="40" width="5" height="4" fill="#0f172a" opacity="0.7"/>
  <rect x="78" y="41" width="3" height="2" fill="#84cc16" opacity="0.5"/>

  <!-- ========== FLOATING ORBS ========== -->
  <!-- Orb 1 (upper left) -->
  <rect x="16" y="16" width="12" height="12" fill="#9370db" opacity="0.6"/>
  <rect x="18" y="18" width="8" height="8" fill="#c084fc" opacity="0.7"/>
  <rect x="20" y="20" width="4" height="4" fill="#e9d5ff"/>
  <rect x="14" y="14" width="16" height="16" fill="#9370db" opacity="0.15"/>

  <!-- Orb 2 (upper right) -->
  <rect x="100" y="16" width="12" height="12" fill="#9370db" opacity="0.6"/>
  <rect x="102" y="18" width="8" height="8" fill="#c084fc" opacity="0.7"/>
  <rect x="104" y="20" width="4" height="4" fill="#e9d5ff"/>
  <rect x="98" y="14" width="16" height="16" fill="#9370db" opacity="0.15"/>

  <!-- Orb 3 (mid left) -->
  <rect x="8" y="56" width="10" height="10" fill="#6366f1" opacity="0.6"/>
  <rect x="10" y="58" width="6" height="6" fill="#9370db" opacity="0.7"/>
  <rect x="12" y="60" width="2" height="2" fill="#e2e8f0"/>
  <rect x="6" y="54" width="14" height="14" fill="#6366f1" opacity="0.12"/>

  <!-- Orb 4 (mid right) -->
  <rect x="110" y="56" width="10" height="10" fill="#6366f1" opacity="0.6"/>
  <rect x="112" y="58" width="6" height="6" fill="#9370db" opacity="0.7"/>
  <rect x="114" y="60" width="2" height="2" fill="#e2e8f0"/>
  <rect x="108" y="54" width="14" height="14" fill="#6366f1" opacity="0.12"/>

  <!-- Orb 5 (lower left) -->
  <rect x="22" y="80" width="8" height="8" fill="#84cc16" opacity="0.5"/>
  <rect x="24" y="82" width="4" height="4" fill="#bef264" opacity="0.6"/>
  <rect x="20" y="78" width="12" height="12" fill="#84cc16" opacity="0.1"/>

  <!-- Orb 6 (lower right) -->
  <rect x="98" y="80" width="8" height="8" fill="#84cc16" opacity="0.5"/>
  <rect x="100" y="82" width="4" height="4" fill="#bef264" opacity="0.6"/>
  <rect x="96" y="78" width="12" height="12" fill="#84cc16" opacity="0.1"/>

  <!-- ========== MAGICAL RUNES/SYMBOLS (floating) ========== -->
  <rect x="28" y="36" width="4" height="6" fill="#9370db" opacity="0.5"/>
  <rect x="29" y="37" width="2" height="4" fill="#c084fc" opacity="0.6"/>

  <rect x="96" y="36" width="4" height="6" fill="#9370db" opacity="0.5"/>
  <rect x="97" y="37" width="2" height="4" fill="#c084fc" opacity="0.6"/>

  <!-- ========== ETHEREAL GLOW EFFECTS ========== -->
  <!-- Overall ethereal aura -->
  <rect x="32" y="16" width="64" height="90" fill="#9370db" opacity="0.06"/>
  <rect x="38" y="22" width="52" height="78" fill="#6366f1" opacity="0.04"/>

  <!-- Self-luminous inner glow -->
  <rect x="44" y="50" width="40" height="44" fill="#84cc16" opacity="0.05"/>
  <rect x="50" y="56" width="28" height="32" fill="#84cc16" opacity="0.08"/>

  <!-- ========== SELECTIVE OUTLINE (fades at edges) ========== -->
  <!-- Solid outline on crown -->
  <rect x="42" y="18" width="2" height="24" fill="#134e4a"/>
  <rect x="84" y="18" width="2" height="24" fill="#134e4a"/>
  <rect x="44" y="16" width="40" height="2" fill="#134e4a"/>

  <!-- Fading outline on ethereal edges (no outline on mist) -->
  <rect x="36" y="52" width="2" height="20" fill="#134e4a" opacity="0.6"/>
  <rect x="90" y="52" width="2" height="20" fill="#134e4a" opacity="0.6"/>
</svg>
