<svg xmlns="http://www.w3.org/2000/svg" viewBox="0 0 128 128" width="128" height="128">
  <!-- Boss: Sunlord - Day 20 Blazing Warrior King -->
  <!-- Size: 128x128 (4x4 tiles) -->
  <!-- Color Palette: #ffd700 (gold), #ff8c00 (dark orange), #ff4500 (orange-red), #ff0000 (red), #ffffff (white hot), #8b4513 (bronze), #1a1a2e (shadow) -->

  <!-- Ground heat shimmer / shadow -->
  <ellipse cx="64" cy="122" rx="48" ry="8" fill="#ff4500" opacity="0.4"/>
  <ellipse cx="64" cy="124" rx="40" ry="6" fill="#1a1a2e" opacity="0.5"/>

  <!-- Solar corona/halo (outer) -->
  <rect x="20" y="8" width="88" height="8" fill="#ff8c00" opacity="0.4"/>
  <rect x="12" y="14" width="104" height="6" fill="#ff8c00" opacity="0.3"/>
  <rect x="8" y="18" width="112" height="4" fill="#ffd700" opacity="0.25"/>
  <!-- Corona rays -->
  <rect x="60" y="2" width="8" height="14" fill="#ffd700" opacity="0.6"/>
  <rect x="62" y="0" width="4" height="8" fill="#ffffff" opacity="0.4"/>
  <rect x="30" y="6" width="6" height="10" fill="#ffd700" opacity="0.5"/>
  <rect x="92" y="6" width="6" height="10" fill="#ffd700" opacity="0.5"/>
  <rect x="18" y="12" width="5" height="8" fill="#ff8c00" opacity="0.4"/>
  <rect x="105" y="12" width="5" height="8" fill="#ff8c00" opacity="0.4"/>

  <!-- Burning cape (behind body) -->
  <rect x="28" y="50" width="72" height="70" fill="#ff4500"/>
  <rect x="32" y="54" width="64" height="62" fill="#ff8c00"/>
  <!-- Cape flame effects -->
  <rect x="28" y="110" width="8" height="12" fill="#ff0000"/>
  <rect x="30" y="116" width="4" height="8" fill="#ffd700"/>
  <rect x="40" y="112" width="6" height="10" fill="#ff4500"/>
  <rect x="52" y="114" width="8" height="8" fill="#ff0000"/>
  <rect x="68" y="112" width="8" height="10" fill="#ff4500"/>
  <rect x="80" y="114" width="6" height="8" fill="#ff0000"/>
  <rect x="88" y="110" width="8" height="12" fill="#ff4500"/>
  <rect x="92" y="116" width="4" height="8" fill="#ffd700"/>
  <!-- Inner cape flames -->
  <rect x="36" y="70" width="4" height="40" fill="#ffd700" opacity="0.5"/>
  <rect x="50" y="75" width="3" height="35" fill="#ffd700" opacity="0.4"/>
  <rect x="75" y="75" width="3" height="35" fill="#ffd700" opacity="0.4"/>
  <rect x="88" y="70" width="4" height="40" fill="#ffd700" opacity="0.5"/>

  <!-- Legs (armored, molten) -->
  <rect x="42" y="90" width="16" height="30" fill="#8b4513"/>
  <rect x="44" y="92" width="12" height="26" fill="#ffd700"/>
  <rect x="46" y="94" width="8" height="22" fill="#ff8c00"/>
  <!-- Left leg armor plates -->
  <rect x="42" y="95" width="16" height="4" fill="#8b4513"/>
  <rect x="42" y="105" width="16" height="4" fill="#8b4513"/>
  <!-- Left foot -->
  <rect x="40" y="118" width="20" height="6" fill="#8b4513"/>
  <rect x="42" y="120" width="16" height="4" fill="#ffd700"/>

  <rect x="70" y="90" width="16" height="30" fill="#8b4513"/>
  <rect x="72" y="92" width="12" height="26" fill="#ffd700"/>
  <rect x="74" y="94" width="8" height="22" fill="#ff8c00"/>
  <!-- Right leg armor plates -->
  <rect x="70" y="95" width="16" height="4" fill="#8b4513"/>
  <rect x="70" y="105" width="16" height="4" fill="#8b4513"/>
  <!-- Right foot -->
  <rect x="68" y="118" width="20" height="6" fill="#8b4513"/>
  <rect x="70" y="120" width="16" height="4" fill="#ffd700"/>

  <!-- Torso (armored titan) -->
  <rect x="36" y="48" width="56" height="46" fill="#8b4513"/>
  <rect x="40" y="52" width="48" height="38" fill="#ffd700"/>
  <rect x="44" y="56" width="40" height="30" fill="#ff8c00"/>
  <!-- Chest plate details -->
  <rect x="48" y="58" width="32" height="24" fill="#ffd700"/>
  <rect x="52" y="62" width="24" height="16" fill="#ffffff" opacity="0.3"/>
  <!-- Sun emblem on chest -->
  <rect x="58" y="64" width="12" height="12" fill="#ffffff"/>
  <rect x="60" y="66" width="8" height="8" fill="#ffd700"/>
  <rect x="62" y="68" width="4" height="4" fill="#ff8c00"/>
  <!-- Emblem rays -->
  <rect x="62" y="60" width="4" height="6" fill="#ffffff" opacity="0.8"/>
  <rect x="62" y="74" width="4" height="6" fill="#ffffff" opacity="0.8"/>
  <rect x="54" y="68" width="6" height="4" fill="#ffffff" opacity="0.8"/>
  <rect x="68" y="68" width="6" height="4" fill="#ffffff" opacity="0.8"/>

  <!-- Belt -->
  <rect x="38" y="86" width="52" height="8" fill="#8b4513"/>
  <rect x="42" y="88" width="44" height="4" fill="#ffd700"/>
  <!-- Belt buckle -->
  <rect x="58" y="86" width="12" height="8" fill="#ffd700"/>
  <rect x="60" y="88" width="8" height="4" fill="#ffffff"/>

  <!-- Left arm -->
  <rect x="20" y="50" width="18" height="40" fill="#8b4513"/>
  <rect x="22" y="52" width="14" height="36" fill="#ffd700"/>
  <rect x="24" y="54" width="10" height="32" fill="#ff8c00"/>
  <!-- Shoulder pauldron -->
  <rect x="16" y="46" width="24" height="12" fill="#8b4513"/>
  <rect x="18" y="48" width="20" height="8" fill="#ffd700"/>
  <rect x="20" y="50" width="16" height="4" fill="#ffffff" opacity="0.4"/>
  <!-- Left gauntlet -->
  <rect x="18" y="86" width="16" height="12" fill="#8b4513"/>
  <rect x="20" y="88" width="12" height="8" fill="#ffd700"/>
  <!-- Left hand (gripping) -->
  <rect x="16" y="96" width="18" height="10" fill="#ff8c00"/>
  <rect x="18" y="98" width="14" height="6" fill="#ffd700"/>

  <!-- Right arm (raised with sword) -->
  <rect x="90" y="40" width="18" height="36" fill="#8b4513"/>
  <rect x="92" y="42" width="14" height="32" fill="#ffd700"/>
  <rect x="94" y="44" width="10" height="28" fill="#ff8c00"/>
  <!-- Shoulder pauldron -->
  <rect x="88" y="44" width="24" height="12" fill="#8b4513"/>
  <rect x="90" y="46" width="20" height="8" fill="#ffd700"/>
  <rect x="92" y="48" width="16" height="4" fill="#ffffff" opacity="0.4"/>
  <!-- Right gauntlet -->
  <rect x="94" y="72" width="16" height="10" fill="#8b4513"/>
  <rect x="96" y="74" width="12" height="6" fill="#ffd700"/>
  <!-- Right hand -->
  <rect x="96" y="80" width="14" height="8" fill="#ff8c00"/>
  <rect x="98" y="82" width="10" height="4" fill="#ffd700"/>

  <!-- Flaming Sword -->
  <rect x="100" y="10" width="8" height="74" fill="#8b4513"/>
  <rect x="102" y="12" width="4" height="70" fill="#ffd700"/>
  <!-- Blade -->
  <rect x="98" y="4" width="12" height="50" fill="#ffd700"/>
  <rect x="100" y="6" width="8" height="46" fill="#ffffff"/>
  <rect x="102" y="8" width="4" height="42" fill="#ffd700" opacity="0.6"/>
  <!-- Blade tip -->
  <rect x="100" y="0" width="8" height="6" fill="#ffd700"/>
  <rect x="102" y="0" width="4" height="4" fill="#ffffff"/>
  <!-- Sword flames -->
  <rect x="94" y="8" width="6" height="12" fill="#ff4500" opacity="0.8"/>
  <rect x="92" y="14" width="4" height="8" fill="#ff0000" opacity="0.6"/>
  <rect x="108" y="6" width="6" height="14" fill="#ff4500" opacity="0.8"/>
  <rect x="112" y="12" width="4" height="8" fill="#ff0000" opacity="0.6"/>
  <rect x="96" y="24" width="4" height="8" fill="#ff8c00" opacity="0.7"/>
  <rect x="108" y="22" width="4" height="10" fill="#ff8c00" opacity="0.7"/>
  <!-- Crossguard -->
  <rect x="92" y="52" width="24" height="6" fill="#8b4513"/>
  <rect x="94" y="54" width="20" height="2" fill="#ffd700"/>

  <!-- Head/Helmet -->
  <rect x="44" y="20" width="40" height="32" fill="#8b4513"/>
  <rect x="48" y="24" width="32" height="24" fill="#ffd700"/>
  <rect x="52" y="28" width="24" height="16" fill="#ff8c00"/>
  <!-- Helmet visor/face -->
  <rect x="52" y="32" width="24" height="12" fill="#1a1a2e"/>
  <!-- Glowing eyes -->
  <rect x="54" y="34" width="8" height="6" fill="#ffffff"/>
  <rect x="56" y="36" width="4" height="2" fill="#ffd700"/>
  <rect x="66" y="34" width="8" height="6" fill="#ffffff"/>
  <rect x="68" y="36" width="4" height="2" fill="#ffd700"/>
  <!-- Helmet crest -->
  <rect x="58" y="14" width="12" height="10" fill="#8b4513"/>
  <rect x="60" y="10" width="8" height="8" fill="#ffd700"/>
  <rect x="62" y="6" width="4" height="6" fill="#ff4500"/>

  <!-- Crown (flaming) -->
  <rect x="40" y="18" width="48" height="8" fill="#ffd700"/>
  <rect x="44" y="14" width="40" height="6" fill="#ff8c00"/>
  <!-- Crown points with flames -->
  <rect x="44" y="8" width="6" height="10" fill="#ffd700"/>
  <rect x="46" y="4" width="2" height="6" fill="#ff4500"/>
  <rect x="56" y="6" width="6" height="12" fill="#ffd700"/>
  <rect x="58" y="2" width="2" height="6" fill="#ff4500"/>
  <rect x="66" y="6" width="6" height="12" fill="#ffd700"/>
  <rect x="68" y="2" width="2" height="6" fill="#ff4500"/>
  <rect x="78" y="8" width="6" height="10" fill="#ffd700"/>
  <rect x="80" y="4" width="2" height="6" fill="#ff4500"/>

  <!-- Fire particles / embers -->
  <rect x="24" y="30" width="4" height="4" fill="#ff4500" opacity="0.7"/>
  <rect x="18" y="40" width="3" height="3" fill="#ffd700" opacity="0.6"/>
  <rect x="106" y="28" width="4" height="4" fill="#ff4500" opacity="0.7"/>
  <rect x="114" y="36" width="3" height="3" fill="#ffd700" opacity="0.6"/>
  <rect x="32" y="60" width="3" height="3" fill="#ff0000" opacity="0.5"/>
  <rect x="94" y="58" width="3" height="3" fill="#ff0000" opacity="0.5"/>
  <rect x="50" y="100" width="4" height="4" fill="#ffd700" opacity="0.6"/>
  <rect x="76" y="98" width="4" height="4" fill="#ffd700" opacity="0.6"/>

  <!-- Molten cracks on armor -->
  <rect x="46" y="68" width="2" height="12" fill="#ff4500" opacity="0.6"/>
  <rect x="80" y="66" width="2" height="14" fill="#ff4500" opacity="0.6"/>
  <rect x="56" y="80" width="16" height="2" fill="#ff4500" opacity="0.5"/>

  <!-- Boss outline glow -->
  <rect x="34" y="18" width="2" height="104" fill="#ffd700" opacity="0.4"/>
  <rect x="92" y="18" width="2" height="104" fill="#ffd700" opacity="0.4"/>
  <rect x="34" y="18" width="60" height="2" fill="#ffd700" opacity="0.4"/>
</svg>
