<svg xmlns="http://www.w3.org/2000/svg" viewBox="0 0 128 128" width="128" height="128">
  <!-- Boss Sunlord Attack Frame 4: Recovery -->

  <!-- Ground heat/shadow (fading) -->
  <ellipse cx="64" cy="122" rx="50" ry="9" fill="#ff4500" opacity="0.4"/>
  <ellipse cx="64" cy="124" rx="42" ry="7" fill="#1a1a2e" opacity="0.5"/>

  <!-- Lingering ground flames -->
  <rect x="98" y="110" width="12" height="12" fill="#ff4500" opacity="0.5"/>
  <rect x="102" y="114" width="6" height="8" fill="#ffd700" opacity="0.4"/>

  <!-- Corona (subsiding) -->
  <rect x="16" y="6" width="96" height="10" fill="#ff8c00" opacity="0.4"/>
  <rect x="10" y="14" width="108" height="6" fill="#ff8c00" opacity="0.25"/>
  <rect x="56" y="0" width="16" height="14" fill="#ffd700" opacity="0.55"/>

  <!-- Burning cape -->
  <rect x="28" y="50" width="72" height="70" fill="#ff4500"/>
  <rect x="32" y="54" width="64" height="62" fill="#ff8c00"/>
  <rect x="28" y="108" width="10" height="14" fill="#ff0000"/>
  <rect x="50" y="112" width="10" height="10" fill="#ff0000"/>
  <rect x="68" y="110" width="10" height="12" fill="#ff4500"/>
  <rect x="88" y="108" width="10" height="14" fill="#ff0000"/>

  <!-- Legs (returning) -->
  <rect x="42" y="90" width="16" height="30" fill="#8b4513"/>
  <rect x="44" y="92" width="12" height="26" fill="#ffd700"/>
  <rect x="70" y="90" width="16" height="30" fill="#8b4513"/>
  <rect x="72" y="92" width="12" height="26" fill="#ffd700"/>

  <!-- Torso -->
  <rect x="36" y="48" width="56" height="46" fill="#8b4513"/>
  <rect x="40" y="52" width="48" height="38" fill="#ffd700"/>
  <!-- Sun emblem (fading glow) -->
  <rect x="58" y="64" width="12" height="12" fill="#ffffff"/>
  <rect x="60" y="66" width="8" height="8" fill="#ffd700"/>
  <rect x="54" y="60" width="20" height="20" fill="#ffffff" opacity="0.2"/>

  <!-- Belt -->
  <rect x="38" y="86" width="52" height="8" fill="#8b4513"/>
  <rect x="58" y="86" width="12" height="8" fill="#ffd700"/>

  <!-- Left arm -->
  <rect x="20" y="50" width="18" height="40" fill="#8b4513"/>
  <rect x="22" y="52" width="14" height="36" fill="#ffd700"/>
  <rect x="16" y="96" width="18" height="10" fill="#ff8c00"/>

  <!-- Right arm (lowering sword) -->
  <rect x="90" y="44" width="18" height="38" fill="#8b4513"/>
  <rect x="92" y="46" width="14" height="34" fill="#ffd700"/>
  <rect x="96" y="84" width="14" height="8" fill="#ff8c00"/>

  <!-- Sword (lowered) -->
  <rect x="104" y="30" width="8" height="70" fill="#8b4513"/>
  <rect x="102" y="24" width="12" height="50" fill="#ffd700"/>
  <rect x="104" y="26" width="8" height="46" fill="#ffffff"/>
  <rect x="96" y="72" width="24" height="6" fill="#8b4513"/>
  <!-- Sword flames (cooling) -->
  <rect x="98" y="26" width="6" height="12" fill="#ff4500" opacity="0.6"/>
  <rect x="112" y="24" width="6" height="14" fill="#ff4500" opacity="0.6"/>

  <!-- Head/Helmet -->
  <rect x="44" y="20" width="40" height="32" fill="#8b4513"/>
  <rect x="48" y="24" width="32" height="24" fill="#ffd700"/>
  <rect x="52" y="32" width="24" height="12" fill="#1a1a2e"/>
  <!-- Eyes -->
  <rect x="54" y="34" width="8" height="6" fill="#ffffff"/>
  <rect x="56" y="36" width="4" height="2" fill="#ffd700"/>
  <rect x="66" y="34" width="8" height="6" fill="#ffffff"/>
  <rect x="68" y="36" width="4" height="2" fill="#ffd700"/>

  <!-- Crown -->
  <rect x="40" y="18" width="48" height="8" fill="#ffd700"/>
  <rect x="44" y="6" width="6" height="16" fill="#ffd700"/>
  <rect x="56" y="4" width="6" height="18" fill="#ffd700"/>
  <rect x="66" y="4" width="6" height="18" fill="#ffd700"/>
  <rect x="78" y="6" width="6" height="16" fill="#ffd700"/>
  <!-- Crown flames (settling) -->
  <rect x="46" y="2" width="2" height="6" fill="#ff4500" opacity="0.55"/>
  <rect x="58" y="0" width="2" height="8" fill="#ff4500" opacity="0.55"/>
  <rect x="68" y="0" width="2" height="8" fill="#ff4500" opacity="0.55"/>
  <rect x="80" y="2" width="2" height="6" fill="#ff4500" opacity="0.55"/>

  <!-- Lingering particles -->
  <rect x="112" y="90" width="3" height="3" fill="#ff4500" opacity="0.4"/>
  <rect x="118" y="100" width="3" height="3" fill="#ffd700" opacity="0.35"/>
</svg>
