<svg xmlns="http://www.w3.org/2000/svg" viewBox="0 0 128 128" width="128" height="128">
  <!-- Boss Fen Seer Attack Frame 4: Recovery -->
  <ellipse cx="64" cy="120" rx="50" ry="8" fill="#2d5a27" opacity="0.55"/>
  <ellipse cx="64" cy="122" rx="45" ry="6" fill="#39ff14" opacity="0.25"/>
  
  <!-- Bone totems -->
  <rect x="12" y="46" width="8" height="32" fill="#c4b8a0"/>
  <rect x="14" y="50" width="4" height="4" fill="#39ff14" opacity="0.6"/>
  <rect x="108" y="51" width="8" height="30" fill="#c4b8a0"/>
  <rect x="110" y="55" width="4" height="4" fill="#39ff14" opacity="0.6"/>
  
  <!-- Spectral arms (relaxing) -->
  <rect x="24" y="60" width="12" height="18" fill="#7b2d8e" opacity="0.6"/>
  <rect x="22" y="76" width="10" height="16" fill="#7b2d8e" opacity="0.5"/>
  <rect x="92" y="58" width="12" height="20" fill="#7b2d8e" opacity="0.6"/>
  <rect x="98" y="76" width="10" height="16" fill="#7b2d8e" opacity="0.5"/>
  
  <!-- Hands -->
  <rect x="20" y="90" width="10" height="10" fill="#39ff14" opacity="0.45"/>
  <rect x="100" y="90" width="10" height="10" fill="#39ff14" opacity="0.45"/>
  
  <!-- Main robed body -->
  <rect x="40" y="58" width="48" height="62" fill="#4a0080"/>
  <rect x="44" y="62" width="40" height="54" fill="#7b2d8e"/>
  
  <!-- Hood -->
  <rect x="36" y="28" width="56" height="36" fill="#4a0080"/>
  <rect x="40" y="32" width="48" height="28" fill="#7b2d8e"/>
  <rect x="44" y="36" width="40" height="20" fill="#1a1a2e"/>
  <rect x="56" y="20" width="16" height="12" fill="#4a0080"/>
  
  <!-- Third eye (dimming) -->
  <rect x="58" y="30" width="12" height="12" fill="#39ff14" opacity="0.7"/>
  <rect x="60" y="32" width="8" height="8" fill="#7fff00" opacity="0.75"/>
  <rect x="62" y="34" width="4" height="4" fill="#ffffff" opacity="0.5"/>
  <rect x="54" y="26" width="20" height="20" fill="#39ff14" opacity="0.15"/>
  
  <!-- Eyes -->
  <rect x="52" y="44" width="6" height="6" fill="#39ff14" opacity="0.75"/>
  <rect x="70" y="44" width="6" height="6" fill="#39ff14" opacity="0.75"/>
  
  <!-- Chest sigil -->
  <rect x="56" y="68" width="16" height="16" fill="#4a0080"/>
  <rect x="58" y="70" width="12" height="12" fill="#39ff14" opacity="0.55"/>
  
  <!-- Lingering particles -->
  <rect x="44" y="28" width="3" height="3" fill="#39ff14" opacity="0.4"/>
  <rect x="82" y="26" width="3" height="3" fill="#39ff14" opacity="0.4"/>
</svg>
