<svg xmlns="http://www.w3.org/2000/svg" viewBox="0 0 128 128" width="128" height="128">
  <!-- Boss Fen Seer Idle Frame 3: Eye at peak, arms extended -->
  
  <!-- Swamp mist -->
  <ellipse cx="64" cy="120" rx="50" ry="8" fill="#2d5a27" opacity="0.5"/>
  <ellipse cx="64" cy="122" rx="45" ry="6" fill="#39ff14" opacity="0.3"/>
  
  <!-- Bone totems -->
  <rect x="12" y="46" width="8" height="30" fill="#c4b8a0"/>
  <rect x="14" y="50" width="4" height="4" fill="#39ff14" opacity="0.8"/>
  <rect x="14" y="58" width="4" height="4" fill="#39ff14" opacity="0.6"/>
  <rect x="14" y="66" width="4" height="4" fill="#39ff14" opacity="0.4"/>
  
  <rect x="108" y="51" width="8" height="28" fill="#c4b8a0"/>
  <rect x="110" y="55" width="4" height="4" fill="#39ff14" opacity="0.8"/>
  <rect x="110" y="63" width="4" height="4" fill="#39ff14" opacity="0.6"/>
  
  <!-- Spectral arms (outer, extended) -->
  <rect x="14" y="66" width="8" height="24" fill="#7b2d8e" opacity="0.6"/>
  <rect x="10" y="60" width="8" height="8" fill="#39ff14" opacity="0.4"/>
  <rect x="12" y="88" width="12" height="10" fill="#39ff14" opacity="0.5"/>
  <rect x="108" y="64" width="8" height="26" fill="#7b2d8e" opacity="0.6"/>
  <rect x="112" y="58" width="8" height="8" fill="#39ff14" opacity="0.4"/>
  <rect x="106" y="88" width="12" height="10" fill="#39ff14" opacity="0.5"/>
  
  <!-- Main robed body -->
  <rect x="40" y="60" width="48" height="60" fill="#4a0080"/>
  <rect x="44" y="64" width="40" height="52" fill="#7b2d8e"/>
  <rect x="46" y="70" width="4" height="40" fill="#4a0080"/>
  <rect x="78" y="70" width="4" height="40" fill="#4a0080"/>
  
  <!-- Spectral arms (inner, extended) -->
  <rect x="24" y="61" width="16" height="14" fill="#7b2d8e" opacity="0.7"/>
  <rect x="18" y="74" width="12" height="18" fill="#7b2d8e" opacity="0.6"/>
  <rect x="16" y="90" width="14" height="12" fill="#39ff14" opacity="0.5"/>
  <rect x="90" y="61" width="16" height="14" fill="#7b2d8e" opacity="0.7"/>
  <rect x="102" y="74" width="12" height="18" fill="#7b2d8e" opacity="0.6"/>
  <rect x="102" y="90" width="14" height="12" fill="#39ff14" opacity="0.5"/>
  
  <!-- Hood -->
  <rect x="36" y="30" width="56" height="36" fill="#4a0080"/>
  <rect x="40" y="34" width="48" height="28" fill="#7b2d8e"/>
  <rect x="44" y="38" width="40" height="20" fill="#1a1a2e"/>
  <rect x="56" y="22" width="16" height="12" fill="#4a0080"/>
  
  <!-- Third eye (brightest) -->
  <rect x="58" y="32" width="12" height="12" fill="#39ff14"/>
  <rect x="60" y="34" width="8" height="8" fill="#7fff00"/>
  <rect x="62" y="36" width="4" height="4" fill="#ffffff"/>
  <rect x="50" y="24" width="28" height="28" fill="#39ff14" opacity="0.25"/>
  <rect x="54" y="28" width="20" height="20" fill="#39ff14" opacity="0.15"/>
  
  <!-- Regular eyes (bright) -->
  <rect x="52" y="46" width="6" height="6" fill="#39ff14"/>
  <rect x="54" y="48" width="2" height="2" fill="#ffffff"/>
  <rect x="70" y="46" width="6" height="6" fill="#39ff14"/>
  <rect x="72" y="48" width="2" height="2" fill="#ffffff"/>
  
  <!-- Chest sigil (glowing) -->
  <rect x="56" y="70" width="16" height="16" fill="#4a0080"/>
  <rect x="58" y="72" width="12" height="12" fill="#39ff14" opacity="0.7"/>
  <rect x="62" y="70" width="4" height="16" fill="#39ff14" opacity="0.4"/>
  <rect x="56" y="76" width="16" height="4" fill="#39ff14" opacity="0.4"/>
  
  <!-- Magic wisps -->
  <rect x="28" y="38" width="4" height="4" fill="#39ff14" opacity="0.6"/>
  <rect x="96" y="40" width="4" height="4" fill="#39ff14" opacity="0.6"/>
  <rect x="48" y="20" width="3" height="3" fill="#39ff14" opacity="0.5"/>
  <rect x="78" y="18" width="3" height="3" fill="#39ff14" opacity="0.5"/>
</svg>
