<svg xmlns="http://www.w3.org/2000/svg" viewBox="0 0 128 128" width="128" height="128">
  <!-- Boss Stone Golem Attack Frame 4: Recovery -->
  <ellipse cx="64" cy="124" rx="46" ry="6" fill="#1a1a2e" opacity="0.6"/>
  
  <!-- Feet -->
  <rect x="18" y="108" width="28" height="16" fill="#3d3d5c"/>
  <rect x="84" y="108" width="28" height="16" fill="#3d3d5c"/>
  
  <!-- Legs -->
  <rect x="24" y="72" width="22" height="38" fill="#3d3d5c"/>
  <rect x="82" y="72" width="22" height="38" fill="#3d3d5c"/>
  
  <!-- Waist -->
  <rect x="38" y="66" width="52" height="12" fill="#3d3d5c"/>
  
  <!-- Torso (rising) -->
  <rect x="26" y="30" width="72" height="38" fill="#3d3d5c"/>
  <rect x="28" y="32" width="68" height="34" fill="#5c5c7a"/>
  <rect x="46" y="40" width="32" height="16" fill="#c4c4d4"/>
  
  <!-- Core dimming -->
  <rect x="52" y="44" width="20" height="12" fill="#3d3d5c"/>
  <rect x="54" y="46" width="16" height="8" fill="#1a1a2e"/>
  <rect x="56" y="47" width="12" height="6" fill="#ffd700" opacity="0.5"/>
  <rect x="58" y="48" width="8" height="4" fill="#ffd700" opacity="0.6"/>
  
  <!-- Left arm -->
  <rect x="4" y="48" width="18" height="24" fill="#3d3d5c"/>
  <rect x="0" y="88" width="16" height="14" fill="#3d3d5c"/>
  
  <!-- Right arm (recovering) -->
  <rect x="102" y="50" width="20" height="28" fill="#3d3d5c"/>
  <rect x="104" y="52" width="16" height="24" fill="#5c5c7a"/>
  <!-- Fist rising -->
  <rect x="108" y="76" width="18" height="16" fill="#3d3d5c"/>
  <rect x="110" y="78" width="14" height="12" fill="#5c5c7a"/>
  
  <!-- Shoulder crystals -->
  <rect x="6" y="24" width="14" height="16" fill="#00ffff"/>
  <rect x="106" y="36" width="16" height="16" fill="#00ffff"/>
  <rect x="108" y="34" width="12" height="12" fill="#7fffff"/>
  
  <!-- Head (rising) -->
  <rect x="44" y="8" width="36" height="24" fill="#3d3d5c"/>
  <rect x="46" y="10" width="32" height="20" fill="#5c5c7a"/>
  <rect x="50" y="16" width="10" height="4" fill="#1a1a2e"/>
  <rect x="52" y="17" width="6" height="2" fill="#ffd700" opacity="0.6"/>
  <rect x="64" y="16" width="10" height="4" fill="#1a1a2e"/>
  <rect x="66" y="17" width="6" height="2" fill="#ffd700" opacity="0.6"/>
  
  <!-- Settling dust -->
  <rect x="110" y="104" width="3" height="3" fill="#5c5c7a" opacity="0.5"/>
  <rect x="118" y="108" width="2" height="2" fill="#5c5c7a" opacity="0.4"/>
</svg>
