<svg xmlns="http://www.w3.org/2000/svg" viewBox="0 0 128 128" width="128" height="128">
  <!-- Boss Fen Seer Attack Frame 3: BLAST from third eye -->
  <ellipse cx="64" cy="120" rx="52" ry="9" fill="#2d5a27" opacity="0.7"/>
  <ellipse cx="64" cy="122" rx="50" ry="7" fill="#39ff14" opacity="0.4"/>
  
  <!-- Bone totems (resonating) -->
  <rect x="12" y="40" width="8" height="36" fill="#c4b8a0"/>
  <rect x="10" y="38" width="12" height="40" fill="#39ff14" opacity="0.3"/>
  <rect x="108" y="45" width="8" height="34" fill="#c4b8a0"/>
  <rect x="106" y="43" width="12" height="38" fill="#39ff14" opacity="0.3"/>
  
  <!-- Spectral arms (thrust forward) -->
  <rect x="20" y="38" width="18" height="24" fill="#7b2d8e" opacity="0.85"/>
  <rect x="24" y="30" width="16" height="18" fill="#39ff14" opacity="0.7"/>
  <rect x="90" y="36" width="18" height="26" fill="#7b2d8e" opacity="0.85"/>
  <rect x="88" y="28" width="16" height="18" fill="#39ff14" opacity="0.7"/>
  
  <!-- BEAM from third eye -->
  <rect x="58" y="8" width="12" height="40" fill="#39ff14"/>
  <rect x="60" y="4" width="8" height="48" fill="#7fff00"/>
  <rect x="62" y="0" width="4" height="56" fill="#ffffff"/>
  <!-- Beam spread at top -->
  <rect x="50" y="0" width="28" height="6" fill="#39ff14" opacity="0.7"/>
  <rect x="46" y="2" width="36" height="4" fill="#7fff00" opacity="0.5"/>
  
  <!-- Main robed body -->
  <rect x="40" y="54" width="48" height="66" fill="#4a0080"/>
  <rect x="44" y="58" width="40" height="58" fill="#7b2d8e"/>
  
  <!-- Hood (intense) -->
  <rect x="36" y="24" width="56" height="34" fill="#4a0080"/>
  <rect x="40" y="28" width="48" height="26" fill="#7b2d8e"/>
  <rect x="44" y="32" width="40" height="18" fill="#1a1a2e"/>
  <rect x="56" y="16" width="16" height="12" fill="#4a0080"/>
  
  <!-- Third eye (blasting) -->
  <rect x="56" y="26" width="16" height="16" fill="#ffffff"/>
  <rect x="54" y="24" width="20" height="20" fill="#39ff14" opacity="0.5"/>
  <rect x="48" y="18" width="32" height="32" fill="#39ff14" opacity="0.3"/>
  
  <!-- Eyes (blazing) -->
  <rect x="52" y="40" width="6" height="6" fill="#ffffff"/>
  <rect x="50" y="38" width="10" height="10" fill="#39ff14" opacity="0.4"/>
  <rect x="70" y="40" width="6" height="6" fill="#ffffff"/>
  <rect x="68" y="38" width="10" height="10" fill="#39ff14" opacity="0.4"/>
  
  <!-- Chest sigil (flashing) -->
  <rect x="56" y="64" width="16" height="16" fill="#4a0080"/>
  <rect x="54" y="62" width="20" height="20" fill="#39ff14" opacity="0.4"/>
  <rect x="58" y="66" width="12" height="12" fill="#ffffff"/>
  
  <!-- Energy particles -->
  <rect x="40" y="20" width="4" height="4" fill="#39ff14"/>
  <rect x="84" y="18" width="4" height="4" fill="#39ff14"/>
  <rect x="30" y="50" width="3" height="3" fill="#7fff00"/>
  <rect x="96" y="48" width="3" height="3" fill="#7fff00"/>
</svg>
