<svg xmlns="http://www.w3.org/2000/svg" viewBox="0 0 128 128" width="128" height="128">
  <!-- Boss Stone Golem Attack Frame 3: IMPACT -->
  <ellipse cx="64" cy="124" rx="50" ry="8" fill="#1a1a2e" opacity="0.7"/>
  
  <!-- Ground crack from impact -->
  <rect x="80" y="118" width="40" height="6" fill="#3d3d5c"/>
  <rect x="90" y="116" width="4" height="8" fill="#ffd700" opacity="0.6"/>
  <rect x="100" y="114" width="6" height="10" fill="#ffd700" opacity="0.4"/>
  <rect x="110" y="116" width="4" height="6" fill="#00ffff" opacity="0.4"/>
  
  <!-- Feet (right shifted) -->
  <rect x="18" y="108" width="28" height="16" fill="#3d3d5c"/>
  <rect x="86" y="106" width="28" height="18" fill="#3d3d5c"/>
  
  <!-- Legs -->
  <rect x="24" y="72" width="22" height="38" fill="#3d3d5c"/>
  <rect x="84" y="70" width="24" height="38" fill="#3d3d5c"/>
  
  <!-- Waist -->
  <rect x="36" y="64" width="54" height="14" fill="#3d3d5c"/>
  
  <!-- Torso (bent forward) -->
  <rect x="22" y="32" width="72" height="36" fill="#3d3d5c"/>
  <rect x="24" y="34" width="68" height="32" fill="#5c5c7a"/>
  <rect x="42" y="42" width="32" height="14" fill="#c4c4d4"/>
  
  <!-- Core FLASH -->
  <rect x="48" y="46" width="20" height="10" fill="#3d3d5c"/>
  <rect x="50" y="48" width="16" height="6" fill="#1a1a2e"/>
  <rect x="44" y="42" width="28" height="14" fill="#ffd700" opacity="0.4"/>
  <rect x="50" y="48" width="16" height="6" fill="#ffd700"/>
  <rect x="54" y="49" width="8" height="4" fill="#ffffff"/>
  
  <!-- Left arm (braced) -->
  <rect x="-2" y="56" width="20" height="22" fill="#3d3d5c"/>
  <rect x="-6" y="92" width="18" height="16" fill="#3d3d5c"/>
  
  <!-- Right arm GROUND IMPACT -->
  <rect x="96" y="60" width="24" height="26" fill="#3d3d5c"/>
  <rect x="98" y="62" width="20" height="22" fill="#5c5c7a"/>
  <!-- Fist on ground -->
  <rect x="100" y="100" width="26" height="20" fill="#3d3d5c"/>
  <rect x="102" y="102" width="22" height="16" fill="#5c5c7a"/>
  <rect x="104" y="104" width="18" height="12" fill="#8b8ba8"/>
  <!-- Impact glow -->
  <rect x="96" y="108" width="32" height="8" fill="#ffd700" opacity="0.5"/>
  <rect x="100" y="106" width="24" height="4" fill="#00ffff" opacity="0.4"/>
  
  <!-- Shoulder crystals -->
  <rect x="2" y="30" width="14" height="16" fill="#00ffff"/>
  <rect x="100" y="48" width="18" height="18" fill="#00ffff"/>
  <rect x="102" y="46" width="14" height="14" fill="#7fffff"/>
  <rect x="98" y="44" width="22" height="22" fill="#00ffff" opacity="0.25"/>
  
  <!-- Head (lowered) -->
  <rect x="40" y="12" width="36" height="22" fill="#3d3d5c"/>
  <rect x="42" y="14" width="32" height="18" fill="#5c5c7a"/>
  <rect x="46" y="20" width="10" height="4" fill="#1a1a2e"/>
  <rect x="48" y="21" width="6" height="2" fill="#ffeb3b"/>
  <rect x="60" y="20" width="10" height="4" fill="#1a1a2e"/>
  <rect x="62" y="21" width="6" height="2" fill="#ffeb3b"/>
  
  <!-- Debris particles -->
  <rect x="112" y="90" width="4" height="4" fill="#5c5c7a"/>
  <rect x="120" y="94" width="3" height="3" fill="#5c5c7a"/>
  <rect x="108" y="96" width="3" height="3" fill="#c4c4d4"/>
</svg>
