<svg xmlns="http://www.w3.org/2000/svg" viewBox="0 0 128 128" width="128" height="128">
  <!-- Boss Stone Golem Attack Frame 1: Wind-up, right fist raised -->
  <ellipse cx="64" cy="124" rx="44" ry="6" fill="#1a1a2e" opacity="0.6"/>
  
  <!-- Feet planted -->
  <rect x="18" y="108" width="28" height="16" fill="#3d3d5c"/>
  <rect x="82" y="108" width="28" height="16" fill="#3d3d5c"/>
  
  <!-- Legs -->
  <rect x="24" y="72" width="22" height="38" fill="#3d3d5c"/>
  <rect x="82" y="72" width="22" height="38" fill="#3d3d5c"/>
  <rect x="28" y="87" width="14" height="2" fill="#ffd700" opacity="0.6"/>
  <rect x="86" y="87" width="14" height="2" fill="#ffd700" opacity="0.6"/>
  
  <!-- Waist -->
  <rect x="38" y="66" width="52" height="12" fill="#3d3d5c"/>
  
  <!-- Torso (twisted for wind-up) -->
  <rect x="26" y="28" width="72" height="40" fill="#3d3d5c"/>
  <rect x="28" y="30" width="68" height="36" fill="#5c5c7a"/>
  <rect x="46" y="38" width="32" height="18" fill="#c4c4d4"/>
  
  <!-- Core charging -->
  <rect x="52" y="42" width="20" height="14" fill="#3d3d5c"/>
  <rect x="54" y="44" width="16" height="10" fill="#1a1a2e"/>
  <rect x="56" y="46" width="12" height="6" fill="#ffd700" opacity="0.7"/>
  <rect x="58" y="47" width="8" height="4" fill="#ffeb3b"/>
  
  <!-- Left arm (down) -->
  <rect x="2" y="50" width="18" height="24" fill="#3d3d5c"/>
  <rect x="-2" y="90" width="18" height="16" fill="#3d3d5c"/>
  
  <!-- Right arm RAISED -->
  <rect x="100" y="10" width="20" height="30" fill="#3d3d5c"/>
  <rect x="102" y="12" width="16" height="26" fill="#5c5c7a"/>
  <rect x="104" y="18" width="18" height="3" fill="#ffd700" opacity="0.7"/>
  <!-- Raised fist -->
  <rect x="106" y="-6" width="20" height="18" fill="#3d3d5c"/>
  <rect x="108" y="-4" width="16" height="14" fill="#5c5c7a"/>
  <rect x="110" y="-2" width="12" height="10" fill="#8b8ba8"/>
  
  <!-- Shoulder crystals -->
  <rect x="6" y="24" width="14" height="16" fill="#00ffff"/>
  <rect x="102" y="4" width="16" height="18" fill="#00ffff"/>
  <rect x="104" y="2" width="12" height="14" fill="#7fffff"/>
  <rect x="100" y="0" width="20" height="22" fill="#00ffff" opacity="0.2"/>
  
  <!-- Head -->
  <rect x="44" y="6" width="36" height="24" fill="#3d3d5c"/>
  <rect x="46" y="8" width="32" height="20" fill="#5c5c7a"/>
  <rect x="50" y="14" width="10" height="4" fill="#1a1a2e"/>
  <rect x="52" y="15" width="6" height="2" fill="#ffd700"/>
  <rect x="64" y="14" width="10" height="4" fill="#1a1a2e"/>
  <rect x="66" y="15" width="6" height="2" fill="#ffd700"/>
</svg>
