<svg xmlns="http://www.w3.org/2000/svg" viewBox="0 0 128 128" width="128" height="128">
  <!-- Boss Sunlord Attack Frame 3: Impact -->

  <!-- Ground heat/shadow (exploding) -->
  <ellipse cx="64" cy="120" rx="58" ry="12" fill="#ff4500" opacity="0.6"/>
  <ellipse cx="64" cy="122" rx="50" ry="10" fill="#ff8c00" opacity="0.5"/>
  <ellipse cx="64" cy="124" rx="42" ry="7" fill="#1a1a2e" opacity="0.4"/>

  <!-- Ground impact flames -->
  <rect x="4" y="108" width="10" height="16" fill="#ff4500" opacity="0.7"/>
  <rect x="18" y="104" width="8" height="20" fill="#ff0000" opacity="0.6"/>
  <rect x="102" y="104" width="8" height="20" fill="#ff0000" opacity="0.6"/>
  <rect x="114" y="108" width="10" height="16" fill="#ff4500" opacity="0.7"/>

  <!-- Corona (brightest) -->
  <rect x="10" y="2" width="108" height="14" fill="#ff8c00" opacity="0.65"/>
  <rect x="4" y="12" width="120" height="10" fill="#ff8c00" opacity="0.5"/>
  <rect x="0" y="20" width="128" height="6" fill="#ffd700" opacity="0.3"/>
  <rect x="50" y="-6" width="28" height="24" fill="#ffd700" opacity="0.8"/>
  <rect x="56" y="-2" width="16" height="16" fill="#ffffff" opacity="0.4"/>

  <!-- Burning cape (maximum flare) -->
  <rect x="24" y="50" width="80" height="70" fill="#ff4500"/>
  <rect x="28" y="54" width="72" height="62" fill="#ff8c00"/>
  <rect x="18" y="100" width="16" height="26" fill="#ff0000"/>
  <rect x="20" y="110" width="8" height="16" fill="#ffd700"/>
  <rect x="42" y="102" width="16" height="24" fill="#ff0000"/>
  <rect x="46" y="112" width="8" height="14" fill="#ffd700"/>
  <rect x="62" y="100" width="18" height="26" fill="#ff4500"/>
  <rect x="66" y="110" width="8" height="16" fill="#ffd700"/>
  <rect x="86" y="100" width="18" height="26" fill="#ff0000"/>
  <rect x="92" y="110" width="8" height="16" fill="#ffd700"/>

  <!-- Legs (planted) -->
  <rect x="38" y="88" width="20" height="32" fill="#8b4513"/>
  <rect x="40" y="90" width="16" height="28" fill="#ffd700"/>
  <rect x="70" y="88" width="20" height="32" fill="#8b4513"/>
  <rect x="72" y="90" width="16" height="28" fill="#ffd700"/>

  <!-- Torso (forward) -->
  <rect x="32" y="46" width="64" height="48" fill="#8b4513"/>
  <rect x="36" y="50" width="56" height="40" fill="#ffd700"/>
  <!-- Sun emblem (maximum glow) -->
  <rect x="54" y="62" width="16" height="16" fill="#ffffff"/>
  <rect x="56" y="64" width="12" height="12" fill="#ffd700"/>
  <rect x="46" y="54" width="32" height="32" fill="#ffffff" opacity="0.4"/>
  <rect x="60" y="58" width="4" height="6" fill="#ffffff" opacity="0.7"/>
  <rect x="60" y="74" width="4" height="6" fill="#ffffff" opacity="0.7"/>
  <rect x="50" y="68" width="6" height="4" fill="#ffffff" opacity="0.7"/>
  <rect x="68" y="68" width="6" height="4" fill="#ffffff" opacity="0.7"/>

  <!-- Belt -->
  <rect x="34" y="86" width="60" height="8" fill="#8b4513"/>
  <rect x="56" y="86" width="14" height="8" fill="#ffd700"/>
  <rect x="58" y="88" width="10" height="4" fill="#ffffff"/>

  <!-- Left arm (forward) -->
  <rect x="10" y="54" width="20" height="34" fill="#8b4513"/>
  <rect x="12" y="56" width="16" height="30" fill="#ffd700"/>

  <!-- Right arm (extended with sword) -->
  <rect x="94" y="48" width="18" height="40" fill="#8b4513"/>
  <rect x="96" y="50" width="14" height="36" fill="#ffd700"/>
  <rect x="102" y="88" width="14" height="8" fill="#ff8c00"/>

  <!-- Sword (ground impact) -->
  <rect x="108" y="50" width="8" height="74" fill="#8b4513"/>
  <rect x="106" y="44" width="12" height="50" fill="#ffd700"/>
  <rect x="108" y="46" width="8" height="46" fill="#ffffff"/>
  <rect x="100" y="92" width="24" height="6" fill="#8b4513"/>
  <!-- Impact explosion -->
  <rect x="96" y="98" width="30" height="20" fill="#ff4500" opacity="0.8"/>
  <rect x="100" y="104" width="22" height="14" fill="#ffd700" opacity="0.7"/>
  <rect x="104" y="108" width="14" height="10" fill="#ffffff" opacity="0.5"/>
  <rect x="92" y="110" width="8" height="14" fill="#ff0000" opacity="0.6"/>
  <rect x="120" y="108" width="8" height="16" fill="#ff0000" opacity="0.6"/>

  <!-- Head/Helmet -->
  <rect x="40" y="18" width="42" height="34" fill="#8b4513"/>
  <rect x="44" y="22" width="34" height="26" fill="#ffd700"/>
  <rect x="48" y="30" width="26" height="14" fill="#1a1a2e"/>
  <!-- Eyes (blazing maximum) -->
  <rect x="50" y="32" width="10" height="8" fill="#ffffff"/>
  <rect x="52" y="34" width="6" height="4" fill="#ffd700"/>
  <rect x="48" y="30" width="14" height="12" fill="#ffffff" opacity="0.2"/>
  <rect x="62" y="32" width="10" height="8" fill="#ffffff"/>
  <rect x="64" y="34" width="6" height="4" fill="#ffd700"/>
  <rect x="60" y="30" width="14" height="12" fill="#ffffff" opacity="0.2"/>

  <!-- Crown -->
  <rect x="36" y="16" width="52" height="10" fill="#ffd700"/>
  <rect x="40" y="4" width="8" height="18" fill="#ffd700"/>
  <rect x="52" y="2" width="8" height="20" fill="#ffd700"/>
  <rect x="64" y="2" width="8" height="20" fill="#ffd700"/>
  <rect x="76" y="4" width="8" height="18" fill="#ffd700"/>
  <!-- Crown flames (maximum) -->
  <rect x="42" y="-4" width="4" height="14" fill="#ff4500" opacity="0.9"/>
  <rect x="54" y="-6" width="4" height="16" fill="#ff4500" opacity="0.9"/>
  <rect x="66" y="-6" width="4" height="16" fill="#ff4500" opacity="0.9"/>
  <rect x="78" y="-4" width="4" height="14" fill="#ff4500" opacity="0.9"/>

  <!-- Explosion particles -->
  <rect x="82" y="92" width="6" height="6" fill="#ff4500" opacity="0.8"/>
  <rect x="126" y="96" width="4" height="4" fill="#ffd700" opacity="0.7"/>
  <rect x="88" y="82" width="4" height="4" fill="#ff0000" opacity="0.6"/>
  <rect x="116" y="86" width="4" height="4" fill="#ff4500" opacity="0.6"/>
  <rect x="20" y="16" width="4" height="4" fill="#ff4500" opacity="0.5"/>
  <rect x="104" y="10" width="4" height="4" fill="#ff4500" opacity="0.5"/>
</svg>
