<svg xmlns="http://www.w3.org/2000/svg" viewBox="0 0 128 128" width="128" height="128">
  <!-- Boss Sunlord Idle Frame 3: Flames at peak -->
  
  <!-- Ground heat/shadow -->
  <ellipse cx="64" cy="122" rx="50" ry="9" fill="#ff4500" opacity="0.4"/>
  <ellipse cx="64" cy="124" rx="42" ry="6" fill="#1a1a2e" opacity="0.5"/>
  
  <!-- Corona (brightest) -->
  <rect x="16" y="6" width="96" height="10" fill="#ff8c00" opacity="0.5"/>
  <rect x="10" y="12" width="108" height="8" fill="#ff8c00" opacity="0.35"/>
  <rect x="6" y="18" width="116" height="4" fill="#ffd700" opacity="0.2"/>
  <rect x="56" y="-2" width="16" height="18" fill="#ffd700" opacity="0.7"/>
  <rect x="60" y="0" width="8" height="12" fill="#ffffff" opacity="0.4"/>
  <rect x="28" y="2" width="8" height="14" fill="#ffd700" opacity="0.5"/>
  <rect x="92" y="2" width="8" height="14" fill="#ffd700" opacity="0.5"/>
  
  <!-- Burning cape (large flames) -->
  <rect x="28" y="50" width="72" height="70" fill="#ff4500"/>
  <rect x="32" y="54" width="64" height="62" fill="#ff8c00"/>
  <rect x="26" y="106" width="12" height="20" fill="#ff0000"/>
  <rect x="28" y="112" width="6" height="14" fill="#ffd700"/>
  <rect x="48" y="108" width="12" height="18" fill="#ff0000"/>
  <rect x="52" y="114" width="6" height="10" fill="#ffd700"/>
  <rect x="66" y="106" width="14" height="20" fill="#ff4500"/>
  <rect x="70" y="112" width="6" height="12" fill="#ffd700"/>
  <rect x="86" y="106" width="14" height="20" fill="#ff0000"/>
  <rect x="90" y="112" width="6" height="14" fill="#ffd700"/>
  
  <!-- Legs -->
  <rect x="42" y="90" width="16" height="30" fill="#8b4513"/>
  <rect x="44" y="92" width="12" height="26" fill="#ffd700"/>
  <rect x="70" y="90" width="16" height="30" fill="#8b4513"/>
  <rect x="72" y="92" width="12" height="26" fill="#ffd700"/>
  
  <!-- Torso -->
  <rect x="36" y="48" width="56" height="46" fill="#8b4513"/>
  <rect x="40" y="52" width="48" height="38" fill="#ffd700"/>
  <rect x="48" y="58" width="32" height="24" fill="#ffd700"/>
  <!-- Sun emblem (bright) -->
  <rect x="58" y="64" width="12" height="12" fill="#ffffff"/>
  <rect x="60" y="66" width="8" height="8" fill="#ffd700"/>
  <rect x="52" y="58" width="24" height="24" fill="#ffffff" opacity="0.3"/>
  <rect x="62" y="60" width="4" height="6" fill="#ffffff" opacity="0.6"/>
  <rect x="62" y="74" width="4" height="6" fill="#ffffff" opacity="0.6"/>
  <rect x="54" y="68" width="6" height="4" fill="#ffffff" opacity="0.6"/>
  <rect x="68" y="68" width="6" height="4" fill="#ffffff" opacity="0.6"/>
  
  <!-- Belt -->
  <rect x="38" y="86" width="52" height="8" fill="#8b4513"/>
  <rect x="58" y="86" width="12" height="8" fill="#ffd700"/>
  <rect x="60" y="88" width="8" height="4" fill="#ffffff"/>
  
  <!-- Left arm -->
  <rect x="20" y="50" width="18" height="40" fill="#8b4513"/>
  <rect x="22" y="52" width="14" height="36" fill="#ffd700"/>
  <rect x="16" y="96" width="18" height="10" fill="#ff8c00"/>
  
  <!-- Right arm -->
  <rect x="90" y="40" width="18" height="36" fill="#8b4513"/>
  <rect x="92" y="42" width="14" height="32" fill="#ffd700"/>
  <rect x="96" y="80" width="14" height="8" fill="#ff8c00"/>
  
  <!-- Sword -->
  <rect x="100" y="10" width="8" height="74" fill="#8b4513"/>
  <rect x="98" y="4" width="12" height="50" fill="#ffd700"/>
  <rect x="100" y="6" width="8" height="46" fill="#ffffff"/>
  <rect x="92" y="52" width="24" height="6" fill="#8b4513"/>
  <!-- Sword flames (large) -->
  <rect x="92" y="4" width="8" height="18" fill="#ff4500" opacity="0.8"/>
  <rect x="90" y="10" width="4" height="12" fill="#ff0000" opacity="0.6"/>
  <rect x="108" y="2" width="8" height="20" fill="#ff4500" opacity="0.8"/>
  <rect x="114" y="8" width="4" height="12" fill="#ff0000" opacity="0.6"/>
  <rect x="96" y="22" width="4" height="8" fill="#ff8c00" opacity="0.5"/>
  <rect x="108" y="20" width="4" height="10" fill="#ff8c00" opacity="0.5"/>
  
  <!-- Head/Helmet -->
  <rect x="44" y="20" width="40" height="32" fill="#8b4513"/>
  <rect x="48" y="24" width="32" height="24" fill="#ffd700"/>
  <rect x="52" y="32" width="24" height="12" fill="#1a1a2e"/>
  <!-- Eyes (brightest) -->
  <rect x="54" y="34" width="8" height="6" fill="#ffffff"/>
  <rect x="56" y="36" width="4" height="2" fill="#ffd700"/>
  <rect x="52" y="32" width="12" height="10" fill="#ffffff" opacity="0.15"/>
  <rect x="66" y="34" width="8" height="6" fill="#ffffff"/>
  <rect x="68" y="36" width="4" height="2" fill="#ffd700"/>
  <rect x="64" y="32" width="12" height="10" fill="#ffffff" opacity="0.15"/>
  
  <!-- Crown -->
  <rect x="40" y="16" width="48" height="10" fill="#ffd700"/>
  <rect x="44" y="4" width="6" height="18" fill="#ffd700"/>
  <rect x="56" y="2" width="6" height="20" fill="#ffd700"/>
  <rect x="66" y="2" width="6" height="20" fill="#ffd700"/>
  <rect x="78" y="4" width="6" height="18" fill="#ffd700"/>
  <!-- Crown flames (tall) -->
  <rect x="46" y="-2" width="2" height="10" fill="#ff4500" opacity="0.8"/>
  <rect x="58" y="-4" width="2" height="12" fill="#ff4500" opacity="0.8"/>
  <rect x="68" y="-4" width="2" height="12" fill="#ff4500" opacity="0.8"/>
  <rect x="80" y="-2" width="2" height="10" fill="#ff4500" opacity="0.8"/>
  
  <!-- Fire particles -->
  <rect x="22" y="26" width="4" height="4" fill="#ff4500" opacity="0.6"/>
  <rect x="18" y="38" width="3" height="3" fill="#ffd700" opacity="0.5"/>
  <rect x="108" y="24" width="4" height="4" fill="#ff4500" opacity="0.6"/>
  <rect x="114" y="36" width="3" height="3" fill="#ffd700" opacity="0.5"/>
  <rect x="32" y="60" width="3" height="3" fill="#ff0000" opacity="0.4"/>
  <rect x="94" y="58" width="3" height="3" fill="#ff0000" opacity="0.4"/>
</svg>
