<svg xmlns="http://www.w3.org/2000/svg" viewBox="0 0 128 128" width="128" height="128">
  <!-- Boss Forest Guardian Attack Frame 1: Wind-up, arms raised -->
  
  <ellipse cx="64" cy="124" rx="40" ry="6" fill="#0f3d0f" opacity="0.5"/>
  
  <!-- Roots trembling -->
  <rect x="36" y="110" width="56" height="16" fill="#8b4513"/>
  <rect x="14" y="112" width="12" height="12" fill="#228b22"/>
  <rect x="80" y="112" width="14" height="14" fill="#4c1d95"/>
  
  <!-- Lower trunk -->
  <rect x="40" y="84" width="48" height="28" fill="#8b4513"/>
  <rect x="42" y="86" width="20" height="22" fill="#228b22"/>
  <rect x="66" y="86" width="20" height="22" fill="#4c1d95"/>
  
  <!-- Upper trunk (leaning back) -->
  <rect x="36" y="48" width="56" height="38" fill="#8b4513"/>
  <rect x="38" y="50" width="24" height="32" fill="#32cd32"/>
  <rect x="66" y="50" width="24" height="32" fill="#2d1157"/>
  
  <!-- Core charging -->
  <rect x="54" y="58" width="20" height="20" fill="#3d2817"/>
  <rect x="50" y="54" width="28" height="28" fill="#ffd700" opacity="0.4"/>
  <rect x="56" y="60" width="16" height="16" fill="#ffd700" opacity="0.6"/>
  <rect x="60" y="64" width="8" height="8" fill="#ffeb3b"/>
  
  <!-- Left arm RAISED -->
  <rect x="4" y="20" width="28" height="16" fill="#228b22"/>
  <rect x="0" y="16" width="10" height="20" fill="#8b4513"/>
  <rect x="-2" y="10" width="8" height="10" fill="#90ee90"/>
  <rect x="8" y="8" width="6" height="6" fill="#32cd32"/>
  
  <!-- Right arm RAISED -->
  <rect x="96" y="18" width="28" height="18" fill="#4c1d95"/>
  <rect x="118" y="14" width="12" height="22" fill="#2d1157"/>
  <rect x="122" y="8" width="6" height="10" fill="#c084fc" opacity="0.7"/>
  <rect x="114" y="10" width="6" height="6" fill="#c084fc" opacity="0.5"/>
  
  <!-- Head tilted back -->
  <rect x="46" y="20" width="36" height="26" fill="#8b4513"/>
  <rect x="48" y="22" width="14" height="20" fill="#32cd32"/>
  <rect x="66" y="22" width="14" height="20" fill="#4c1d95"/>
  
  <!-- Eyes glowing intensely -->
  <rect x="52" y="30" width="6" height="4" fill="#90ee90"/>
  <rect x="50" y="28" width="10" height="8" fill="#90ee90" opacity="0.4"/>
  <rect x="70" y="30" width="6" height="4" fill="#c084fc"/>
  <rect x="68" y="28" width="10" height="8" fill="#c084fc" opacity="0.4"/>
  
  <rect x="54" y="38" width="20" height="6" fill="#3d2817"/>
  
  <!-- Crown -->
  <rect x="20" y="4" width="30" height="20" fill="#228b22"/>
  <rect x="78" y="4" width="30" height="20" fill="#4c1d95"/>
  <rect x="50" y="6" width="28" height="16" fill="#8b4513"/>
</svg>
