<svg xmlns="http://www.w3.org/2000/svg" viewBox="0 0 128 128" width="128" height="128">
  <!-- Boss Stone Golem Attack Frame 2: Swinging down -->
  <ellipse cx="64" cy="124" rx="44" ry="6" fill="#1a1a2e" opacity="0.6"/>
  
  <!-- Feet -->
  <rect x="18" y="108" width="28" height="16" fill="#3d3d5c"/>
  <rect x="82" y="108" width="28" height="16" fill="#3d3d5c"/>
  
  <!-- Legs -->
  <rect x="24" y="72" width="22" height="38" fill="#3d3d5c"/>
  <rect x="82" y="72" width="22" height="38" fill="#3d3d5c"/>
  
  <!-- Waist -->
  <rect x="38" y="66" width="52" height="12" fill="#3d3d5c"/>
  
  <!-- Torso (leaning forward) -->
  <rect x="24" y="30" width="72" height="38" fill="#3d3d5c"/>
  <rect x="26" y="32" width="68" height="34" fill="#5c5c7a"/>
  <rect x="44" y="40" width="32" height="16" fill="#c4c4d4"/>
  
  <!-- Core bright -->
  <rect x="50" y="44" width="20" height="12" fill="#3d3d5c"/>
  <rect x="52" y="46" width="16" height="8" fill="#1a1a2e"/>
  <rect x="54" y="47" width="12" height="6" fill="#ffd700" opacity="0.8"/>
  <rect x="56" y="48" width="8" height="4" fill="#ffeb3b"/>
  
  <!-- Left arm (down) -->
  <rect x="0" y="54" width="18" height="24" fill="#3d3d5c"/>
  <rect x="-4" y="92" width="18" height="16" fill="#3d3d5c"/>
  
  <!-- Right arm SWINGING -->
  <rect x="100" y="40" width="22" height="28" fill="#3d3d5c"/>
  <rect x="102" y="42" width="18" height="24" fill="#5c5c7a"/>
  <!-- Fist mid-swing -->
  <rect x="108" y="62" width="20" height="18" fill="#3d3d5c"/>
  <rect x="110" y="64" width="16" height="14" fill="#5c5c7a"/>
  
  <!-- Shoulder crystals -->
  <rect x="4" y="28" width="14" height="16" fill="#00ffff"/>
  <rect x="104" y="28" width="16" height="16" fill="#00ffff"/>
  <rect x="106" y="26" width="12" height="12" fill="#7fffff"/>
  
  <!-- Head (lowered) -->
  <rect x="42" y="10" width="36" height="22" fill="#3d3d5c"/>
  <rect x="44" y="12" width="32" height="18" fill="#5c5c7a"/>
  <rect x="48" y="18" width="10" height="4" fill="#1a1a2e"/>
  <rect x="50" y="19" width="6" height="2" fill="#ffd700"/>
  <rect x="62" y="18" width="10" height="4" fill="#1a1a2e"/>
  <rect x="64" y="19" width="6" height="2" fill="#ffd700"/>
</svg>
