<svg xmlns="http://www.w3.org/2000/svg" viewBox="0 0 32 32" width="32" height="32">
  <!-- Champion Walk Frame 1: Left foot forward -->

  <!-- Shadow -->
  <rect x="8" y="28" width="16" height="3" fill="#1a252f" opacity="0.5"/>

  <!-- Legs (walking) -->
  <rect x="10" y="22" width="4" height="6" fill="#922b21"/>
  <rect x="18" y="23" width="4" height="5" fill="#922b21"/>
  <rect x="9" y="26" width="5" height="2" fill="#7b241c"/>
  <rect x="18" y="27" width="5" height="2" fill="#7b241c"/>

  <!-- Body (armored) -->
  <rect x="9" y="12" width="14" height="10" fill="#c0392b"/>
  <rect x="11" y="14" width="10" height="6" fill="#922b21"/>
  <rect x="12" y="15" width="8" height="4" fill="#7f8c8d"/>

  <!-- Arms -->
  <rect x="5" y="13" width="5" height="8" fill="#c0392b"/>
  <rect x="22" y="14" width="5" height="7" fill="#c0392b"/>

  <!-- Head -->
  <rect x="10" y="5" width="12" height="8" fill="#c0392b"/>
  <rect x="11" y="6" width="3" height="3" fill="#1a252f"/>
  <rect x="18" y="6" width="3" height="3" fill="#1a252f"/>

  <!-- Crown -->
  <rect x="11" y="1" width="10" height="5" fill="#f4d03f"/>
  <rect x="12" y="0" width="2" height="3" fill="#f39c12"/>
  <rect x="18" y="0" width="2" height="3" fill="#f39c12"/>
  <rect x="15" y="0" width="2" height="2" fill="#f39c12"/>

  <!-- Sword (back) -->
  <rect x="24" y="8" width="3" height="14" fill="#bdc3c7"/>
  <rect x="23" y="14" width="5" height="3" fill="#8b7355"/>
</svg>
