<svg xmlns="http://www.w3.org/2000/svg" viewBox="0 0 32 32" width="32" height="32">
  <!-- Specter Walk Frame 2: Gliding mid -->

  <!-- Shadow below -->
  <ellipse cx="16" cy="30" rx="7" ry="2" fill="#1a252f" opacity="0.4"/>

  <!-- Wispy bottom - centered -->
  <rect x="8" y="24" width="4" height="5" fill="#2c3e50"/>
  <rect x="12" y="25" width="4" height="5" fill="#1a252f"/>
  <rect x="16" y="24" width="4" height="6" fill="#2c3e50"/>
  <rect x="20" y="25" width="4" height="5" fill="#1a252f"/>
  <rect x="10" y="28" width="3" height="3" fill="#1a252f"/>
  <rect x="18" y="27" width="3" height="3" fill="#2c3e50"/>

  <!-- Shadowy body -->
  <rect x="8" y="9" width="16" height="17" fill="#2c3e50"/>
  <rect x="4" y="11" width="6" height="13" fill="#1a252f"/>
  <rect x="22" y="11" width="6" height="13" fill="#1a252f"/>

  <!-- Shadow wisps - centered -->
  <rect x="2" y="15" width="3" height="5" fill="#1a252f"/>
  <rect x="27" y="15" width="3" height="5" fill="#1a252f"/>

  <!-- Hood/head - slightly raised -->
  <rect x="6" y="3" width="20" height="10" fill="#1a252f"/>
  <rect x="10" y="1" width="12" height="6" fill="#2c3e50"/>
  <rect x="12" y="0" width="8" height="3" fill="#1a252f"/>

  <!-- Glowing eyes - brighter -->
  <rect x="9" y="6" width="4" height="3" fill="#9b59b6"/>
  <rect x="19" y="6" width="4" height="3" fill="#9b59b6"/>
  <rect x="10" y="7" width="2" height="1" fill="#d7bde2"/>
  <rect x="20" y="7" width="2" height="1" fill="#d7bde2"/>
  <!-- Extra glow -->
  <rect x="9" y="6" width="1" height="1" fill="#d7bde2" opacity="0.5"/>
  <rect x="22" y="6" width="1" height="1" fill="#d7bde2" opacity="0.5"/>
</svg>
