<svg xmlns="http://www.w3.org/2000/svg" viewBox="0 0 32 32" width="32" height="32">
  <!-- Assassin Walk Frame 4: Double slash attack -->

  <!-- Shadow -->
  <rect x="11" y="28" width="10" height="2" fill="#1a252f"/>

  <!-- Legs lunging -->
  <rect x="10" y="23" width="4" height="5" fill="#1a252f"/>
  <rect x="16" y="25" width="3" height="3" fill="#1a252f"/>
  <rect x="9" y="26" width="5" height="2" fill="#34495e"/>
  <rect x="16" y="26" width="4" height="2" fill="#34495e"/>

  <!-- Body extended -->
  <rect x="11" y="15" width="8" height="8" fill="#1a252f"/>
  <rect x="12" y="16" width="6" height="6" fill="#34495e"/>

  <!-- Slashing arms -->
  <rect x="8" y="13" width="4" height="4" fill="#1a252f"/>
  <rect x="20" y="14" width="3" height="4" fill="#1a252f"/>
  <!-- Daggers slashing -->
  <rect x="6" y="11" width="2" height="5" fill="#aeb6bf"/>
  <rect x="23" y="12" width="1" height="5" fill="#aeb6bf"/>
  <!-- Slash trails -->
  <rect x="6" y="10" width="1" height="1" fill="#fdfefe"/>
  <rect x="23" y="11" width="1" height="1" fill="#fdfefe"/>

  <!-- Head -->
  <rect x="12" y="9" width="6" height="6" fill="#1a252f"/>
  <rect x="13" y="10" width="4" height="4" fill="#34495e"/>
  <rect x="13" y="12" width="4" height="2" fill="#1a252f"/>
  <rect x="13" y="11" width="1" height="1" fill="#f4d03f"/>
  <rect x="16" y="11" width="1" height="1" fill="#f4d03f"/>

  <!-- Shadow particles -->
  <rect x="10" y="18" width="1" height="1" fill="#5dade2"/>
  <rect x="21" y="16" width="1" height="1" fill="#5dade2"/>
</svg>
