<svg xmlns="http://www.w3.org/2000/svg" viewBox="0 0 32 32" width="32" height="32">
  <!-- Berserker Walk Frame 1: Idle/Ready stance -->

  <!-- Shadow -->
  <rect x="11" y="28" width="10" height="2" fill="#1a252f"/>

  <!-- Legs -->
  <rect x="13" y="24" width="3" height="4" fill="#7b241c"/>
  <rect x="16" y="24" width="3" height="4" fill="#7b241c"/>
  <rect x="12" y="26" width="4" height="2" fill="#5d4e37"/>
  <rect x="16" y="26" width="4" height="2" fill="#5d4e37"/>

  <!-- Muscular body (bare chest) -->
  <rect x="12" y="16" width="8" height="8" fill="#dc7633"/>
  <rect x="13" y="17" width="6" height="6" fill="#f5cba7"/>
  <!-- War paint stripes -->
  <rect x="14" y="18" width="1" height="4" fill="#c0392b"/>
  <rect x="17" y="18" width="1" height="4" fill="#c0392b"/>

  <!-- Arms -->
  <rect x="10" y="17" width="2" height="5" fill="#dc7633"/>
  <rect x="20" y="17" width="2" height="5" fill="#dc7633"/>

  <!-- Head -->
  <rect x="13" y="10" width="6" height="6" fill="#dc7633"/>
  <rect x="14" y="11" width="4" height="4" fill="#f5cba7"/>
  <!-- Wild hair -->
  <rect x="12" y="8" width="8" height="3" fill="#a04000"/>
  <rect x="11" y="9" width="2" height="2" fill="#a04000"/>
  <rect x="19" y="9" width="2" height="2" fill="#a04000"/>
  <!-- Angry eyes -->
  <rect x="14" y="12" width="1" height="1" fill="#1a252f"/>
  <rect x="17" y="12" width="1" height="1" fill="#1a252f"/>

  <!-- Dual axes -->
  <rect x="8" y="14" width="2" height="6" fill="#5d4e37"/>
  <rect x="8" y="12" width="3" height="2" fill="#5d6d7e"/>
  <rect x="22" y="14" width="2" height="6" fill="#5d4e37"/>
  <rect x="21" y="12" width="3" height="2" fill="#5d6d7e"/>
</svg>
