<svg xmlns="http://www.w3.org/2000/svg" viewBox="0 0 32 32" width="32" height="32">
  <!-- Warlord Idle Frame 2: Heavy breathing -->

  <!-- Shadow -->
  <rect x="6" y="28" width="20" height="3" fill="#1a252f" opacity="0.5"/>

  <!-- Legs -->
  <rect x="9" y="21" width="6" height="7" fill="#34495e"/>
  <rect x="17" y="21" width="6" height="7" fill="#34495e"/>
  <rect x="8" y="26" width="7" height="2" fill="#2c3e50"/>
  <rect x="17" y="26" width="7" height="2" fill="#2c3e50"/>

  <!-- Body (expanded) -->
  <rect x="7" y="11" width="18" height="11" fill="#5d6d7e"/>
  <rect x="9" y="13" width="14" height="7" fill="#34495e"/>
  <rect x="11" y="15" width="10" height="3" fill="#7f8c8d"/>

  <!-- Pauldrons (raised) -->
  <rect x="3" y="11" width="6" height="8" fill="#5d6d7e"/>
  <rect x="23" y="11" width="6" height="8" fill="#5d6d7e"/>
  <rect x="4" y="12" width="4" height="4" fill="#7f8c8d"/>
  <rect x="24" y="12" width="4" height="4" fill="#7f8c8d"/>

  <!-- Head (slightly lowered) -->
  <rect x="9" y="4" width="14" height="8" fill="#5d6d7e"/>
  <rect x="11" y="6" width="3" height="3" fill="#c0392b"/>
  <rect x="18" y="6" width="3" height="3" fill="#c0392b"/>
  <!-- Horns -->
  <rect x="6" y="2" width="5" height="7" fill="#5d6d7e"/>
  <rect x="21" y="2" width="5" height="7" fill="#5d6d7e"/>
  <rect x="7" y="0" width="3" height="4" fill="#34495e"/>
  <rect x="22" y="0" width="3" height="4" fill="#34495e"/>

  <!-- Cape billowing -->
  <rect x="10" y="19" width="12" height="7" fill="#c0392b"/>
  <rect x="11" y="21" width="10" height="5" fill="#922b21"/>
</svg>
