<svg xmlns="http://www.w3.org/2000/svg" viewBox="0 0 32 32" width="32" height="32">
  <!-- Golem Walk Frame 1: Idle stance (core pulsing) -->

  <!-- Ground cracks -->
  <rect x="6" y="28" width="20" height="2" fill="#34495e"/>
  <rect x="8" y="27" width="2" height="1" fill="#34495e"/>
  <rect x="20" y="27" width="2" height="1" fill="#34495e"/>

  <!-- Massive legs -->
  <rect x="7" y="20" width="6" height="8" fill="#5d6d7e"/>
  <rect x="19" y="20" width="6" height="8" fill="#5d6d7e"/>
  <rect x="8" y="21" width="4" height="6" fill="#85929e"/>
  <rect x="20" y="21" width="4" height="6" fill="#85929e"/>

  <!-- Torso -->
  <rect x="6" y="10" width="20" height="10" fill="#5d6d7e"/>
  <rect x="7" y="11" width="18" height="8" fill="#85929e"/>

  <!-- Glowing core (weak point) -->
  <rect x="11" y="13" width="10" height="5" fill="#922b21"/>
  <rect x="12" y="14" width="8" height="3" fill="#e74c3c"/>
  <rect x="14" y="15" width="4" height="1" fill="#f5b7b1"/>

  <!-- Arms -->
  <rect x="4" y="12" width="3" height="8" fill="#5d6d7e"/>
  <rect x="25" y="12" width="3" height="8" fill="#5d6d7e"/>
  <rect x="5" y="13" width="2" height="6" fill="#85929e"/>
  <rect x="25" y="13" width="2" height="6" fill="#85929e"/>

  <!-- Head -->
  <rect x="9" y="4" width="14" height="7" fill="#5d6d7e"/>
  <rect x="10" y="5" width="12" height="5" fill="#85929e"/>
  <!-- Eyes -->
  <rect x="11" y="6" width="3" height="2" fill="#e74c3c"/>
  <rect x="18" y="6" width="3" height="2" fill="#e74c3c"/>

  <!-- Moss on shoulders -->
  <rect x="5" y="11" width="3" height="2" fill="#1e8449"/>
  <rect x="24" y="11" width="3" height="2" fill="#1e8449"/>
</svg>
