<svg xmlns="http://www.w3.org/2000/svg" viewBox="0 0 32 32" width="32" height="32">
  <!-- Golem Walk Frame 3: Ground slam attack -->

  <!-- Major impact -->
  <rect x="6" y="28" width="20" height="2" fill="#34495e"/>
  <rect x="4" y="26" width="6" height="2" fill="#34495e"/>
  <rect x="22" y="26" width="5" height="2" fill="#34495e"/>
  <!-- Debris -->
  <rect x="5" y="24" width="2" height="2" fill="#5d6d7e"/>
  <rect x="24" y="23" width="2" height="2" fill="#5d6d7e"/>
  <rect x="14" y="22" width="1" height="1" fill="#85929e"/>

  <!-- Legs braced -->
  <rect x="8" y="19" width="6" height="9" fill="#5d6d7e"/>
  <rect x="18" y="19" width="6" height="9" fill="#5d6d7e"/>

  <!-- Torso lowered -->
  <rect x="6" y="11" width="20" height="8" fill="#5d6d7e"/>
  <rect x="7" y="12" width="18" height="6" fill="#85929e"/>

  <!-- Core exposed (bright) -->
  <rect x="11" y="13" width="10" height="4" fill="#e74c3c"/>
  <rect x="12" y="14" width="8" height="2" fill="#f5b7b1"/>
  <rect x="14" y="14" width="4" height="1" fill="#fdfefe"/>

  <!-- Arms slamming down -->
  <rect x="4" y="16" width="4" height="8" fill="#5d6d7e"/>
  <rect x="24" y="16" width="4" height="8" fill="#5d6d7e"/>
  <!-- Fists -->
  <rect x="4" y="22" width="4" height="4" fill="#85929e"/>
  <rect x="24" y="22" width="4" height="4" fill="#85929e"/>

  <!-- Head -->
  <rect x="9" y="6" width="14" height="6" fill="#5d6d7e"/>
  <rect x="10" y="7" width="12" height="4" fill="#85929e"/>
  <rect x="11" y="8" width="3" height="2" fill="#e74c3c"/>
  <rect x="18" y="8" width="3" height="2" fill="#e74c3c"/>
</svg>
