<svg xmlns="http://www.w3.org/2000/svg" viewBox="0 0 32 32" width="32" height="32">
  <!-- Shield Wall Walk Frame 2: Walking -->

  <!-- Shadow -->
  <rect x="10" y="28" width="12" height="2" fill="#1a252f"/>

  <!-- Legs (one forward) -->
  <rect x="11" y="24" width="4" height="4" fill="#2c3e50"/>
  <rect x="17" y="25" width="4" height="3" fill="#2c3e50"/>
  <rect x="11" y="19" width="4" height="5" fill="#5d6d7e"/>
  <rect x="17" y="20" width="4" height="5" fill="#5d6d7e"/>
  <rect x="12" y="20" width="2" height="3" fill="#85929e"/>
  <rect x="18" y="21" width="2" height="3" fill="#85929e"/>

  <!-- Body -->
  <rect x="11" y="12" width="10" height="7" fill="#5d6d7e"/>
  <rect x="12" y="13" width="8" height="5" fill="#85929e"/>
  <rect x="14" y="14" width="4" height="3" fill="#5d6d7e"/>

  <!-- Helmet -->
  <rect x="12" y="7" width="8" height="6" fill="#5d6d7e"/>
  <rect x="13" y="8" width="6" height="4" fill="#85929e"/>
  <rect x="13" y="9" width="6" height="2" fill="#2c3e50"/>
  <rect x="14" y="10" width="1" height="1" fill="#e74c3c"/>
  <rect x="17" y="10" width="1" height="1" fill="#e74c3c"/>
  <rect x="15" y="6" width="2" height="1" fill="#c0392b"/>

  <!-- Shield (slightly angled) -->
  <rect x="8" y="9" width="4" height="14" fill="#5d6d7e"/>
  <rect x="9" y="10" width="2" height="12" fill="#85929e"/>
  <rect x="8" y="9" width="4" height="1" fill="#f4d03f"/>
  <rect x="8" y="22" width="4" height="1" fill="#f4d03f"/>
  <rect x="8" y="15" width="4" height="1" fill="#f4d03f"/>
</svg>
