<svg xmlns="http://www.w3.org/2000/svg" viewBox="0 0 32 32" width="32" height="32">
  <!-- Flying Enemy Walk Frame 3: Wings down -->

  <!-- Shadow below (larger, closer) -->
  <ellipse cx="16" cy="28" rx="10" ry="3" fill="#1a252f" opacity="0.4"/>

  <!-- Tail -->
  <rect x="14" y="22" width="4" height="6" fill="#2c3e50"/>
  <rect x="12" y="26" width="8" height="4" fill="#34495e"/>

  <!-- Body -->
  <rect x="12" y="14" width="8" height="10" fill="#2c3e50"/>
  <rect x="14" y="16" width="4" height="6" fill="#34495e"/>

  <!-- Wings (down position) -->
  <rect x="0" y="16" width="10" height="6" fill="#5d6d7e"/>
  <rect x="2" y="18" width="8" height="4" fill="#7f8c8d"/>
  <rect x="0" y="20" width="6" height="2" fill="#95a5a6"/>

  <rect x="22" y="16" width="10" height="6" fill="#5d6d7e"/>
  <rect x="22" y="18" width="8" height="4" fill="#7f8c8d"/>
  <rect x="26" y="20" width="6" height="2" fill="#95a5a6"/>

  <!-- Head -->
  <rect x="10" y="8" width="12" height="8" fill="#2c3e50"/>
  <rect x="12" y="10" width="8" height="4" fill="#34495e"/>

  <!-- Eyes -->
  <rect x="12" y="10" width="2" height="2" fill="#e74c3c"/>
  <rect x="18" y="10" width="2" height="2" fill="#e74c3c"/>
</svg>
