<svg xmlns="http://www.w3.org/2000/svg" viewBox="0 0 32 32" width="32" height="32">
  <!-- Champion Idle Frame 2: Breathing -->

  <!-- Shadow -->
  <rect x="8" y="28" width="16" height="3" fill="#1a252f" opacity="0.5"/>

  <!-- Legs -->
  <rect x="10" y="22" width="5" height="6" fill="#922b21"/>
  <rect x="17" y="22" width="5" height="6" fill="#922b21"/>
  <rect x="9" y="26" width="6" height="2" fill="#7b241c"/>
  <rect x="17" y="26" width="6" height="2" fill="#7b241c"/>

  <!-- Body (armored, slight rise) -->
  <rect x="9" y="11" width="14" height="11" fill="#c0392b"/>
  <rect x="11" y="13" width="10" height="7" fill="#922b21"/>
  <rect x="12" y="14" width="8" height="5" fill="#7f8c8d"/>

  <!-- Arms -->
  <rect x="5" y="12" width="5" height="9" fill="#c0392b"/>
  <rect x="22" y="12" width="5" height="9" fill="#c0392b"/>

  <!-- Head -->
  <rect x="10" y="4" width="12" height="8" fill="#c0392b"/>
  <rect x="11" y="5" width="3" height="3" fill="#1a252f"/>
  <rect x="18" y="5" width="3" height="3" fill="#1a252f"/>

  <!-- Crown -->
  <rect x="11" y="0" width="10" height="5" fill="#f4d03f"/>
  <rect x="12" y="0" width="2" height="2" fill="#f39c12"/>
  <rect x="18" y="0" width="2" height="2" fill="#f39c12"/>
  <rect x="15" y="0" width="2" height="1" fill="#f39c12"/>

  <!-- Sword raised (slight movement) -->
  <rect x="25" y="4" width="3" height="15" fill="#bdc3c7"/>
  <rect x="24" y="10" width="5" height="3" fill="#8b7355"/>
</svg>
