<svg xmlns="http://www.w3.org/2000/svg" viewBox="0 0 32 32" width="32" height="32">
  <!-- Mimic Walk Frame 4: Attack (tongue lash) -->

  <!-- Shadow -->
  <rect x="10" y="28" width="12" height="2" fill="#1a252f"/>

  <!-- Tentacle legs -->
  <rect x="7" y="22" width="3" height="6" fill="#4a235a"/>
  <rect x="22" y="22" width="3" height="6" fill="#4a235a"/>
  <rect x="12" y="24" width="2" height="4" fill="#4a235a"/>
  <rect x="18" y="24" width="2" height="4" fill="#4a235a"/>

  <!-- Body (full monster) -->
  <rect x="10" y="16" width="12" height="10" fill="#4a235a"/>
  <rect x="11" y="17" width="10" height="8" fill="#7d3c98"/>

  <!-- Wide open mouth -->
  <rect x="9" y="10" width="14" height="8" fill="#922b21"/>
  <rect x="10" y="12" width="12" height="6" fill="#c0392b"/>
  <rect x="11" y="13" width="10" height="4" fill="#e74c3c"/>

  <!-- More teeth -->
  <rect x="11" y="11" width="2" height="3" fill="#fdfefe"/>
  <rect x="14" y="11" width="2" height="3" fill="#fdfefe"/>
  <rect x="17" y="11" width="2" height="3" fill="#fdfefe"/>
  <rect x="20" y="11" width="2" height="3" fill="#fdfefe"/>
  <rect x="12" y="15" width="2" height="2" fill="#fdfefe"/>
  <rect x="15" y="15" width="2" height="2" fill="#fdfefe"/>
  <rect x="18" y="15" width="2" height="2" fill="#fdfefe"/>

  <!-- Extended tongue attack -->
  <rect x="15" y="6" width="2" height="5" fill="#c0392b"/>
  <rect x="14" y="6" width="4" height="2" fill="#e74c3c"/>

  <!-- Angry eyes -->
  <rect x="11" y="9" width="3" height="2" fill="#f4d03f"/>
  <rect x="18" y="9" width="3" height="2" fill="#f4d03f"/>
  <rect x="12" y="10" width="1" height="1" fill="#1a252f"/>
  <rect x="19" y="10" width="1" height="1" fill="#1a252f"/>

  <!-- Gold coins spilling -->
  <rect x="8" y="20" width="2" height="2" fill="#f4d03f"/>
  <rect x="22" y="22" width="2" height="2" fill="#f4d03f"/>
</svg>
