<svg xmlns="http://www.w3.org/2000/svg" viewBox="0 0 32 32" width="32" height="32">
  <!-- Warlord Walk Frame 2: Mid stride -->

  <!-- Shadow -->
  <rect x="6" y="28" width="20" height="3" fill="#1a252f" opacity="0.5"/>

  <!-- Legs -->
  <rect x="10" y="22" width="5" height="6" fill="#34495e"/>
  <rect x="17" y="22" width="5" height="6" fill="#34495e"/>
  <rect x="9" y="26" width="6" height="2" fill="#2c3e50"/>
  <rect x="17" y="26" width="6" height="2" fill="#2c3e50"/>

  <!-- Body -->
  <rect x="7" y="12" width="18" height="10" fill="#5d6d7e"/>
  <rect x="9" y="14" width="14" height="6" fill="#34495e"/>
  <rect x="11" y="16" width="10" height="2" fill="#7f8c8d"/>

  <!-- Pauldrons -->
  <rect x="3" y="12" width="6" height="7" fill="#5d6d7e"/>
  <rect x="23" y="12" width="6" height="7" fill="#5d6d7e"/>
  <rect x="4" y="13" width="4" height="3" fill="#7f8c8d"/>
  <rect x="24" y="13" width="4" height="3" fill="#7f8c8d"/>

  <!-- Head with horned helm -->
  <rect x="9" y="5" width="14" height="8" fill="#5d6d7e"/>
  <rect x="11" y="7" width="3" height="3" fill="#c0392b"/>
  <rect x="18" y="7" width="3" height="3" fill="#c0392b"/>
  <!-- Horns -->
  <rect x="6" y="3" width="5" height="7" fill="#5d6d7e"/>
  <rect x="21" y="3" width="5" height="7" fill="#5d6d7e"/>
  <rect x="7" y="0" width="3" height="5" fill="#34495e"/>
  <rect x="22" y="0" width="3" height="5" fill="#34495e"/>

  <!-- Cape flowing -->
  <rect x="10" y="20" width="12" height="6" fill="#c0392b"/>
  <rect x="12" y="22" width="8" height="5" fill="#922b21"/>
</svg>
