<svg xmlns="http://www.w3.org/2000/svg" viewBox="0 0 32 32" width="32" height="32">
  <!-- Mimic Walk Frame 2: Wobble/tell (subtle movement) -->

  <!-- Shadow wobble -->
  <rect x="9" y="28" width="14" height="2" fill="#1a252f"/>

  <!-- Chest body (shifted) -->
  <rect x="10" y="17" width="12" height="11" fill="#6e2c00"/>
  <rect x="11" y="18" width="10" height="9" fill="#a04000"/>

  <!-- Metal bands -->
  <rect x="10" y="19" width="12" height="1" fill="#5d6d7e"/>
  <rect x="10" y="23" width="12" height="1" fill="#5d6d7e"/>

  <!-- Chest lid (tilted slightly) -->
  <rect x="9" y="13" width="14" height="5" fill="#6e2c00"/>
  <rect x="10" y="14" width="12" height="3" fill="#a04000"/>

  <!-- Lock -->
  <rect x="14" y="15" width="4" height="4" fill="#d4ac0d"/>
  <rect x="15" y="16" width="2" height="2" fill="#f4d03f"/>
  <rect x="15" y="17" width="2" height="1" fill="#1a252f"/>

  <!-- Hidden eye peeking -->
  <rect x="20" y="16" width="2" height="1" fill="#e74c3c"/>

  <!-- Corners -->
  <rect x="10" y="13" width="2" height="2" fill="#5d6d7e"/>
  <rect x="20" y="13" width="2" height="2" fill="#5d6d7e"/>
  <rect x="10" y="26" width="2" height="2" fill="#5d6d7e"/>
  <rect x="20" y="26" width="2" height="2" fill="#5d6d7e"/>
</svg>
