<svg xmlns="http://www.w3.org/2000/svg" viewBox="0 0 32 32" width="32" height="32">
  <!-- Berserker Walk Frame 4: Enraged (low HP glow) -->

  <!-- Shadow -->
  <rect x="11" y="28" width="10" height="2" fill="#1a252f"/>

  <!-- Rage aura -->
  <rect x="10" y="14" width="1" height="8" fill="#f4d03f"/>
  <rect x="21" y="14" width="1" height="8" fill="#f4d03f"/>
  <rect x="14" y="8" width="4" height="1" fill="#f4d03f"/>

  <!-- Legs -->
  <rect x="13" y="24" width="3" height="4" fill="#7b241c"/>
  <rect x="16" y="24" width="3" height="4" fill="#7b241c"/>
  <rect x="12" y="26" width="4" height="2" fill="#5d4e37"/>
  <rect x="16" y="26" width="4" height="2" fill="#5d4e37"/>

  <!-- Glowing body -->
  <rect x="12" y="16" width="8" height="8" fill="#e74c3c"/>
  <rect x="13" y="17" width="6" height="6" fill="#f5b7b1"/>
  <rect x="14" y="18" width="1" height="4" fill="#c0392b"/>
  <rect x="17" y="18" width="1" height="4" fill="#c0392b"/>

  <!-- Arms -->
  <rect x="10" y="17" width="2" height="5" fill="#e74c3c"/>
  <rect x="20" y="17" width="2" height="5" fill="#e74c3c"/>

  <!-- Screaming head -->
  <rect x="13" y="10" width="6" height="6" fill="#e74c3c"/>
  <rect x="14" y="11" width="4" height="4" fill="#f5b7b1"/>
  <rect x="12" y="8" width="8" height="3" fill="#a04000"/>
  <rect x="14" y="12" width="1" height="1" fill="#f4d03f"/>
  <rect x="17" y="12" width="1" height="1" fill="#f4d03f"/>
  <!-- Open mouth -->
  <rect x="15" y="13" width="2" height="1" fill="#1a252f"/>
</svg>
