<svg xmlns="http://www.w3.org/2000/svg" viewBox="0 0 32 32" width="32" height="32">
  <!-- Assassin Walk Frame 3: Fully revealed (aggressive) -->

  <!-- Shadow -->
  <rect x="11" y="28" width="10" height="2" fill="#1a252f"/>

  <!-- Legs (attack stance) -->
  <rect x="12" y="23" width="3" height="5" fill="#1a252f"/>
  <rect x="17" y="24" width="3" height="4" fill="#1a252f"/>
  <rect x="11" y="26" width="4" height="2" fill="#34495e"/>
  <rect x="17" y="26" width="4" height="2" fill="#34495e"/>

  <!-- Sleek body -->
  <rect x="12" y="15" width="8" height="8" fill="#1a252f"/>
  <rect x="13" y="16" width="6" height="6" fill="#34495e"/>

  <!-- Arms with daggers -->
  <rect x="9" y="16" width="3" height="4" fill="#1a252f"/>
  <rect x="20" y="16" width="3" height="4" fill="#1a252f"/>
  <!-- Twin daggers -->
  <rect x="8" y="14" width="1" height="4" fill="#aeb6bf"/>
  <rect x="23" y="14" width="1" height="4" fill="#aeb6bf"/>

  <!-- Head -->
  <rect x="13" y="9" width="6" height="6" fill="#1a252f"/>
  <rect x="14" y="10" width="4" height="4" fill="#34495e"/>
  <!-- Mask/bandana -->
  <rect x="14" y="12" width="4" height="2" fill="#1a252f"/>
  <!-- Glowing yellow eyes -->
  <rect x="14" y="11" width="1" height="1" fill="#f4d03f"/>
  <rect x="17" y="11" width="1" height="1" fill="#f4d03f"/>
</svg>
