<svg xmlns="http://www.w3.org/2000/svg" viewBox="0 0 32 32" width="32" height="32">
  <!-- Wraith Walk Frame 1: Ghostly glide -->

  <!-- No shadow (ethereal) -->

  <!-- Ethereal body (wavy bottom) -->
  <rect x="10" y="12" width="12" height="14" fill="#9b59b6"/>
  <rect x="8" y="14" width="4" height="10" fill="#8e44ad"/>
  <rect x="20" y="14" width="4" height="10" fill="#8e44ad"/>

  <!-- Wispy tendrils -->
  <rect x="6" y="22" width="4" height="6" fill="#9b59b6"/>
  <rect x="12" y="24" width="8" height="6" fill="#9b59b6"/>
  <rect x="22" y="22" width="4" height="6" fill="#9b59b6"/>
  <rect x="8" y="26" width="4" height="4" fill="#8e44ad"/>
  <rect x="20" y="26" width="4" height="4" fill="#8e44ad"/>

  <!-- Hood -->
  <rect x="8" y="4" width="16" height="10" fill="#8e44ad"/>
  <rect x="10" y="2" width="12" height="6" fill="#8e44ad"/>

  <!-- Face (hollow eyes) -->
  <rect x="10" y="6" width="4" height="5" fill="#d7bde2"/>
  <rect x="18" y="6" width="4" height="5" fill="#d7bde2"/>
  <rect x="11" y="8" width="2" height="2" fill="#1a252f"/>
  <rect x="19" y="8" width="2" height="2" fill="#1a252f"/>

  <!-- Ghostly wisps -->
  <rect x="4" y="16" width="3" height="4" fill="#d7bde2" opacity="0.7"/>
  <rect x="25" y="14" width="3" height="5" fill="#d7bde2" opacity="0.7"/>
</svg>
