<svg xmlns="http://www.w3.org/2000/svg" viewBox="0 0 32 32" width="32" height="32">
  <!-- Berserker Walk Frame 3: Overhead swing -->

  <!-- Shadow -->
  <rect x="11" y="28" width="10" height="2" fill="#1a252f"/>

  <!-- Legs planted -->
  <rect x="13" y="23" width="3" height="5" fill="#7b241c"/>
  <rect x="16" y="23" width="3" height="5" fill="#7b241c"/>
  <rect x="12" y="26" width="4" height="2" fill="#5d4e37"/>
  <rect x="16" y="26" width="4" height="2" fill="#5d4e37"/>

  <!-- Body -->
  <rect x="12" y="15" width="8" height="8" fill="#dc7633"/>
  <rect x="13" y="16" width="6" height="6" fill="#f5cba7"/>
  <rect x="14" y="17" width="1" height="4" fill="#c0392b"/>
  <rect x="17" y="17" width="1" height="4" fill="#c0392b"/>

  <!-- Arms raised -->
  <rect x="11" y="10" width="2" height="6" fill="#dc7633"/>
  <rect x="19" y="10" width="2" height="6" fill="#dc7633"/>

  <!-- Head -->
  <rect x="13" y="9" width="6" height="6" fill="#dc7633"/>
  <rect x="14" y="10" width="4" height="4" fill="#f5cba7"/>
  <rect x="12" y="7" width="8" height="3" fill="#a04000"/>
  <rect x="14" y="11" width="1" height="1" fill="#1a252f"/>
  <rect x="17" y="11" width="1" height="1" fill="#1a252f"/>

  <!-- Axes overhead -->
  <rect x="9" y="6" width="2" height="5" fill="#5d4e37"/>
  <rect x="8" y="6" width="4" height="2" fill="#5d6d7e"/>
  <rect x="21" y="6" width="2" height="5" fill="#5d4e37"/>
  <rect x="20" y="6" width="4" height="2" fill="#5d6d7e"/>
</svg>
