<svg xmlns="http://www.w3.org/2000/svg" viewBox="0 0 32 32" width="32" height="32">
  <!-- Ice Elemental Walk Frame 2: Crystals centered -->

  <!-- Frost effect below -->
  <ellipse cx="16" cy="30" rx="7" ry="2" fill="#aed6f1" opacity="0.5"/>

  <!-- Base -->
  <rect x="8" y="24" width="16" height="6" fill="#3498db"/>
  <rect x="6" y="26" width="5" height="4" fill="#2980b9"/>
  <rect x="21" y="26" width="5" height="4" fill="#2980b9"/>

  <!-- Core body - taller -->
  <rect x="8" y="10" width="16" height="16" fill="#3498db"/>
  <rect x="10" y="12" width="12" height="12" fill="#5dade2"/>
  <rect x="12" y="14" width="8" height="8" fill="#aed6f1"/>

  <!-- Crystal arms - both up -->
  <rect x="2" y="12" width="8" height="10" fill="#3498db"/>
  <rect x="3" y="14" width="5" height="6" fill="#5dade2"/>
  <rect x="2" y="8" width="5" height="6" fill="#5dade2"/>
  <rect x="3" y="9" width="2" height="3" fill="#ecf0f1"/>

  <rect x="22" y="12" width="8" height="10" fill="#3498db"/>
  <rect x="24" y="14" width="5" height="6" fill="#5dade2"/>
  <rect x="25" y="8" width="5" height="6" fill="#5dade2"/>
  <rect x="27" y="9" width="2" height="3" fill="#ecf0f1"/>

  <!-- Crystal head -->
  <rect x="9" y="4" width="14" height="8" fill="#3498db"/>
  <rect x="11" y="2" width="10" height="6" fill="#5dade2"/>
  <!-- Crystal spires -->
  <rect x="8" y="0" width="4" height="4" fill="#3498db"/>
  <rect x="9" y="1" width="2" height="2" fill="#aed6f1"/>
  <rect x="20" y="0" width="4" height="4" fill="#3498db"/>
  <rect x="21" y="1" width="2" height="2" fill="#aed6f1"/>

  <!-- Eyes -->
  <rect x="11" y="6" width="3" height="3" fill="#ecf0f1"/>
  <rect x="18" y="6" width="3" height="3" fill="#ecf0f1"/>
  <rect x="12" y="7" width="1" height="1" fill="#3498db"/>
  <rect x="19" y="7" width="1" height="1" fill="#3498db"/>
</svg>
