<svg xmlns="http://www.w3.org/2000/svg" viewBox="0 0 32 32" width="32" height="32">
  <!-- Holy Tower Attack Frame 1: Divine energy gathering -->

  <!-- Base -->
  <rect x="10" y="24" width="12" height="6" fill="#f39c12"/>
  <rect x="12" y="26" width="8" height="4" fill="#f4d03f"/>

  <!-- Tower body -->
  <rect x="12" y="14" width="8" height="12" fill="#ecf0f1"/>
  <rect x="13" y="16" width="6" height="8" fill="#f4d03f"/>

  <!-- Cross (charging) -->
  <rect x="14" y="6" width="4" height="10" fill="#f4d03f"/>
  <rect x="11" y="9" width="10" height="4" fill="#f4d03f"/>
  <rect x="15" y="7" width="2" height="8" fill="#ecf0f1"/>
  <rect x="12" y="10" width="8" height="2" fill="#ecf0f1"/>

  <!-- Gathering light particles -->
  <rect x="8" y="6" width="2" height="2" fill="#fcf3cf"/>
  <rect x="22" y="6" width="2" height="2" fill="#fcf3cf"/>
  <rect x="10" y="2" width="2" height="2" fill="#f9e79f"/>
  <rect x="20" y="2" width="2" height="2" fill="#f9e79f"/>
  <rect x="6" y="10" width="2" height="2" fill="#fcf3cf" opacity="0.7"/>
  <rect x="24" y="10" width="2" height="2" fill="#fcf3cf" opacity="0.7"/>

  <!-- Inner glow -->
  <rect x="14" y="8" width="4" height="6" fill="#ffffff" opacity="0.4"/>

  <!-- Window -->
  <rect x="14" y="18" width="4" height="4" fill="#f39c12"/>
  <rect x="15" y="19" width="2" height="2" fill="#fcf3cf"/>
</svg>
