<svg xmlns="http://www.w3.org/2000/svg" viewBox="0 0 32 32" width="32" height="32">
  <!-- Tower Arcane Attack Frame 1: Channeling -->
  <!-- Magic circle forming -->
  <!-- Color Palette: #9370db (purple), #ba55d3 (orchid), #e6e6fa (lavender), #4c1d95 (dark purple) -->

  <!-- Tower base (mystical stone) -->
  <rect x="8" y="20" width="16" height="12" fill="#4c1d95"/>
  <rect x="10" y="22" width="12" height="8" fill="#6b2db8"/>
  
  <!-- Tower middle section -->
  <rect x="10" y="10" width="12" height="12" fill="#4c1d95"/>
  <rect x="12" y="12" width="8" height="8" fill="#6b2db8"/>
  
  <!-- Crystal spire -->
  <rect x="13" y="2" width="6" height="10" fill="#9370db"/>
  <rect x="14" y="3" width="4" height="8" fill="#ba55d3"/>
  <rect x="15" y="4" width="2" height="6" fill="#e6e6fa"/>
  
  <!-- Magic circle (forming) -->
  <rect x="8" y="6" width="16" height="1" fill="#9370db" opacity="0.5"/>
  <rect x="6" y="8" width="2" height="1" fill="#9370db" opacity="0.5"/>
  <rect x="24" y="8" width="2" height="1" fill="#9370db" opacity="0.5"/>
  <rect x="8" y="10" width="16" height="1" fill="#9370db" opacity="0.5"/>
  
  <!-- Rune glow points -->
  <rect x="10" y="7" width="2" height="2" fill="#ba55d3"/>
  <rect x="20" y="7" width="2" height="2" fill="#ba55d3"/>
  <rect x="15" y="0" width="2" height="2" fill="#e6e6fa"/>
  
  <!-- Tower windows -->
  <rect x="13" y="14" width="2" height="3" fill="#1a1a2e"/>
  <rect x="17" y="14" width="2" height="3" fill="#1a1a2e"/>
  <rect x="13" y="14" width="2" height="1" fill="#9370db" opacity="0.5"/>
  <rect x="17" y="14" width="2" height="1" fill="#9370db" opacity="0.5"/>
  
  <!-- Base runes -->
  <rect x="9" y="24" width="2" height="2" fill="#9370db"/>
  <rect x="21" y="24" width="2" height="2" fill="#9370db"/>
  <rect x="15" y="26" width="2" height="2" fill="#9370db"/>
  
  <!-- Base details -->
  <rect x="8" y="30" width="16" height="2" fill="#2c3e50"/>
</svg>
