<svg xmlns="http://www.w3.org/2000/svg" viewBox="0 0 12 20" width="12" height="20">
  <!-- Lightning Spell (12x20) - Electric bolt -->
  <!-- Color Palette: #f4d03f, #fdfefe, #f39c12, #3498db -->

  <!-- Main bolt -->
  <rect x="5" y="0" width="3" height="4" fill="#f4d03f"/>
  <rect x="6" y="0" width="2" height="4" fill="#fdfefe"/>

  <rect x="3" y="4" width="4" height="3" fill="#f4d03f"/>
  <rect x="4" y="4" width="2" height="3" fill="#fdfefe"/>

  <rect x="5" y="7" width="4" height="3" fill="#f4d03f"/>
  <rect x="6" y="7" width="2" height="3" fill="#fdfefe"/>

  <rect x="2" y="10" width="4" height="3" fill="#f4d03f"/>
  <rect x="3" y="10" width="2" height="3" fill="#fdfefe"/>

  <rect x="4" y="13" width="4" height="3" fill="#f4d03f"/>
  <rect x="5" y="13" width="2" height="3" fill="#fdfefe"/>

  <rect x="3" y="16" width="4" height="4" fill="#f4d03f"/>
  <rect x="4" y="17" width="2" height="3" fill="#fdfefe"/>

  <!-- Electric sparks -->
  <rect x="0" y="5" width="2" height="1" fill="#5dade2"/>
  <rect x="9" y="3" width="2" height="1" fill="#5dade2"/>
  <rect x="1" y="11" width="1" height="2" fill="#f39c12"/>
  <rect x="8" y="9" width="2" height="1" fill="#f39c12"/>
  <rect x="0" y="15" width="1" height="1" fill="#5dade2"/>
  <rect x="10" y="14" width="2" height="1" fill="#5dade2"/>
</svg>
