<svg xmlns="http://www.w3.org/2000/svg" viewBox="0 0 14 14" width="14" height="14">
  <!-- Arcane Spell (14x14) - Magic missile -->
  <!-- Color Palette: #9b59b6, #8e44ad, #6c3483, #d7bde2 -->

  <!-- Outer energy -->
  <rect x="4" y="1" width="6" height="2" fill="#9b59b6"/>
  <rect x="2" y="3" width="10" height="2" fill="#9b59b6"/>
  <rect x="1" y="5" width="12" height="4" fill="#8e44ad"/>
  <rect x="2" y="9" width="10" height="2" fill="#9b59b6"/>
  <rect x="4" y="11" width="6" height="2" fill="#9b59b6"/>

  <!-- Core -->
  <rect x="4" y="4" width="6" height="6" fill="#8e44ad"/>
  <rect x="5" y="5" width="4" height="4" fill="#6c3483"/>

  <!-- Bright center -->
  <rect x="6" y="6" width="2" height="2" fill="#d7bde2"/>

  <!-- Energy wisps -->
  <rect x="0" y="6" width="2" height="2" fill="#9b59b6"/>
  <rect x="12" y="6" width="2" height="2" fill="#9b59b6"/>
  <rect x="6" y="0" width="2" height="2" fill="#9b59b6"/>
  <rect x="6" y="12" width="2" height="2" fill="#9b59b6"/>

  <!-- Sparkles -->
  <rect x="2" y="2" width="1" height="1" fill="#d7bde2"/>
  <rect x="11" y="2" width="1" height="1" fill="#d7bde2"/>
  <rect x="2" y="11" width="1" height="1" fill="#d7bde2"/>
  <rect x="11" y="11" width="1" height="1" fill="#d7bde2"/>
</svg>
