<svg xmlns="http://www.w3.org/2000/svg" viewBox="0 0 14 18" width="14" height="18">
  <!-- Teleport Spell (14x18) - Warp effect -->
  <!-- Color Palette: #3498db, #9b59b6, #5dade2, #fdfefe -->

  <!-- Spiral warp lines -->
  <rect x="6" y="0" width="2" height="3" fill="#5dade2"/>
  <rect x="8" y="2" width="3" height="2" fill="#3498db"/>
  <rect x="10" y="4" width="3" height="2" fill="#9b59b6"/>
  <rect x="10" y="6" width="2" height="3" fill="#3498db"/>
  <rect x="8" y="8" width="3" height="2" fill="#5dade2"/>
  <rect x="6" y="9" width="3" height="2" fill="#9b59b6"/>
  <rect x="3" y="8" width="3" height="2" fill="#3498db"/>
  <rect x="1" y="6" width="3" height="3" fill="#5dade2"/>
  <rect x="1" y="4" width="2" height="2" fill="#9b59b6"/>
  <rect x="3" y="2" width="3" height="2" fill="#3498db"/>

  <!-- Center portal -->
  <rect x="4" y="5" width="6" height="6" fill="#3498db"/>
  <rect x="5" y="6" width="4" height="4" fill="#9b59b6"/>
  <rect x="6" y="7" width="2" height="2" fill="#fdfefe"/>

  <!-- Bottom fade -->
  <rect x="4" y="12" width="6" height="2" fill="#5dade2"/>
  <rect x="5" y="14" width="4" height="2" fill="#3498db"/>
  <rect x="6" y="16" width="2" height="2" fill="#9b59b6"/>

  <!-- Sparkles -->
  <rect x="0" y="3" width="1" height="1" fill="#fdfefe"/>
  <rect x="13" y="5" width="1" height="1" fill="#fdfefe"/>
  <rect x="2" y="11" width="1" height="1" fill="#fdfefe"/>
  <rect x="11" y="10" width="1" height="1" fill="#fdfefe"/>
</svg>
