<svg xmlns="http://www.w3.org/2000/svg" viewBox="0 0 16 16" width="16" height="16">
  <!-- Summon Spell (16x16) - Conjuration circle -->
  <!-- Color Palette: #9b59b6, #8e44ad, #f4d03f, #fdfefe -->

  <!-- Magic circle outer -->
  <rect x="4" y="0" width="8" height="1" fill="#9b59b6"/>
  <rect x="2" y="1" width="3" height="1" fill="#9b59b6"/>
  <rect x="11" y="1" width="3" height="1" fill="#9b59b6"/>
  <rect x="1" y="2" width="2" height="2" fill="#9b59b6"/>
  <rect x="13" y="2" width="2" height="2" fill="#9b59b6"/>
  <rect x="0" y="4" width="1" height="8" fill="#9b59b6"/>
  <rect x="15" y="4" width="1" height="8" fill="#9b59b6"/>
  <rect x="1" y="12" width="2" height="2" fill="#9b59b6"/>
  <rect x="13" y="12" width="2" height="2" fill="#9b59b6"/>
  <rect x="2" y="14" width="3" height="1" fill="#9b59b6"/>
  <rect x="11" y="14" width="3" height="1" fill="#9b59b6"/>
  <rect x="4" y="15" width="8" height="1" fill="#9b59b6"/>

  <!-- Inner circle -->
  <rect x="5" y="5" width="6" height="6" fill="#8e44ad"/>
  <rect x="6" y="6" width="4" height="4" fill="#6c3483"/>

  <!-- Rune symbols -->
  <rect x="7" y="7" width="2" height="2" fill="#f4d03f"/>

  <!-- Pentagram points -->
  <rect x="7" y="2" width="2" height="2" fill="#f4d03f"/>
  <rect x="2" y="6" width="2" height="2" fill="#f4d03f"/>
  <rect x="12" y="6" width="2" height="2" fill="#f4d03f"/>
  <rect x="4" y="12" width="2" height="2" fill="#f4d03f"/>
  <rect x="10" y="12" width="2" height="2" fill="#f4d03f"/>

  <!-- Energy burst -->
  <rect x="7" y="4" width="2" height="1" fill="#fdfefe"/>
  <rect x="4" y="7" width="1" height="2" fill="#fdfefe"/>
  <rect x="11" y="7" width="1" height="2" fill="#fdfefe"/>
  <rect x="7" y="11" width="2" height="1" fill="#fdfefe"/>
</svg>
