<svg xmlns="http://www.w3.org/2000/svg" viewBox="0 0 20 20" width="20" height="20">
  <!-- First Win Achievement (20x20) - Victory trophy -->
  <!-- Color Palette: #f4d03f, #e67e22, #d4a017, #fdfefe, #8b7355 -->

  <!-- Trophy base -->
  <rect x="6" y="16" width="8" height="2" fill="#8b7355"/>
  <rect x="7" y="15" width="6" height="2" fill="#5d4e37"/>
  <rect x="8" y="18" width="4" height="2" fill="#5d4e37"/>

  <!-- Trophy stem -->
  <rect x="9" y="12" width="2" height="4" fill="#f4d03f"/>
  <rect x="9" y="12" width="1" height="4" fill="#e67e22"/>

  <!-- Trophy cup -->
  <rect x="4" y="2" width="12" height="10" fill="#f4d03f"/>
  <rect x="5" y="1" width="10" height="1" fill="#e67e22"/>
  <rect x="3" y="3" width="1" height="6" fill="#e67e22"/>
  <rect x="16" y="3" width="1" height="6" fill="#e67e22"/>
  <rect x="5" y="11" width="10" height="1" fill="#d4a017"/>

  <!-- Trophy handles -->
  <rect x="1" y="3" width="3" height="4" fill="#f4d03f"/>
  <rect x="0" y="4" width="2" height="2" fill="#e67e22"/>
  <rect x="16" y="3" width="3" height="4" fill="#f4d03f"/>
  <rect x="18" y="4" width="2" height="2" fill="#e67e22"/>

  <!-- Star on trophy -->
  <rect x="9" y="4" width="2" height="5" fill="#fdfefe"/>
  <rect x="7" y="5" width="6" height="3" fill="#fdfefe"/>
  <rect x="9" y="5" width="2" height="3" fill="#f4d03f"/>

  <!-- Shine -->
  <rect x="5" y="2" width="2" height="2" fill="#fdfefe" opacity="0.5"/>
</svg>
