<svg xmlns="http://www.w3.org/2000/svg" viewBox="0 0 20 20" width="20" height="20">
  <!-- Perfect Score Achievement (20x20) - 100% accuracy -->
  <!-- Color Palette: #27ae60, #1e8449, #f4d03f, #fdfefe -->

  <!-- Circle background -->
  <rect x="4" y="2" width="12" height="16" fill="#27ae60"/>
  <rect x="6" y="1" width="8" height="1" fill="#1e8449"/>
  <rect x="6" y="18" width="8" height="1" fill="#1e8449"/>
  <rect x="3" y="4" width="1" height="12" fill="#1e8449"/>
  <rect x="16" y="4" width="1" height="12" fill="#1e8449"/>

  <!-- Inner circle -->
  <rect x="6" y="4" width="8" height="12" fill="#2ecc71"/>

  <!-- Checkmark -->
  <rect x="6" y="9" width="2" height="4" fill="#fdfefe"/>
  <rect x="7" y="11" width="2" height="2" fill="#fdfefe"/>
  <rect x="9" y="9" width="2" height="4" fill="#fdfefe"/>
  <rect x="11" y="7" width="2" height="4" fill="#fdfefe"/>
  <rect x="13" y="5" width="2" height="4" fill="#fdfefe"/>

  <!-- Star decorations -->
  <rect x="5" y="4" width="1" height="1" fill="#f4d03f"/>
  <rect x="14" y="4" width="1" height="1" fill="#f4d03f"/>
  <rect x="5" y="15" width="1" height="1" fill="#f4d03f"/>
  <rect x="14" y="15" width="1" height="1" fill="#f4d03f"/>
</svg>
