<svg xmlns="http://www.w3.org/2000/svg" viewBox="0 0 16 16" width="16" height="16">
  <!-- Ward of Calm Buff Icon - 16x16 (shield / protection) -->

  <!-- Shield body -->
  <rect x="3" y="1" width="10" height="2" fill="#5dade2"/>
  <rect x="2" y="3" width="12" height="2" fill="#5dade2"/>
  <rect x="2" y="5" width="12" height="2" fill="#5dade2"/>
  <rect x="3" y="7" width="10" height="2" fill="#5dade2"/>
  <rect x="4" y="9" width="8" height="2" fill="#5dade2"/>
  <rect x="5" y="11" width="6" height="2" fill="#5dade2"/>
  <rect x="6" y="13" width="4" height="2" fill="#5dade2"/>
  <rect x="7" y="15" width="2" height="1" fill="#5dade2"/>

  <!-- Shield highlight (left side) -->
  <rect x="3" y="1" width="2" height="2" fill="#85c1e9"/>
  <rect x="2" y="3" width="3" height="4" fill="#85c1e9"/>
  <rect x="3" y="7" width="2" height="2" fill="#85c1e9"/>
  <rect x="4" y="9" width="2" height="2" fill="#85c1e9"/>
  <rect x="5" y="11" width="1" height="2" fill="#85c1e9"/>

  <!-- Shield emblem (inner diamond) -->
  <rect x="7" y="4" width="2" height="1" fill="#aed6f1"/>
  <rect x="6" y="5" width="4" height="1" fill="#aed6f1"/>
  <rect x="7" y="6" width="2" height="1" fill="#aed6f1"/>
  <rect x="7" y="7" width="2" height="2" fill="#aed6f1"/>

  <!-- Shield edge shadow -->
  <rect x="12" y="3" width="1" height="4" fill="#3498db"/>
  <rect x="11" y="7" width="1" height="2" fill="#3498db"/>
  <rect x="10" y="9" width="1" height="2" fill="#3498db"/>
  <rect x="9" y="11" width="1" height="2" fill="#3498db"/>
  <rect x="8" y="13" width="1" height="2" fill="#3498db"/>

  <!-- Calm aura sparkles -->
  <rect x="0" y="4" width="1" height="1" fill="#aed6f1"/>
  <rect x="1" y="6" width="1" height="1" fill="#aed6f1"/>
  <rect x="14" y="5" width="1" height="1" fill="#aed6f1"/>
  <rect x="15" y="7" width="1" height="1" fill="#aed6f1"/>
</svg>
