<svg xmlns="http://www.w3.org/2000/svg" viewBox="0 0 16 16" width="16" height="16">
  <!-- Combo x2 Icon (16x16) - Double multiplier -->

  <!-- Background burst -->
  <rect x="2" y="2" width="12" height="12" fill="#e67e22"/>
  <rect x="3" y="1" width="10" height="2" fill="#e67e22"/>
  <rect x="3" y="13" width="10" height="2" fill="#e67e22"/>
  <rect x="1" y="3" width="2" height="10" fill="#e67e22"/>
  <rect x="13" y="3" width="2" height="10" fill="#e67e22"/>

  <!-- Inner area -->
  <rect x="3" y="3" width="10" height="10" fill="#f39c12"/>

  <!-- X character -->
  <rect x="2" y="4" width="2" height="2" fill="#fff"/>
  <rect x="3" y="5" width="2" height="2" fill="#fff"/>
  <rect x="4" y="6" width="2" height="2" fill="#fff"/>
  <rect x="5" y="7" width="2" height="2" fill="#fff"/>

  <rect x="5" y="5" width="2" height="2" fill="#fff"/>
  <rect x="4" y="4" width="2" height="2" fill="#fff"/>
  <rect x="3" y="7" width="2" height="2" fill="#fff"/>
  <rect x="2" y="8" width="2" height="2" fill="#fff"/>

  <!-- 2 character -->
  <rect x="9" y="4" width="4" height="2" fill="#fff"/>
  <rect x="11" y="5" width="2" height="2" fill="#fff"/>
  <rect x="10" y="7" width="2" height="2" fill="#fff"/>
  <rect x="9" y="8" width="2" height="2" fill="#fff"/>
  <rect x="9" y="10" width="4" height="2" fill="#fff"/>
</svg>
