<svg xmlns="http://www.w3.org/2000/svg" viewBox="0 0 16 16" width="16" height="16">
  <!-- Healer Enemy Icon (16x16) - Support enemy indicator -->

  <!-- Background circle -->
  <rect x="2" y="2" width="12" height="12" fill="#1e8449"/>
  <rect x="3" y="1" width="10" height="2" fill="#1e8449"/>
  <rect x="3" y="13" width="10" height="2" fill="#1e8449"/>
  <rect x="1" y="3" width="2" height="10" fill="#1e8449"/>
  <rect x="13" y="3" width="2" height="10" fill="#1e8449"/>

  <!-- Inner area -->
  <rect x="3" y="3" width="10" height="10" fill="#27ae60"/>

  <!-- Robed figure -->
  <rect x="5" y="4" width="6" height="8" fill="#922b21"/>
  <rect x="6" y="3" width="4" height="2" fill="#c0392b"/>

  <!-- Hood -->
  <rect x="6" y="3" width="4" height="3" fill="#7b241c"/>

  <!-- Face shadow -->
  <rect x="7" y="4" width="2" height="2" fill="#1a1a2e"/>

  <!-- Staff with healing symbol -->
  <rect x="10" y="3" width="2" height="10" fill="#8b4513"/>

  <!-- Healing cross on staff -->
  <rect x="11" y="4" width="2" height="4" fill="#2ecc71"/>
  <rect x="10" y="5" width="4" height="2" fill="#2ecc71"/>

  <!-- Healing glow -->
  <rect x="12" y="3" width="1" height="1" fill="#82e0aa"/>
  <rect x="13" y="6" width="1" height="1" fill="#82e0aa"/>
</svg>
