<svg xmlns="http://www.w3.org/2000/svg" viewBox="0 0 16 16" width="16" height="16">
  <!-- Settings Icon (16x16) - Gear/cog -->

  <!-- Gear teeth (outer) -->
  <rect x="6" y="0" width="4" height="2" fill="#5a5a6a"/>
  <rect x="6" y="14" width="4" height="2" fill="#5a5a6a"/>
  <rect x="0" y="6" width="2" height="4" fill="#5a5a6a"/>
  <rect x="14" y="6" width="2" height="4" fill="#5a5a6a"/>

  <!-- Diagonal teeth -->
  <rect x="2" y="2" width="3" height="3" fill="#5a5a6a"/>
  <rect x="11" y="2" width="3" height="3" fill="#5a5a6a"/>
  <rect x="2" y="11" width="3" height="3" fill="#5a5a6a"/>
  <rect x="11" y="11" width="3" height="3" fill="#5a5a6a"/>

  <!-- Gear body -->
  <rect x="3" y="3" width="10" height="10" fill="#6a6a7a"/>
  <rect x="4" y="2" width="8" height="12" fill="#6a6a7a"/>
  <rect x="2" y="4" width="12" height="8" fill="#6a6a7a"/>

  <!-- Inner gear body -->
  <rect x="4" y="4" width="8" height="8" fill="#7a7a8a"/>

  <!-- Center hole -->
  <rect x="6" y="6" width="4" height="4" fill="#3a3a4a"/>
  <rect x="7" y="7" width="2" height="2" fill="#2a2a3a"/>

  <!-- Highlight -->
  <rect x="4" y="4" width="2" height="6" fill="#8a8a9a"/>
  <rect x="5" y="3" width="2" height="2" fill="#9a9aaa"/>
</svg>
