<svg xmlns="http://www.w3.org/2000/svg" viewBox="0 0 16 16" width="16" height="16">
  <!-- Fullscreen Icon (16x16) -->

  <!-- Top-left corner -->
  <rect x="1" y="1" width="4" height="2" fill="#5d6d7e"/>
  <rect x="1" y="1" width="2" height="4" fill="#5d6d7e"/>

  <!-- Top-right corner -->
  <rect x="11" y="1" width="4" height="2" fill="#5d6d7e"/>
  <rect x="13" y="1" width="2" height="4" fill="#5d6d7e"/>

  <!-- Bottom-left corner -->
  <rect x="1" y="13" width="4" height="2" fill="#5d6d7e"/>
  <rect x="1" y="11" width="2" height="4" fill="#5d6d7e"/>

  <!-- Bottom-right corner -->
  <rect x="11" y="13" width="4" height="2" fill="#5d6d7e"/>
  <rect x="13" y="11" width="2" height="4" fill="#5d6d7e"/>

  <!-- Arrows pointing outward -->
  <rect x="3" y="3" width="2" height="1" fill="#3498db"/>
  <rect x="3" y="3" width="1" height="2" fill="#3498db"/>

  <rect x="11" y="3" width="2" height="1" fill="#3498db"/>
  <rect x="12" y="3" width="1" height="2" fill="#3498db"/>

  <rect x="3" y="12" width="2" height="1" fill="#3498db"/>
  <rect x="3" y="11" width="1" height="2" fill="#3498db"/>

  <rect x="11" y="12" width="2" height="1" fill="#3498db"/>
  <rect x="12" y="11" width="1" height="2" fill="#3498db"/>
</svg>
