<svg xmlns="http://www.w3.org/2000/svg" viewBox="0 0 16 16" width="16" height="16">
  <!-- Empty Heart Icon (16x16) - Lost health/life -->

  <!-- Heart outline -->
  <!-- Top left lobe -->
  <rect x="1" y="3" width="6" height="5" fill="#5a5a6a"/>
  <rect x="2" y="2" width="4" height="2" fill="#5a5a6a"/>
  <rect x="3" y="1" width="2" height="2" fill="#5a5a6a"/>

  <!-- Top right lobe -->
  <rect x="9" y="3" width="6" height="5" fill="#5a5a6a"/>
  <rect x="10" y="2" width="4" height="2" fill="#5a5a6a"/>
  <rect x="11" y="1" width="2" height="2" fill="#5a5a6a"/>

  <!-- Center connection -->
  <rect x="6" y="4" width="4" height="4" fill="#5a5a6a"/>

  <!-- Lower body -->
  <rect x="3" y="7" width="10" height="3" fill="#5a5a6a"/>
  <rect x="4" y="10" width="8" height="2" fill="#5a5a6a"/>
  <rect x="5" y="12" width="6" height="2" fill="#5a5a6a"/>
  <rect x="6" y="14" width="4" height="1" fill="#5a5a6a"/>
  <rect x="7" y="15" width="2" height="1" fill="#5a5a6a"/>

  <!-- Inner empty -->
  <rect x="3" y="4" width="4" height="3" fill="#3a3a4a"/>
  <rect x="9" y="4" width="4" height="3" fill="#3a3a4a"/>
  <rect x="5" y="7" width="6" height="4" fill="#3a3a4a"/>
  <rect x="6" y="11" width="4" height="2" fill="#3a3a4a"/>
</svg>
