<svg xmlns="http://www.w3.org/2000/svg" viewBox="0 0 16 16" width="16" height="16">
  <!-- Key Icon (16x16) - Unlock/keyboard key -->
  <!-- Color Palette: #f4d03f, #e67e22, #d4a017, #fdfefe, #8b7355 -->

  <!-- Key head (ring) -->
  <rect x="2" y="2" width="6" height="6" fill="#f4d03f"/>
  <rect x="3" y="1" width="4" height="1" fill="#e67e22"/>
  <rect x="3" y="8" width="4" height="1" fill="#e67e22"/>
  <rect x="1" y="3" width="1" height="4" fill="#e67e22"/>
  <rect x="8" y="3" width="1" height="4" fill="#e67e22"/>

  <!-- Key head hole -->
  <rect x="4" y="4" width="2" height="2" fill="#8b7355"/>

  <!-- Key shaft -->
  <rect x="8" y="4" width="6" height="2" fill="#f4d03f"/>
  <rect x="8" y="4" width="6" height="1" fill="#e67e22"/>

  <!-- Key teeth -->
  <rect x="12" y="6" width="2" height="2" fill="#f4d03f"/>
  <rect x="10" y="6" width="1" height="3" fill="#f4d03f"/>
  <rect x="12" y="6" width="1" height="1" fill="#e67e22"/>
  <rect x="10" y="7" width="1" height="2" fill="#d4a017"/>
  <rect x="14" y="5" width="1" height="2" fill="#d4a017"/>

  <!-- Highlight -->
  <rect x="3" y="2" width="2" height="2" fill="#fdfefe" opacity="0.4"/>
  <rect x="9" y="4" width="2" height="1" fill="#fdfefe" opacity="0.3"/>
</svg>
