<svg xmlns="http://www.w3.org/2000/svg" viewBox="0 0 12 12" width="12" height="12">
  <!-- Boss Marker (12x12) - red demon skull -->
  
  <!-- Horns -->
  <rect x="0" y="0" width="2" height="4" fill="#c0392b"/>
  <rect x="1" y="1" width="2" height="4" fill="#e74c3c"/>
  <rect x="10" y="0" width="2" height="4" fill="#c0392b"/>
  <rect x="9" y="1" width="2" height="4" fill="#e74c3c"/>
  
  <!-- Skull -->
  <rect x="2" y="3" width="8" height="6" fill="#922b21"/>
  <rect x="3" y="4" width="6" height="4" fill="#c0392b"/>
  <rect x="3" y="9" width="6" height="2" fill="#922b21"/>
  
  <!-- Eyes (glowing) -->
  <rect x="3" y="5" width="2" height="2" fill="#f4d03f"/>
  <rect x="7" y="5" width="2" height="2" fill="#f4d03f"/>
  <rect x="4" y="5" width="1" height="1" fill="#fdfefe"/>
  <rect x="8" y="5" width="1" height="1" fill="#fdfefe"/>
  
  <!-- Teeth -->
  <rect x="4" y="9" width="1" height="2" fill="#bdc3c7"/>
  <rect x="5" y="10" width="1" height="1" fill="#bdc3c7"/>
  <rect x="6" y="10" width="1" height="1" fill="#bdc3c7"/>
  <rect x="7" y="9" width="1" height="2" fill="#bdc3c7"/>
</svg>
