<svg xmlns="http://www.w3.org/2000/svg" viewBox="0 0 16 16" width="16" height="16">
  <!-- Shrine POI - morale/lore -->
  <!-- Base platform -->
  <rect x="2" y="12" width="12" height="4" fill="#6a6a7a"/>
  <rect x="3" y="11" width="10" height="2" fill="#7a7a7a"/>
  <!-- Shrine pillars -->
  <rect x="3" y="5" width="2" height="7" fill="#8a8a9a"/>
  <rect x="11" y="5" width="2" height="7" fill="#8a8a9a"/>
  <!-- Shrine roof -->
  <rect x="2" y="3" width="12" height="3" fill="#9b59b6"/>
  <rect x="4" y="2" width="8" height="2" fill="#8e44ad"/>
  <rect x="6" y="1" width="4" height="2" fill="#7d3c98"/>
  <!-- Roof peak -->
  <rect x="7" y="0" width="2" height="2" fill="#6c3483"/>
  <!-- Shrine interior glow -->
  <rect x="5" y="6" width="6" height="5" fill="#1a1a2e"/>
  <rect x="6" y="7" width="4" height="3" fill="#3498db"/>
  <rect x="7" y="8" width="2" height="1" fill="#5dade2"/>
  <!-- Candles -->
  <rect x="4" y="10" width="1" height="2" fill="#f4d03f"/>
  <rect x="4" y="9" width="1" height="1" fill="#e74c3c"/>
  <rect x="11" y="10" width="1" height="2" fill="#f4d03f"/>
  <rect x="11" y="9" width="1" height="1" fill="#e74c3c"/>
</svg>
