<svg xmlns="http://www.w3.org/2000/svg" viewBox="0 0 16 16" width="16" height="16">
  <!-- Mine POI - ore/resources -->
  <!-- Mountain/cave entrance -->
  <rect x="0" y="8" width="16" height="8" fill="#5a5a6a"/>
  <rect x="2" y="6" width="12" height="4" fill="#6a6a7a"/>
  <rect x="4" y="4" width="8" height="4" fill="#7a7a8a"/>
  <rect x="6" y="2" width="4" height="4" fill="#6a6a7a"/>
  <!-- Cave entrance -->
  <rect x="5" y="9" width="6" height="7" fill="#1a1a2e"/>
  <rect x="6" y="8" width="4" height="2" fill="#1a1a2e"/>
  <!-- Support beams -->
  <rect x="5" y="8" width="1" height="8" fill="#5c3d2e"/>
  <rect x="10" y="8" width="1" height="8" fill="#5c3d2e"/>
  <rect x="5" y="8" width="6" height="1" fill="#5c3d2e"/>
  <!-- Ore veins -->
  <rect x="1" y="10" width="2" height="2" fill="#f4d03f"/>
  <rect x="13" y="11" width="2" height="1" fill="#f4d03f"/>
  <rect x="3" y="6" width="1" height="1" fill="#b7950b"/>
  <rect x="12" y="5" width="1" height="1" fill="#b7950b"/>
  <!-- Pickaxe hint -->
  <rect x="12" y="13" width="3" height="1" fill="#7a7a7a"/>
  <rect x="14" y="11" width="1" height="3" fill="#5c3d2e"/>
</svg>
