<svg xmlns="http://www.w3.org/2000/svg" viewBox="0 0 16 16" width="16" height="16">
  <!-- Crossroads POI - navigation/choice -->
  <!-- Grass base -->
  <rect x="0" y="0" width="16" height="16" fill="#4a8c3f"/>
  <!-- Roads -->
  <rect x="6" y="0" width="4" height="16" fill="#8b6914"/>
  <rect x="0" y="6" width="16" height="4" fill="#8b6914"/>
  <!-- Road highlights -->
  <rect x="7" y="0" width="2" height="6" fill="#a0781c"/>
  <rect x="7" y="10" width="2" height="6" fill="#a0781c"/>
  <rect x="0" y="7" width="6" height="2" fill="#a0781c"/>
  <rect x="10" y="7" width="6" height="2" fill="#a0781c"/>
  <!-- Signpost -->
  <rect x="7" y="3" width="2" height="8" fill="#5c3d2e"/>
  <!-- Signs pointing directions -->
  <rect x="9" y="4" width="4" height="2" fill="#8b5a2b"/>
  <rect x="3" y="6" width="4" height="2" fill="#8b5a2b"/>
  <rect x="9" y="8" width="3" height="2" fill="#8b5a2b"/>
  <!-- Arrow hints on signs -->
  <rect x="11" y="4" width="1" height="1" fill="#3a2a1e"/>
  <rect x="12" y="5" width="1" height="1" fill="#3a2a1e"/>
  <rect x="4" y="6" width="1" height="1" fill="#3a2a1e"/>
  <rect x="3" y="7" width="1" height="1" fill="#3a2a1e"/>
  <!-- Question mark hint -->
  <rect x="7" y="1" width="2" height="2" fill="#f4d03f"/>
</svg>
