<svg xmlns="http://www.w3.org/2000/svg" viewBox="0 0 16 16" width="16" height="16">
  <!-- Bridge POI - crossing/strategic -->
  <!-- Water -->
  <rect x="0" y="8" width="16" height="8" fill="#3d7ab8"/>
  <rect x="2" y="10" width="3" height="1" fill="#5a9ad0"/>
  <rect x="11" y="11" width="3" height="1" fill="#5a9ad0"/>
  <!-- Bridge deck -->
  <rect x="0" y="6" width="16" height="3" fill="#8b5a2b"/>
  <rect x="0" y="7" width="16" height="1" fill="#5c3d2e"/>
  <!-- Bridge supports -->
  <rect x="3" y="6" width="2" height="8" fill="#5c3d2e"/>
  <rect x="11" y="6" width="2" height="8" fill="#5c3d2e"/>
  <!-- Railings -->
  <rect x="0" y="5" width="16" height="1" fill="#5c3d2e"/>
  <rect x="1" y="3" width="1" height="3" fill="#5c3d2e"/>
  <rect x="5" y="3" width="1" height="3" fill="#5c3d2e"/>
  <rect x="10" y="3" width="1" height="3" fill="#5c3d2e"/>
  <rect x="14" y="3" width="1" height="3" fill="#5c3d2e"/>
  <!-- Road hints -->
  <rect x="0" y="6" width="3" height="1" fill="#8b6914"/>
  <rect x="13" y="6" width="3" height="1" fill="#8b6914"/>
  <!-- Flag marker -->
  <rect x="7" y="0" width="1" height="4" fill="#5c3d2e"/>
  <rect x="8" y="0" width="4" height="2" fill="#27ae60"/>
</svg>
