<svg xmlns="http://www.w3.org/2000/svg" viewBox="0 0 16 16" width="16" height="16">
  <!-- Stream POI - navigation/route -->
  <!-- Water flow -->
  <rect x="0" y="6" width="4" height="4" fill="#3d7ab8"/>
  <rect x="3" y="5" width="4" height="6" fill="#3d7ab8"/>
  <rect x="6" y="4" width="4" height="8" fill="#3d7ab8"/>
  <rect x="9" y="5" width="4" height="6" fill="#3d7ab8"/>
  <rect x="12" y="6" width="4" height="4" fill="#3d7ab8"/>
  <!-- Water highlights -->
  <rect x="1" y="7" width="2" height="1" fill="#5a9ad0"/>
  <rect x="4" y="6" width="2" height="1" fill="#5a9ad0"/>
  <rect x="7" y="5" width="2" height="1" fill="#5a9ad0"/>
  <rect x="10" y="6" width="2" height="1" fill="#5a9ad0"/>
  <rect x="13" y="7" width="2" height="1" fill="#5a9ad0"/>
  <!-- Banks -->
  <rect x="0" y="4" width="3" height="2" fill="#4a8c3f"/>
  <rect x="0" y="10" width="3" height="2" fill="#4a8c3f"/>
  <rect x="13" y="4" width="3" height="2" fill="#4a8c3f"/>
  <rect x="13" y="10" width="3" height="2" fill="#4a8c3f"/>
  <!-- Rocks -->
  <rect x="5" y="8" width="2" height="2" fill="#6a6a7a"/>
  <rect x="9" y="7" width="1" height="1" fill="#5a5a6a"/>
  <!-- Fish hint -->
  <rect x="11" y="8" width="2" height="1" fill="#1e3a5f"/>
</svg>
