<svg xmlns="http://www.w3.org/2000/svg" viewBox="0 0 16 16" width="16" height="16">
  <!-- Well POI - water/wish/mystery -->
  <!-- Ground -->
  <rect x="0" y="12" width="16" height="4" fill="#4a8c3f"/>
  <!-- Well base (circular) -->
  <rect x="3" y="10" width="10" height="4" fill="#6a6a7a"/>
  <rect x="4" y="9" width="8" height="2" fill="#7a7a8a"/>
  <rect x="5" y="8" width="6" height="2" fill="#6a6a7a"/>
  <!-- Well opening -->
  <rect x="5" y="10" width="6" height="3" fill="#1a1a2e"/>
  <rect x="6" y="9" width="4" height="2" fill="#1e3a5f"/>
  <!-- Water glint -->
  <rect x="7" y="11" width="2" height="1" fill="#3d7ab8"/>
  <!-- Roof structure -->
  <rect x="2" y="4" width="1" height="7" fill="#5c3d2e"/>
  <rect x="13" y="4" width="1" height="7" fill="#5c3d2e"/>
  <rect x="2" y="3" width="12" height="2" fill="#5c3d2e"/>
  <rect x="4" y="2" width="8" height="2" fill="#8b5a2b"/>
  <rect x="6" y="1" width="4" height="2" fill="#5c3d2e"/>
  <rect x="7" y="0" width="2" height="2" fill="#8b5a2b"/>
  <!-- Rope and bucket -->
  <rect x="7" y="3" width="1" height="5" fill="#8b6914"/>
  <rect x="6" y="7" width="3" height="2" fill="#5c3d2e"/>
  <!-- Coin sparkle -->
  <rect x="8" y="12" width="1" height="1" fill="#f4d03f"/>
</svg>
