<svg xmlns="http://www.w3.org/2000/svg" viewBox="0 0 16 16" width="16" height="16">
  <!-- Farm POI - food/resources -->
  <!-- Barn -->
  <rect x="8" y="6" width="7" height="8" fill="#922b21"/>
  <rect x="9" y="4" width="5" height="4" fill="#c0392b"/>
  <rect x="10" y="3" width="3" height="2" fill="#922b21"/>
  <!-- Barn door -->
  <rect x="10" y="9" width="3" height="5" fill="#5c3d2e"/>
  <rect x="11" y="10" width="1" height="3" fill="#3a2a1e"/>
  <!-- Fields -->
  <rect x="0" y="10" width="7" height="6" fill="#8b6914"/>
  <rect x="0" y="8" width="6" height="3" fill="#4a8c3f"/>
  <!-- Crop rows -->
  <rect x="1" y="11" width="1" height="4" fill="#4a8c3f"/>
  <rect x="3" y="11" width="1" height="4" fill="#4a8c3f"/>
  <rect x="5" y="11" width="1" height="4" fill="#4a8c3f"/>
  <!-- Wheat tops -->
  <rect x="0" y="9" width="1" height="1" fill="#f4d03f"/>
  <rect x="2" y="8" width="1" height="1" fill="#f4d03f"/>
  <rect x="4" y="9" width="1" height="1" fill="#f4d03f"/>
  <!-- Fence -->
  <rect x="0" y="7" width="1" height="3" fill="#5c3d2e"/>
  <rect x="6" y="7" width="1" height="3" fill="#5c3d2e"/>
  <rect x="0" y="8" width="7" height="1" fill="#8b5a2b"/>
  <!-- Silo -->
  <rect x="7" y="8" width="1" height="6" fill="#6a6a7a"/>
</svg>
