<svg xmlns="http://www.w3.org/2000/svg" viewBox="0 0 16 16" width="16" height="16">
  <!-- Ruins POI - ancient/mystery -->
  <!-- Broken pillars -->
  <rect x="1" y="8" width="3" height="8" fill="#6a6a7a"/>
  <rect x="1" y="6" width="3" height="3" fill="#7a7a8a"/>
  <rect x="0" y="5" width="2" height="2" fill="#8a8a9a"/>
  <rect x="12" y="10" width="3" height="6" fill="#6a6a7a"/>
  <rect x="12" y="8" width="3" height="3" fill="#7a7a8a"/>
  <!-- Fallen stones -->
  <rect x="5" y="12" width="3" height="2" fill="#5a5a6a"/>
  <rect x="8" y="13" width="2" height="2" fill="#4a4a5a"/>
  <rect x="6" y="14" width="2" height="2" fill="#6a6a7a"/>
  <!-- Archway remains -->
  <rect x="5" y="4" width="6" height="2" fill="#7a7a8a"/>
  <rect x="4" y="5" width="2" height="6" fill="#6a6a7a"/>
  <rect x="10" y="5" width="2" height="4" fill="#6a6a7a"/>
  <!-- Mystery glow -->
  <rect x="6" y="7" width="4" height="4" fill="#9b59b6" fill-opacity="0.4"/>
  <rect x="7" y="8" width="2" height="2" fill="#d7bde2" fill-opacity="0.6"/>
  <!-- Vines -->
  <rect x="2" y="4" width="1" height="2" fill="#2d5a27"/>
  <rect x="3" y="3" width="1" height="2" fill="#4a8c3f"/>
  <rect x="13" y="6" width="1" height="2" fill="#2d5a27"/>
</svg>
