<svg xmlns="http://www.w3.org/2000/svg" viewBox="0 0 16 16" width="16" height="16">
  <!-- Herb Patch POI - resource/food -->
  <!-- Ground -->
  <rect x="1" y="12" width="14" height="4" fill="#5c4033"/>
  <rect x="2" y="11" width="12" height="2" fill="#8b6914"/>
  <!-- Plant stems -->
  <rect x="3" y="6" width="1" height="6" fill="#2d5a27"/>
  <rect x="7" y="4" width="1" height="8" fill="#2d5a27"/>
  <rect x="11" y="5" width="1" height="7" fill="#2d5a27"/>
  <!-- Leaves -->
  <rect x="1" y="5" width="3" height="2" fill="#4a8c3f"/>
  <rect x="2" y="4" width="2" height="1" fill="#4a8c3f"/>
  <rect x="4" y="6" width="2" height="1" fill="#4a8c3f"/>
  <rect x="5" y="3" width="3" height="2" fill="#4a8c3f"/>
  <rect x="6" y="2" width="2" height="1" fill="#5ca04f"/>
  <rect x="8" y="4" width="2" height="1" fill="#4a8c3f"/>
  <rect x="9" y="4" width="3" height="2" fill="#4a8c3f"/>
  <rect x="10" y="3" width="2" height="1" fill="#4a8c3f"/>
  <rect x="12" y="5" width="2" height="1" fill="#4a8c3f"/>
  <!-- Flowers/berries -->
  <rect x="2" y="3" width="1" height="1" fill="#9b59b6"/>
  <rect x="6" y="1" width="1" height="1" fill="#e74c3c"/>
  <rect x="11" y="2" width="1" height="1" fill="#f4d03f"/>
  <!-- Sparkle -->
  <rect x="14" y="1" width="1" height="1" fill="#f4d03f"/>
</svg>
