<svg xmlns="http://www.w3.org/2000/svg" viewBox="0 0 16 16" width="16" height="16">
  <!-- Speed Up Status (16x16) - Haste buff -->
  <!-- Color Palette: #27ae60, #2ecc71, #fdfefe, #f4d03f -->

  <!-- Arrow pointing up -->
  <rect x="6" y="0" width="4" height="2" fill="#27ae60"/>
  <rect x="4" y="2" width="8" height="2" fill="#2ecc71"/>
  <rect x="2" y="4" width="12" height="2" fill="#27ae60"/>
  <rect x="6" y="6" width="4" height="8" fill="#2ecc71"/>
  <rect x="5" y="6" width="6" height="2" fill="#27ae60"/>

  <!-- Inner highlight -->
  <rect x="7" y="2" width="2" height="10" fill="#fdfefe"/>
  <rect x="5" y="4" width="6" height="2" fill="#fdfefe"/>
  <rect x="7" y="4" width="2" height="6" fill="#f4d03f"/>

  <!-- Speed lines -->
  <rect x="0" y="6" width="2" height="1" fill="#2ecc71"/>
  <rect x="0" y="8" width="3" height="1" fill="#27ae60"/>
  <rect x="0" y="10" width="2" height="1" fill="#2ecc71"/>

  <rect x="14" y="6" width="2" height="1" fill="#2ecc71"/>
  <rect x="13" y="8" width="3" height="1" fill="#27ae60"/>
  <rect x="14" y="10" width="2" height="1" fill="#2ecc71"/>

  <!-- Base -->
  <rect x="5" y="14" width="6" height="2" fill="#1e8449"/>
</svg>
