<svg xmlns="http://www.w3.org/2000/svg" viewBox="0 0 16 16" width="16" height="16">
  <!-- Tree Canopy Tile (16x16) - Forest tree top/leaves -->
  <!-- Color Palette: #27ae60, #2ecc71, #1e8449, #145a32, #229954 -->

  <!-- Base canopy shape -->
  <rect x="2" y="4" width="12" height="10" fill="#27ae60"/>
  <rect x="4" y="2" width="8" height="2" fill="#27ae60"/>
  <rect x="6" y="0" width="4" height="2" fill="#1e8449"/>
  <rect x="0" y="6" width="2" height="6" fill="#27ae60"/>
  <rect x="14" y="6" width="2" height="6" fill="#27ae60"/>
  <rect x="4" y="14" width="8" height="2" fill="#1e8449"/>

  <!-- Lighter leaf clusters -->
  <rect x="4" y="4" width="3" height="2" fill="#2ecc71"/>
  <rect x="10" y="6" width="3" height="3" fill="#2ecc71"/>
  <rect x="2" y="9" width="3" height="2" fill="#2ecc71"/>
  <rect x="7" y="12" width="3" height="2" fill="#2ecc71"/>

  <!-- Darker shadows -->
  <rect x="6" y="6" width="4" height="2" fill="#1e8449"/>
  <rect x="4" y="10" width="3" height="2" fill="#1e8449"/>
  <rect x="10" y="10" width="2" height="3" fill="#1e8449"/>

  <!-- Deep shadows -->
  <rect x="7" y="7" width="2" height="2" fill="#145a32"/>
  <rect x="5" y="11" width="1" height="1" fill="#145a32"/>

  <!-- Highlight leaves -->
  <rect x="3" y="3" width="1" height="1" fill="#229954"/>
  <rect x="11" y="5" width="1" height="1" fill="#229954"/>
  <rect x="6" y="1" width="1" height="1" fill="#229954"/>
</svg>
