<svg xmlns="http://www.w3.org/2000/svg" viewBox="0 0 16 16" width="16" height="16">
  <!-- Dirt Path Tile (16x16) - Forest dirt path -->
  <!-- Color Palette: #8b7355, #a0522d, #6b5344, #c4a35a, #27ae60 -->

  <!-- Base dirt -->
  <rect x="0" y="0" width="16" height="16" fill="#8b7355"/>

  <!-- Darker dirt patches -->
  <rect x="2" y="2" width="4" height="3" fill="#6b5344"/>
  <rect x="10" y="8" width="5" height="4" fill="#6b5344"/>
  <rect x="0" y="12" width="4" height="4" fill="#6b5344"/>

  <!-- Lighter dirt patches -->
  <rect x="8" y="2" width="3" height="2" fill="#a0522d"/>
  <rect x="4" y="9" width="4" height="3" fill="#a0522d"/>
  <rect x="12" y="13" width="3" height="2" fill="#a0522d"/>

  <!-- Pebbles -->
  <rect x="5" y="4" width="2" height="1" fill="#c4a35a"/>
  <rect x="11" y="5" width="1" height="1" fill="#c4a35a"/>
  <rect x="3" y="11" width="1" height="1" fill="#c4a35a"/>
  <rect x="14" y="10" width="1" height="1" fill="#c4a35a"/>
  <rect x="7" y="14" width="1" height="1" fill="#c4a35a"/>

  <!-- Grass edges (optional, can be combined with grass tiles) -->
  <rect x="0" y="0" width="2" height="1" fill="#27ae60"/>
  <rect x="14" y="0" width="2" height="1" fill="#27ae60"/>
  <rect x="0" y="15" width="2" height="1" fill="#27ae60"/>
  <rect x="14" y="15" width="2" height="1" fill="#27ae60"/>
</svg>
