<svg xmlns="http://www.w3.org/2000/svg" viewBox="0 0 16 16" width="16" height="16">
  <!-- Grass Tile (16x16) - Forest grass base -->
  <!-- Color Palette: #27ae60, #2ecc71, #1e8449, #229954, #145a32 -->

  <!-- Base grass -->
  <rect x="0" y="0" width="16" height="16" fill="#27ae60"/>

  <!-- Grass variation (lighter patches) -->
  <rect x="2" y="2" width="3" height="2" fill="#2ecc71"/>
  <rect x="10" y="5" width="4" height="2" fill="#2ecc71"/>
  <rect x="4" y="10" width="3" height="2" fill="#2ecc71"/>
  <rect x="12" y="12" width="3" height="2" fill="#2ecc71"/>

  <!-- Grass variation (darker patches) -->
  <rect x="6" y="3" width="3" height="2" fill="#1e8449"/>
  <rect x="0" y="8" width="3" height="2" fill="#1e8449"/>
  <rect x="8" y="12" width="2" height="2" fill="#1e8449"/>

  <!-- Grass blades hints -->
  <rect x="3" y="0" width="1" height="2" fill="#229954"/>
  <rect x="9" y="1" width="1" height="2" fill="#229954"/>
  <rect x="14" y="3" width="1" height="2" fill="#229954"/>
  <rect x="5" y="6" width="1" height="2" fill="#229954"/>
  <rect x="0" y="13" width="1" height="2" fill="#229954"/>
  <rect x="11" y="9" width="1" height="2" fill="#229954"/>

  <!-- Dark spots -->
  <rect x="7" y="7" width="1" height="1" fill="#145a32"/>
  <rect x="1" y="5" width="1" height="1" fill="#145a32"/>
  <rect x="13" y="14" width="1" height="1" fill="#145a32"/>
</svg>
