<svg xmlns="http://www.w3.org/2000/svg" viewBox="0 0 14 10" width="14" height="10">
  <!-- Wood Icon (14x10) - Lumber resource -->
  <!-- Color Palette: #8b7355, #5d4e37, #3d3426, #a08060 -->

  <!-- Log 1 -->
  <rect x="0" y="0" width="12" height="4" fill="#8b7355"/>
  <rect x="0" y="1" width="12" height="2" fill="#5d4e37"/>
  <rect x="1" y="1" width="1" height="2" fill="#a08060"/>
  <rect x="5" y="1" width="1" height="2" fill="#a08060"/>
  <rect x="9" y="1" width="1" height="2" fill="#a08060"/>

  <!-- Log 1 end -->
  <rect x="11" y="0" width="3" height="4" fill="#5d4e37"/>
  <rect x="12" y="1" width="1" height="2" fill="#3d3426"/>

  <!-- Log 2 -->
  <rect x="2" y="4" width="12" height="4" fill="#8b7355"/>
  <rect x="2" y="5" width="12" height="2" fill="#5d4e37"/>
  <rect x="3" y="5" width="1" height="2" fill="#a08060"/>
  <rect x="7" y="5" width="1" height="2" fill="#a08060"/>
  <rect x="11" y="5" width="1" height="2" fill="#a08060"/>

  <!-- Log 2 end -->
  <rect x="0" y="4" width="3" height="4" fill="#5d4e37"/>
  <rect x="1" y="5" width="1" height="2" fill="#3d3426"/>

  <!-- Ring details -->
  <rect x="0" y="5" width="2" height="2" fill="#a08060"/>
  <rect x="12" y="1" width="2" height="2" fill="#a08060"/>
</svg>
