<svg xmlns="http://www.w3.org/2000/svg" viewBox="0 0 64 48" width="64" height="48">
  <!-- Defeat Modal (64x48) - dark red themed -->

  <!-- Outer border -->
  <rect x="0" y="0" width="64" height="48" fill="#641e16"/>

  <!-- Inner dark panel -->
  <rect x="2" y="2" width="60" height="44" fill="#922b21"/>
  <rect x="3" y="3" width="58" height="42" fill="#a93226"/>

  <!-- Header with somber banner -->
  <rect x="3" y="3" width="58" height="10" fill="#7b241c"/>
  <rect x="4" y="4" width="56" height="8" fill="#943126"/>

  <!-- Skull/X decorations in header -->
  <rect x="7" y="6" width="2" height="2" fill="#5d6d7e"/>
  <rect x="55" y="6" width="2" height="2" fill="#5d6d7e"/>

  <!-- Content area -->
  <rect x="4" y="14" width="56" height="30" fill="#2c3e50"/>

  <!-- Corner shadows -->
  <rect x="0" y="0" width="4" height="2" fill="#78281f"/>
  <rect x="0" y="0" width="2" height="4" fill="#78281f"/>
  <rect x="60" y="0" width="4" height="2" fill="#78281f"/>
  <rect x="62" y="0" width="2" height="4" fill="#78281f"/>
  <rect x="0" y="46" width="4" height="2" fill="#4a1410"/>
  <rect x="0" y="44" width="2" height="4" fill="#4a1410"/>
  <rect x="60" y="46" width="4" height="2" fill="#4a1410"/>
  <rect x="62" y="44" width="2" height="4" fill="#4a1410"/>
</svg>
