<svg xmlns="http://www.w3.org/2000/svg" viewBox="0 0 16 16" width="16" height="16">
  <!-- Success Icon (16x16) - Green circle with checkmark -->
  <!-- Color Palette: #27ae60, #2ecc71, #fdfefe -->

  <!-- Circle background -->
  <rect x="4" y="1" width="8" height="2" fill="#27ae60"/>
  <rect x="2" y="3" width="12" height="2" fill="#27ae60"/>
  <rect x="1" y="5" width="14" height="6" fill="#27ae60"/>
  <rect x="2" y="11" width="12" height="2" fill="#27ae60"/>
  <rect x="4" y="13" width="8" height="2" fill="#27ae60"/>

  <!-- Inner lighter circle -->
  <rect x="5" y="2" width="6" height="1" fill="#2ecc71"/>
  <rect x="3" y="4" width="10" height="1" fill="#2ecc71"/>
  <rect x="2" y="6" width="12" height="4" fill="#2ecc71"/>

  <!-- Checkmark -->
  <rect x="3" y="7" width="2" height="2" fill="#fdfefe"/>
  <rect x="4" y="8" width="2" height="2" fill="#fdfefe"/>
  <rect x="5" y="9" width="2" height="2" fill="#fdfefe"/>
  <rect x="6" y="8" width="2" height="2" fill="#fdfefe"/>
  <rect x="7" y="7" width="2" height="2" fill="#fdfefe"/>
  <rect x="8" y="6" width="2" height="2" fill="#fdfefe"/>
  <rect x="9" y="5" width="2" height="2" fill="#fdfefe"/>
  <rect x="10" y="4" width="2" height="2" fill="#fdfefe"/>
  <rect x="11" y="3" width="2" height="2" fill="#fdfefe"/>
</svg>
