<svg xmlns="http://www.w3.org/2000/svg" viewBox="0 0 16 16" width="16" height="16">
  <!-- Error Icon (16x16) - Red circle with X -->
  <!-- Color Palette: #e74c3c, #c0392b, #fdfefe -->

  <!-- Circle background -->
  <rect x="4" y="1" width="8" height="2" fill="#e74c3c"/>
  <rect x="2" y="3" width="12" height="2" fill="#e74c3c"/>
  <rect x="1" y="5" width="14" height="6" fill="#e74c3c"/>
  <rect x="2" y="11" width="12" height="2" fill="#e74c3c"/>
  <rect x="4" y="13" width="8" height="2" fill="#e74c3c"/>

  <!-- Inner darker circle -->
  <rect x="5" y="2" width="6" height="1" fill="#c0392b"/>
  <rect x="3" y="4" width="10" height="1" fill="#c0392b"/>
  <rect x="2" y="6" width="12" height="4" fill="#c0392b"/>
  <rect x="3" y="11" width="10" height="1" fill="#c0392b"/>
  <rect x="5" y="13" width="6" height="1" fill="#c0392b"/>

  <!-- X mark -->
  <rect x="4" y="4" width="2" height="2" fill="#fdfefe"/>
  <rect x="10" y="4" width="2" height="2" fill="#fdfefe"/>
  <rect x="5" y="5" width="2" height="2" fill="#fdfefe"/>
  <rect x="9" y="5" width="2" height="2" fill="#fdfefe"/>
  <rect x="6" y="6" width="4" height="4" fill="#fdfefe"/>
  <rect x="5" y="9" width="2" height="2" fill="#fdfefe"/>
  <rect x="9" y="9" width="2" height="2" fill="#fdfefe"/>
  <rect x="4" y="10" width="2" height="2" fill="#fdfefe"/>
  <rect x="10" y="10" width="2" height="2" fill="#fdfefe"/>
</svg>
