<svg xmlns="http://www.w3.org/2000/svg" viewBox="0 0 12 12" width="12" height="12">
  <!-- Radio Button Checked (12x12) -->

  <!-- Outer ring -->
  <rect x="3" y="0" width="6" height="1" fill="#1d8348"/>
  <rect x="1" y="1" width="2" height="1" fill="#1d8348"/>
  <rect x="9" y="1" width="2" height="1" fill="#1d8348"/>
  <rect x="0" y="3" width="1" height="6" fill="#1d8348"/>
  <rect x="11" y="3" width="1" height="6" fill="#1d8348"/>
  <rect x="1" y="10" width="2" height="1" fill="#1d8348"/>
  <rect x="9" y="10" width="2" height="1" fill="#1d8348"/>
  <rect x="3" y="11" width="6" height="1" fill="#1d8348"/>

  <!-- Inner area -->
  <rect x="3" y="1" width="6" height="10" fill="#27ae60"/>
  <rect x="1" y="3" width="10" height="6" fill="#27ae60"/>
  <rect x="2" y="2" width="8" height="8" fill="#27ae60"/>

  <!-- Center dot -->
  <rect x="4" y="4" width="4" height="4" fill="#fdfefe"/>
  <rect x="5" y="3" width="2" height="6" fill="#fdfefe"/>
  <rect x="3" y="5" width="6" height="2" fill="#fdfefe"/>

  <!-- Highlight -->
  <rect x="3" y="1" width="6" height="1" fill="#58d68d"/>
</svg>
