<svg xmlns="http://www.w3.org/2000/svg" viewBox="0 0 16 24" width="16" height="24">
  <!-- Dead Tree Tile (16x24) - Dead swamp tree -->
  <!-- Color Palette: #5d4e37, #4a3c2a, #3d3229, #8b7355, #145a32 -->

  <!-- Swamp ground -->
  <rect x="0" y="20" width="16" height="4" fill="#145a32"/>
  <rect x="0" y="22" width="16" height="2" fill="#5d4e37"/>

  <!-- Tree trunk -->
  <rect x="6" y="6" width="4" height="16" fill="#5d4e37"/>
  <rect x="7" y="4" width="2" height="18" fill="#4a3c2a"/>

  <!-- Trunk texture/bark -->
  <rect x="6" y="8" width="1" height="2" fill="#3d3229"/>
  <rect x="9" y="12" width="1" height="3" fill="#3d3229"/>
  <rect x="6" y="16" width="1" height="2" fill="#3d3229"/>

  <!-- Left dead branch -->
  <rect x="2" y="4" width="4" height="2" fill="#5d4e37"/>
  <rect x="1" y="2" width="2" height="3" fill="#4a3c2a"/>
  <rect x="0" y="1" width="2" height="2" fill="#3d3229"/>

  <!-- Right dead branch -->
  <rect x="10" y="6" width="4" height="2" fill="#5d4e37"/>
  <rect x="13" y="4" width="2" height="3" fill="#4a3c2a"/>
  <rect x="14" y="2" width="2" height="3" fill="#3d3229"/>

  <!-- Upper right twig -->
  <rect x="10" y="2" width="3" height="1" fill="#4a3c2a"/>
  <rect x="12" y="0" width="1" height="2" fill="#3d3229"/>

  <!-- Tree stump roots -->
  <rect x="4" y="20" width="2" height="2" fill="#4a3c2a"/>
  <rect x="10" y="20" width="2" height="2" fill="#4a3c2a"/>

  <!-- Moss on trunk -->
  <rect x="6" y="14" width="1" height="2" fill="#1e8449" opacity="0.6"/>
  <rect x="9" y="18" width="1" height="2" fill="#1e8449" opacity="0.6"/>
</svg>
